; NON-PLATED HOLES START AT T1
; THROUGH (PLATED) HOLES START AT T100
M48
INCH
T100C0.036000
T101C0.038000
T102C0.040000
%
T100
X004699Y009831
X010699Y009831
X008696Y001875
X004699Y010831
X010699Y001831
X006694Y001875
X004699Y005831
X004699Y013831
X004699Y014831
X010699Y013831
X004699Y015831
X010699Y002831
X004699Y007831
X010699Y010831
X010699Y003831
X004699Y006831
X004699Y004831
X010699Y011831
X004699Y003831
X010699Y005831
X004699Y002831
X004699Y012831
X006694Y000875
X010699Y007831
X010699Y006831
X004699Y001831
X008696Y000875
X007696Y001875
X004699Y011831
X010699Y015831
X010699Y012831
X004699Y008831
X007696Y000875
X010699Y014831
X010699Y004831
X010699Y008831
T101
X002699Y007831
X002699Y009831
X002699Y006831
X002699Y008831
T102
X012699Y011831
X012699Y010831
X012699Y004831
X012699Y005831
X012699Y007831
X012699Y009831
X012699Y008831
X012699Y006831
T00
M30
