G04 MADE WITH FRITZING*
G04 WWW.FRITZING.ORG*
G04 DOUBLE SIDED*
G04 HOLES PLATED*
G04 CONTOUR ON CENTER OF CONTOUR VECTOR*
%ASAXBY*%
%FSLAX23Y23*%
%MOIN*%
%OFA0B0*%
%SFA1.0B1.0*%
%ADD10C,0.064000*%
%ADD11C,0.070000*%
%ADD12C,0.078000*%
%ADD13R,0.064000X0.064000*%
%ADD14R,0.069958X0.070000*%
%ADD15R,0.077944X0.077986*%
%ADD16C,0.024000*%
%LNCOPPER0*%
G90*
G70*
G54D10*
X1270Y1183D03*
X1270Y1083D03*
X1270Y983D03*
X1270Y883D03*
X1270Y783D03*
X1270Y683D03*
X1270Y583D03*
X1270Y483D03*
G54D11*
X1070Y183D03*
X1070Y283D03*
X1070Y383D03*
X1070Y483D03*
X1070Y583D03*
X1070Y683D03*
X1070Y783D03*
X1070Y883D03*
X1070Y983D03*
X1070Y1083D03*
X1070Y1183D03*
X1070Y1283D03*
X1070Y1383D03*
X1070Y1483D03*
X1070Y1583D03*
X470Y183D03*
X470Y283D03*
X470Y383D03*
X470Y483D03*
X470Y583D03*
X470Y683D03*
X470Y783D03*
X470Y883D03*
X470Y983D03*
X470Y1083D03*
X470Y1183D03*
X470Y1283D03*
X470Y1383D03*
X470Y1483D03*
X470Y1583D03*
X870Y88D03*
X870Y188D03*
X770Y88D03*
X770Y188D03*
X669Y88D03*
X669Y188D03*
G54D12*
X270Y983D03*
X270Y883D03*
X270Y783D03*
X270Y683D03*
G54D13*
X1270Y1183D03*
G54D14*
X1070Y183D03*
G54D15*
X270Y983D03*
G54D16*
X171Y883D02*
X251Y883D01*
D02*
X171Y283D02*
X171Y883D01*
D02*
X452Y283D02*
X171Y283D01*
D02*
X452Y783D02*
X289Y783D01*
D02*
X1409Y1580D02*
X1420Y883D01*
D02*
X1420Y883D02*
X1290Y883D01*
D02*
X1088Y1583D02*
X1409Y1580D01*
D02*
X1365Y1482D02*
X1367Y981D01*
D02*
X1367Y981D02*
X1290Y983D01*
D02*
X1088Y1483D02*
X1365Y1482D01*
D02*
X1256Y669D02*
X1083Y496D01*
D02*
X1270Y463D02*
X1270Y83D01*
D02*
X1270Y83D02*
X969Y83D01*
D02*
X969Y83D02*
X970Y283D01*
D02*
X970Y283D02*
X569Y283D01*
D02*
X569Y283D02*
X571Y1382D01*
D02*
X571Y1382D02*
X569Y1483D01*
D02*
X569Y1483D02*
X488Y1483D01*
G04 End of Copper0*
M02*