G04 MADE WITH FRITZING*
G04 WWW.FRITZING.ORG*
G04 DOUBLE SIDED*
G04 HOLES PLATED*
G04 CONTOUR ON CENTER OF CONTOUR VECTOR*
%ASAXBY*%
%FSLAX23Y23*%
%MOIN*%
%OFA0B0*%
%SFA1.0B1.0*%
%ADD10C,0.064000*%
%ADD11C,0.078000*%
%ADD12C,0.070000*%
%ADD13R,0.064000X0.064000*%
%ADD14R,0.077944X0.077986*%
%ADD15R,0.069958X0.070000*%
%ADD16C,0.024000*%
%LNCOPPER1*%
G90*
G70*
G54D10*
X1270Y1183D03*
X1270Y1083D03*
X1270Y983D03*
X1270Y883D03*
X1270Y783D03*
X1270Y683D03*
X1270Y583D03*
X1270Y483D03*
G54D11*
X270Y983D03*
X270Y883D03*
X270Y783D03*
X270Y683D03*
G54D12*
X1070Y183D03*
X1070Y283D03*
X1070Y383D03*
X1070Y483D03*
X1070Y583D03*
X1070Y683D03*
X1070Y783D03*
X1070Y883D03*
X1070Y983D03*
X1070Y1083D03*
X1070Y1183D03*
X1070Y1283D03*
X1070Y1383D03*
X1070Y1483D03*
X1070Y1583D03*
X470Y183D03*
X470Y283D03*
X470Y383D03*
X470Y483D03*
X470Y583D03*
X470Y683D03*
X470Y783D03*
X470Y883D03*
X470Y983D03*
X470Y1083D03*
X470Y1183D03*
X470Y1283D03*
X470Y1383D03*
X470Y1483D03*
X470Y1583D03*
X870Y88D03*
X870Y188D03*
X770Y88D03*
X770Y188D03*
X669Y88D03*
X669Y188D03*
G54D13*
X1270Y1183D03*
G54D14*
X270Y983D03*
G54D15*
X1070Y183D03*
G54D16*
X283Y697D02*
X457Y870D01*
D02*
X1171Y884D02*
X1170Y583D01*
D02*
X1170Y1283D02*
X1171Y884D01*
D02*
X1170Y583D02*
X1250Y583D01*
D02*
X1088Y1283D02*
X1170Y1283D01*
D02*
X1366Y1085D02*
X1290Y1084D01*
D02*
X1362Y129D02*
X1366Y1085D01*
D02*
X569Y1583D02*
X573Y281D01*
D02*
X573Y281D02*
X969Y285D01*
D02*
X969Y285D02*
X971Y125D01*
D02*
X971Y125D02*
X1362Y129D01*
D02*
X488Y1583D02*
X569Y1583D01*
D02*
X1270Y1382D02*
X1270Y1203D01*
D02*
X1088Y1383D02*
X1270Y1382D01*
D02*
X170Y983D02*
X170Y484D01*
D02*
X170Y484D02*
X452Y483D01*
D02*
X251Y983D02*
X170Y983D01*
G04 End of Copper1*
M02*