G04 MADE WITH FRITZING*
G04 WWW.FRITZING.ORG*
G04 DOUBLE SIDED*
G04 HOLES PLATED*
G04 CONTOUR ON CENTER OF CONTOUR VECTOR*
%ASAXBY*%
%FSLAX23Y23*%
%MOIN*%
%OFA0B0*%
%SFA1.0B1.0*%
%ADD10C,0.074000*%
%ADD11C,0.080000*%
%ADD12C,0.088000*%
%ADD13C,0.168110*%
%ADD14R,0.074000X0.074000*%
%ADD15R,0.079958X0.080000*%
%ADD16R,0.087944X0.087986*%
%LNMASK0*%
G90*
G70*
G54D10*
X1270Y1183D03*
X1270Y1083D03*
X1270Y983D03*
X1270Y883D03*
X1270Y783D03*
X1270Y683D03*
X1270Y583D03*
X1270Y483D03*
G54D11*
X1070Y183D03*
X1070Y283D03*
X1070Y383D03*
X1070Y483D03*
X1070Y583D03*
X1070Y683D03*
X1070Y783D03*
X1070Y883D03*
X1070Y983D03*
X1070Y1083D03*
X1070Y1183D03*
X1070Y1283D03*
X1070Y1383D03*
X1070Y1483D03*
X1070Y1583D03*
X470Y183D03*
X470Y283D03*
X470Y383D03*
X470Y483D03*
X470Y583D03*
X470Y683D03*
X470Y783D03*
X470Y883D03*
X470Y983D03*
X470Y1083D03*
X470Y1183D03*
X470Y1283D03*
X470Y1383D03*
X470Y1483D03*
X470Y1583D03*
X870Y88D03*
X870Y188D03*
X770Y88D03*
X770Y188D03*
X669Y88D03*
X669Y188D03*
G54D12*
X270Y983D03*
X270Y883D03*
X270Y783D03*
X270Y683D03*
G54D13*
X1494Y327D03*
X228Y1364D03*
G54D14*
X1270Y1183D03*
G54D15*
X1070Y183D03*
G54D16*
X270Y983D03*
G04 End of Mask0*
M02*