G04 MADE WITH FRITZING*
G04 WWW.FRITZING.ORG*
G04 DOUBLE SIDED*
G04 HOLES PLATED*
G04 CONTOUR ON CENTER OF CONTOUR VECTOR*
%ASAXBY*%
%FSLAX23Y23*%
%MOIN*%
%OFA0B0*%
%SFA1.0B1.0*%
%ADD10R,1.653540X1.687610X1.637540X1.671610*%
%ADD11C,0.008000*%
%ADD12R,0.001000X0.001000*%
%LNSILK1*%
G90*
G70*
G54D11*
X4Y1684D02*
X1650Y1684D01*
X1650Y4D01*
X4Y4D01*
X4Y1684D01*
D02*
G54D12*
X925Y1399D02*
X930Y1399D01*
X962Y1399D02*
X968Y1399D01*
X923Y1398D02*
X931Y1398D01*
X961Y1398D02*
X969Y1398D01*
X922Y1397D02*
X931Y1397D01*
X959Y1397D02*
X970Y1397D01*
X921Y1396D02*
X931Y1396D01*
X958Y1396D02*
X971Y1396D01*
X921Y1395D02*
X931Y1395D01*
X957Y1395D02*
X972Y1395D01*
X920Y1394D02*
X930Y1394D01*
X955Y1394D02*
X972Y1394D01*
X920Y1393D02*
X929Y1393D01*
X954Y1393D02*
X972Y1393D01*
X919Y1392D02*
X926Y1392D01*
X953Y1392D02*
X963Y1392D01*
X966Y1392D02*
X972Y1392D01*
X919Y1391D02*
X925Y1391D01*
X951Y1391D02*
X962Y1391D01*
X966Y1391D02*
X972Y1391D01*
X919Y1390D02*
X925Y1390D01*
X950Y1390D02*
X961Y1390D01*
X966Y1390D02*
X972Y1390D01*
X919Y1389D02*
X925Y1389D01*
X949Y1389D02*
X959Y1389D01*
X966Y1389D02*
X972Y1389D01*
X919Y1388D02*
X925Y1388D01*
X948Y1388D02*
X958Y1388D01*
X966Y1388D02*
X972Y1388D01*
X919Y1387D02*
X925Y1387D01*
X946Y1387D02*
X957Y1387D01*
X966Y1387D02*
X972Y1387D01*
X919Y1386D02*
X925Y1386D01*
X945Y1386D02*
X956Y1386D01*
X966Y1386D02*
X972Y1386D01*
X919Y1385D02*
X925Y1385D01*
X944Y1385D02*
X954Y1385D01*
X966Y1385D02*
X972Y1385D01*
X919Y1384D02*
X925Y1384D01*
X942Y1384D02*
X953Y1384D01*
X966Y1384D02*
X972Y1384D01*
X919Y1383D02*
X925Y1383D01*
X941Y1383D02*
X952Y1383D01*
X966Y1383D02*
X972Y1383D01*
X919Y1382D02*
X925Y1382D01*
X940Y1382D02*
X950Y1382D01*
X966Y1382D02*
X972Y1382D01*
X919Y1381D02*
X925Y1381D01*
X939Y1381D02*
X949Y1381D01*
X966Y1381D02*
X972Y1381D01*
X919Y1380D02*
X925Y1380D01*
X937Y1380D02*
X948Y1380D01*
X966Y1380D02*
X972Y1380D01*
X919Y1379D02*
X925Y1379D01*
X936Y1379D02*
X947Y1379D01*
X966Y1379D02*
X972Y1379D01*
X919Y1378D02*
X925Y1378D01*
X935Y1378D02*
X945Y1378D01*
X966Y1378D02*
X972Y1378D01*
X919Y1377D02*
X925Y1377D01*
X933Y1377D02*
X944Y1377D01*
X966Y1377D02*
X972Y1377D01*
X919Y1376D02*
X925Y1376D01*
X932Y1376D02*
X943Y1376D01*
X966Y1376D02*
X972Y1376D01*
X919Y1375D02*
X925Y1375D01*
X931Y1375D02*
X941Y1375D01*
X966Y1375D02*
X972Y1375D01*
X919Y1374D02*
X925Y1374D01*
X930Y1374D02*
X940Y1374D01*
X966Y1374D02*
X972Y1374D01*
X919Y1373D02*
X925Y1373D01*
X928Y1373D02*
X939Y1373D01*
X966Y1373D02*
X972Y1373D01*
X919Y1372D02*
X938Y1372D01*
X963Y1372D02*
X972Y1372D01*
X920Y1371D02*
X936Y1371D01*
X961Y1371D02*
X972Y1371D01*
X920Y1370D02*
X935Y1370D01*
X961Y1370D02*
X971Y1370D01*
X920Y1369D02*
X934Y1369D01*
X961Y1369D02*
X970Y1369D01*
X921Y1368D02*
X932Y1368D01*
X961Y1368D02*
X970Y1368D01*
X922Y1367D02*
X931Y1367D01*
X961Y1367D02*
X969Y1367D01*
X924Y1366D02*
X930Y1366D01*
X962Y1366D02*
X967Y1366D01*
X925Y1349D02*
X930Y1349D01*
X962Y1349D02*
X968Y1349D01*
X923Y1348D02*
X931Y1348D01*
X960Y1348D02*
X969Y1348D01*
X922Y1347D02*
X931Y1347D01*
X959Y1347D02*
X970Y1347D01*
X921Y1346D02*
X931Y1346D01*
X958Y1346D02*
X971Y1346D01*
X921Y1345D02*
X931Y1345D01*
X957Y1345D02*
X972Y1345D01*
X920Y1344D02*
X930Y1344D01*
X955Y1344D02*
X972Y1344D01*
X920Y1343D02*
X929Y1343D01*
X954Y1343D02*
X972Y1343D01*
X919Y1342D02*
X926Y1342D01*
X953Y1342D02*
X963Y1342D01*
X966Y1342D02*
X972Y1342D01*
X919Y1341D02*
X925Y1341D01*
X951Y1341D02*
X962Y1341D01*
X966Y1341D02*
X972Y1341D01*
X919Y1340D02*
X925Y1340D01*
X950Y1340D02*
X961Y1340D01*
X966Y1340D02*
X972Y1340D01*
X919Y1339D02*
X925Y1339D01*
X949Y1339D02*
X959Y1339D01*
X966Y1339D02*
X972Y1339D01*
X919Y1338D02*
X925Y1338D01*
X948Y1338D02*
X958Y1338D01*
X966Y1338D02*
X972Y1338D01*
X919Y1337D02*
X925Y1337D01*
X946Y1337D02*
X957Y1337D01*
X966Y1337D02*
X972Y1337D01*
X919Y1336D02*
X925Y1336D01*
X945Y1336D02*
X956Y1336D01*
X966Y1336D02*
X972Y1336D01*
X919Y1335D02*
X925Y1335D01*
X944Y1335D02*
X954Y1335D01*
X966Y1335D02*
X972Y1335D01*
X919Y1334D02*
X925Y1334D01*
X942Y1334D02*
X953Y1334D01*
X966Y1334D02*
X972Y1334D01*
X919Y1333D02*
X925Y1333D01*
X941Y1333D02*
X952Y1333D01*
X966Y1333D02*
X972Y1333D01*
X919Y1332D02*
X925Y1332D01*
X940Y1332D02*
X950Y1332D01*
X966Y1332D02*
X972Y1332D01*
X919Y1331D02*
X925Y1331D01*
X939Y1331D02*
X949Y1331D01*
X966Y1331D02*
X972Y1331D01*
X919Y1330D02*
X925Y1330D01*
X937Y1330D02*
X948Y1330D01*
X966Y1330D02*
X972Y1330D01*
X919Y1329D02*
X925Y1329D01*
X936Y1329D02*
X947Y1329D01*
X966Y1329D02*
X972Y1329D01*
X919Y1328D02*
X925Y1328D01*
X935Y1328D02*
X945Y1328D01*
X966Y1328D02*
X972Y1328D01*
X919Y1327D02*
X925Y1327D01*
X933Y1327D02*
X944Y1327D01*
X966Y1327D02*
X972Y1327D01*
X919Y1326D02*
X925Y1326D01*
X932Y1326D02*
X943Y1326D01*
X966Y1326D02*
X972Y1326D01*
X919Y1325D02*
X925Y1325D01*
X931Y1325D02*
X941Y1325D01*
X966Y1325D02*
X972Y1325D01*
X919Y1324D02*
X925Y1324D01*
X930Y1324D02*
X940Y1324D01*
X966Y1324D02*
X972Y1324D01*
X919Y1323D02*
X925Y1323D01*
X928Y1323D02*
X939Y1323D01*
X966Y1323D02*
X972Y1323D01*
X919Y1322D02*
X938Y1322D01*
X963Y1322D02*
X972Y1322D01*
X920Y1321D02*
X936Y1321D01*
X961Y1321D02*
X972Y1321D01*
X920Y1320D02*
X935Y1320D01*
X961Y1320D02*
X971Y1320D01*
X920Y1319D02*
X934Y1319D01*
X961Y1319D02*
X970Y1319D01*
X921Y1318D02*
X932Y1318D01*
X961Y1318D02*
X970Y1318D01*
X922Y1317D02*
X931Y1317D01*
X961Y1317D02*
X968Y1317D01*
X924Y1316D02*
X929Y1316D01*
X962Y1316D02*
X967Y1316D01*
X919Y1299D02*
X924Y1299D01*
X968Y1299D02*
X971Y1299D01*
X919Y1298D02*
X926Y1298D01*
X967Y1298D02*
X972Y1298D01*
X919Y1297D02*
X928Y1297D01*
X967Y1297D02*
X972Y1297D01*
X919Y1296D02*
X929Y1296D01*
X966Y1296D02*
X972Y1296D01*
X919Y1295D02*
X931Y1295D01*
X966Y1295D02*
X972Y1295D01*
X919Y1294D02*
X933Y1294D01*
X966Y1294D02*
X972Y1294D01*
X919Y1293D02*
X934Y1293D01*
X966Y1293D02*
X972Y1293D01*
X919Y1292D02*
X936Y1292D01*
X966Y1292D02*
X972Y1292D01*
X919Y1291D02*
X938Y1291D01*
X966Y1291D02*
X972Y1291D01*
X919Y1290D02*
X939Y1290D01*
X966Y1290D02*
X972Y1290D01*
X919Y1289D02*
X925Y1289D01*
X928Y1289D02*
X941Y1289D01*
X966Y1289D02*
X972Y1289D01*
X919Y1288D02*
X925Y1288D01*
X930Y1288D02*
X943Y1288D01*
X966Y1288D02*
X972Y1288D01*
X919Y1287D02*
X925Y1287D01*
X932Y1287D02*
X945Y1287D01*
X966Y1287D02*
X972Y1287D01*
X919Y1286D02*
X925Y1286D01*
X933Y1286D02*
X946Y1286D01*
X966Y1286D02*
X972Y1286D01*
X919Y1285D02*
X925Y1285D01*
X935Y1285D02*
X948Y1285D01*
X966Y1285D02*
X972Y1285D01*
X919Y1284D02*
X925Y1284D01*
X937Y1284D02*
X950Y1284D01*
X966Y1284D02*
X972Y1284D01*
X919Y1283D02*
X925Y1283D01*
X939Y1283D02*
X951Y1283D01*
X966Y1283D02*
X972Y1283D01*
X919Y1282D02*
X925Y1282D01*
X940Y1282D02*
X953Y1282D01*
X966Y1282D02*
X972Y1282D01*
X919Y1281D02*
X925Y1281D01*
X942Y1281D02*
X955Y1281D01*
X966Y1281D02*
X972Y1281D01*
X919Y1280D02*
X925Y1280D01*
X944Y1280D02*
X957Y1280D01*
X966Y1280D02*
X972Y1280D01*
X919Y1279D02*
X925Y1279D01*
X945Y1279D02*
X958Y1279D01*
X966Y1279D02*
X972Y1279D01*
X919Y1278D02*
X925Y1278D01*
X947Y1278D02*
X960Y1278D01*
X966Y1278D02*
X972Y1278D01*
X919Y1277D02*
X925Y1277D01*
X949Y1277D02*
X962Y1277D01*
X966Y1277D02*
X972Y1277D01*
X919Y1276D02*
X925Y1276D01*
X950Y1276D02*
X963Y1276D01*
X966Y1276D02*
X972Y1276D01*
X919Y1275D02*
X925Y1275D01*
X952Y1275D02*
X972Y1275D01*
X919Y1274D02*
X925Y1274D01*
X954Y1274D02*
X972Y1274D01*
X919Y1273D02*
X925Y1273D01*
X956Y1273D02*
X972Y1273D01*
X919Y1272D02*
X925Y1272D01*
X957Y1272D02*
X972Y1272D01*
X919Y1271D02*
X925Y1271D01*
X959Y1271D02*
X972Y1271D01*
X919Y1270D02*
X925Y1270D01*
X961Y1270D02*
X972Y1270D01*
X919Y1269D02*
X925Y1269D01*
X962Y1269D02*
X972Y1269D01*
X919Y1268D02*
X925Y1268D01*
X964Y1268D02*
X972Y1268D01*
X920Y1267D02*
X925Y1267D01*
X966Y1267D02*
X972Y1267D01*
X921Y1266D02*
X924Y1266D01*
X968Y1266D02*
X972Y1266D01*
X812Y1222D02*
X862Y1222D01*
X811Y1221D02*
X863Y1221D01*
X810Y1220D02*
X863Y1220D01*
X810Y1219D02*
X863Y1219D01*
X811Y1218D02*
X863Y1218D01*
X811Y1217D02*
X862Y1217D01*
X813Y1216D02*
X861Y1216D01*
X834Y1215D02*
X840Y1215D01*
X834Y1214D02*
X840Y1214D01*
X834Y1213D02*
X840Y1213D01*
X834Y1212D02*
X840Y1212D01*
X834Y1211D02*
X840Y1211D01*
X834Y1210D02*
X840Y1210D01*
X834Y1209D02*
X840Y1209D01*
X834Y1208D02*
X840Y1208D01*
X834Y1207D02*
X840Y1207D01*
X834Y1206D02*
X840Y1206D01*
X834Y1205D02*
X840Y1205D01*
X834Y1204D02*
X840Y1204D01*
X834Y1203D02*
X840Y1203D01*
X834Y1202D02*
X840Y1202D01*
X834Y1201D02*
X840Y1201D01*
X834Y1200D02*
X840Y1200D01*
X834Y1199D02*
X840Y1199D01*
X921Y1199D02*
X924Y1199D01*
X968Y1199D02*
X971Y1199D01*
X834Y1198D02*
X840Y1198D01*
X920Y1198D02*
X925Y1198D01*
X967Y1198D02*
X972Y1198D01*
X834Y1197D02*
X840Y1197D01*
X919Y1197D02*
X925Y1197D01*
X967Y1197D02*
X972Y1197D01*
X834Y1196D02*
X840Y1196D01*
X919Y1196D02*
X925Y1196D01*
X966Y1196D02*
X972Y1196D01*
X813Y1195D02*
X861Y1195D01*
X919Y1195D02*
X925Y1195D01*
X966Y1195D02*
X972Y1195D01*
X811Y1194D02*
X863Y1194D01*
X919Y1194D02*
X925Y1194D01*
X966Y1194D02*
X972Y1194D01*
X811Y1193D02*
X863Y1193D01*
X919Y1193D02*
X926Y1193D01*
X966Y1193D02*
X972Y1193D01*
X810Y1192D02*
X863Y1192D01*
X919Y1192D02*
X972Y1192D01*
X810Y1191D02*
X863Y1191D01*
X919Y1191D02*
X972Y1191D01*
X811Y1190D02*
X863Y1190D01*
X919Y1190D02*
X972Y1190D01*
X812Y1189D02*
X862Y1189D01*
X919Y1189D02*
X972Y1189D01*
X919Y1188D02*
X972Y1188D01*
X919Y1187D02*
X972Y1187D01*
X919Y1186D02*
X972Y1186D01*
X919Y1185D02*
X925Y1185D01*
X966Y1185D02*
X972Y1185D01*
X919Y1184D02*
X925Y1184D01*
X966Y1184D02*
X972Y1184D01*
X919Y1183D02*
X925Y1183D01*
X966Y1183D02*
X972Y1183D01*
X919Y1182D02*
X926Y1182D01*
X966Y1182D02*
X972Y1182D01*
X920Y1181D02*
X926Y1181D01*
X965Y1181D02*
X972Y1181D01*
X920Y1180D02*
X928Y1180D01*
X964Y1180D02*
X972Y1180D01*
X920Y1179D02*
X930Y1179D01*
X962Y1179D02*
X971Y1179D01*
X921Y1178D02*
X932Y1178D01*
X960Y1178D02*
X971Y1178D01*
X921Y1177D02*
X934Y1177D01*
X958Y1177D02*
X970Y1177D01*
X922Y1176D02*
X936Y1176D01*
X956Y1176D02*
X969Y1176D01*
X923Y1175D02*
X938Y1175D01*
X954Y1175D02*
X968Y1175D01*
X925Y1174D02*
X940Y1174D01*
X952Y1174D02*
X966Y1174D01*
X927Y1173D02*
X942Y1173D01*
X950Y1173D02*
X965Y1173D01*
X853Y1172D02*
X863Y1172D01*
X929Y1172D02*
X963Y1172D01*
X852Y1171D02*
X863Y1171D01*
X931Y1171D02*
X961Y1171D01*
X852Y1170D02*
X863Y1170D01*
X933Y1170D02*
X959Y1170D01*
X852Y1169D02*
X863Y1169D01*
X935Y1169D02*
X957Y1169D01*
X852Y1168D02*
X863Y1168D01*
X937Y1168D02*
X955Y1168D01*
X853Y1167D02*
X863Y1167D01*
X939Y1167D02*
X953Y1167D01*
X854Y1166D02*
X863Y1166D01*
X942Y1166D02*
X950Y1166D01*
X857Y1165D02*
X863Y1165D01*
X857Y1164D02*
X863Y1164D01*
X857Y1163D02*
X863Y1163D01*
X857Y1162D02*
X863Y1162D01*
X857Y1161D02*
X863Y1161D01*
X857Y1160D02*
X863Y1160D01*
X813Y1159D02*
X863Y1159D01*
X811Y1158D02*
X863Y1158D01*
X811Y1157D02*
X863Y1157D01*
X810Y1156D02*
X863Y1156D01*
X810Y1155D02*
X863Y1155D01*
X811Y1154D02*
X863Y1154D01*
X812Y1153D02*
X863Y1153D01*
X857Y1152D02*
X863Y1152D01*
X857Y1151D02*
X863Y1151D01*
X857Y1150D02*
X863Y1150D01*
X857Y1149D02*
X863Y1149D01*
X919Y1149D02*
X972Y1149D01*
X857Y1148D02*
X863Y1148D01*
X919Y1148D02*
X972Y1148D01*
X857Y1147D02*
X863Y1147D01*
X919Y1147D02*
X972Y1147D01*
X857Y1146D02*
X863Y1146D01*
X919Y1146D02*
X972Y1146D01*
X854Y1145D02*
X863Y1145D01*
X919Y1145D02*
X972Y1145D01*
X852Y1144D02*
X863Y1144D01*
X919Y1144D02*
X972Y1144D01*
X852Y1143D02*
X863Y1143D01*
X919Y1143D02*
X972Y1143D01*
X852Y1142D02*
X863Y1142D01*
X919Y1142D02*
X925Y1142D01*
X943Y1142D02*
X949Y1142D01*
X966Y1142D02*
X972Y1142D01*
X852Y1141D02*
X863Y1141D01*
X919Y1141D02*
X925Y1141D01*
X943Y1141D02*
X949Y1141D01*
X966Y1141D02*
X972Y1141D01*
X852Y1140D02*
X863Y1140D01*
X919Y1140D02*
X925Y1140D01*
X943Y1140D02*
X949Y1140D01*
X966Y1140D02*
X972Y1140D01*
X853Y1139D02*
X863Y1139D01*
X919Y1139D02*
X925Y1139D01*
X943Y1139D02*
X949Y1139D01*
X966Y1139D02*
X972Y1139D01*
X919Y1138D02*
X925Y1138D01*
X943Y1138D02*
X949Y1138D01*
X966Y1138D02*
X972Y1138D01*
X919Y1137D02*
X925Y1137D01*
X943Y1137D02*
X949Y1137D01*
X966Y1137D02*
X972Y1137D01*
X919Y1136D02*
X925Y1136D01*
X943Y1136D02*
X949Y1136D01*
X966Y1136D02*
X972Y1136D01*
X919Y1135D02*
X925Y1135D01*
X943Y1135D02*
X949Y1135D01*
X966Y1135D02*
X972Y1135D01*
X919Y1134D02*
X925Y1134D01*
X943Y1134D02*
X949Y1134D01*
X966Y1134D02*
X972Y1134D01*
X919Y1133D02*
X925Y1133D01*
X943Y1133D02*
X949Y1133D01*
X966Y1133D02*
X972Y1133D01*
X919Y1132D02*
X925Y1132D01*
X943Y1132D02*
X949Y1132D01*
X966Y1132D02*
X972Y1132D01*
X919Y1131D02*
X925Y1131D01*
X943Y1131D02*
X948Y1131D01*
X966Y1131D02*
X972Y1131D01*
X919Y1130D02*
X925Y1130D01*
X944Y1130D02*
X948Y1130D01*
X966Y1130D02*
X972Y1130D01*
X919Y1129D02*
X925Y1129D01*
X966Y1129D02*
X972Y1129D01*
X919Y1128D02*
X925Y1128D01*
X966Y1128D02*
X972Y1128D01*
X919Y1127D02*
X925Y1127D01*
X966Y1127D02*
X972Y1127D01*
X919Y1126D02*
X925Y1126D01*
X966Y1126D02*
X972Y1126D01*
X919Y1125D02*
X925Y1125D01*
X966Y1125D02*
X972Y1125D01*
X919Y1124D02*
X925Y1124D01*
X966Y1124D02*
X972Y1124D01*
X919Y1123D02*
X925Y1123D01*
X966Y1123D02*
X972Y1123D01*
X853Y1122D02*
X863Y1122D01*
X919Y1122D02*
X925Y1122D01*
X966Y1122D02*
X972Y1122D01*
X852Y1121D02*
X863Y1121D01*
X919Y1121D02*
X925Y1121D01*
X966Y1121D02*
X972Y1121D01*
X852Y1120D02*
X863Y1120D01*
X919Y1120D02*
X925Y1120D01*
X966Y1120D02*
X972Y1120D01*
X852Y1119D02*
X863Y1119D01*
X919Y1119D02*
X925Y1119D01*
X966Y1119D02*
X972Y1119D01*
X852Y1118D02*
X863Y1118D01*
X919Y1118D02*
X925Y1118D01*
X967Y1118D02*
X972Y1118D01*
X853Y1117D02*
X863Y1117D01*
X920Y1117D02*
X925Y1117D01*
X967Y1117D02*
X972Y1117D01*
X854Y1116D02*
X863Y1116D01*
X921Y1116D02*
X924Y1116D01*
X968Y1116D02*
X971Y1116D01*
X857Y1115D02*
X863Y1115D01*
X857Y1114D02*
X863Y1114D01*
X857Y1113D02*
X863Y1113D01*
X857Y1112D02*
X863Y1112D01*
X857Y1111D02*
X863Y1111D01*
X857Y1110D02*
X863Y1110D01*
X813Y1109D02*
X863Y1109D01*
X811Y1108D02*
X863Y1108D01*
X811Y1107D02*
X863Y1107D01*
X810Y1106D02*
X863Y1106D01*
X810Y1105D02*
X863Y1105D01*
X811Y1104D02*
X863Y1104D01*
X812Y1103D02*
X863Y1103D01*
X857Y1102D02*
X863Y1102D01*
X857Y1101D02*
X863Y1101D01*
X857Y1100D02*
X863Y1100D01*
X857Y1099D02*
X863Y1099D01*
X919Y1099D02*
X972Y1099D01*
X857Y1098D02*
X863Y1098D01*
X919Y1098D02*
X972Y1098D01*
X857Y1097D02*
X863Y1097D01*
X919Y1097D02*
X972Y1097D01*
X857Y1096D02*
X863Y1096D01*
X919Y1096D02*
X972Y1096D01*
X854Y1095D02*
X863Y1095D01*
X919Y1095D02*
X972Y1095D01*
X852Y1094D02*
X863Y1094D01*
X919Y1094D02*
X972Y1094D01*
X852Y1093D02*
X863Y1093D01*
X919Y1093D02*
X972Y1093D01*
X852Y1092D02*
X863Y1092D01*
X919Y1092D02*
X925Y1092D01*
X943Y1092D02*
X949Y1092D01*
X966Y1092D02*
X972Y1092D01*
X852Y1091D02*
X863Y1091D01*
X919Y1091D02*
X925Y1091D01*
X943Y1091D02*
X949Y1091D01*
X966Y1091D02*
X972Y1091D01*
X852Y1090D02*
X863Y1090D01*
X919Y1090D02*
X925Y1090D01*
X943Y1090D02*
X949Y1090D01*
X966Y1090D02*
X972Y1090D01*
X853Y1089D02*
X863Y1089D01*
X919Y1089D02*
X925Y1089D01*
X943Y1089D02*
X949Y1089D01*
X966Y1089D02*
X972Y1089D01*
X919Y1088D02*
X925Y1088D01*
X943Y1088D02*
X949Y1088D01*
X966Y1088D02*
X972Y1088D01*
X919Y1087D02*
X925Y1087D01*
X943Y1087D02*
X949Y1087D01*
X966Y1087D02*
X972Y1087D01*
X919Y1086D02*
X925Y1086D01*
X943Y1086D02*
X949Y1086D01*
X966Y1086D02*
X972Y1086D01*
X919Y1085D02*
X925Y1085D01*
X943Y1085D02*
X949Y1085D01*
X966Y1085D02*
X972Y1085D01*
X919Y1084D02*
X925Y1084D01*
X943Y1084D02*
X949Y1084D01*
X966Y1084D02*
X972Y1084D01*
X919Y1083D02*
X925Y1083D01*
X943Y1083D02*
X949Y1083D01*
X966Y1083D02*
X972Y1083D01*
X919Y1082D02*
X925Y1082D01*
X943Y1082D02*
X949Y1082D01*
X966Y1082D02*
X972Y1082D01*
X919Y1081D02*
X925Y1081D01*
X943Y1081D02*
X949Y1081D01*
X966Y1081D02*
X972Y1081D01*
X919Y1080D02*
X925Y1080D01*
X943Y1080D02*
X949Y1080D01*
X966Y1080D02*
X972Y1080D01*
X919Y1079D02*
X925Y1079D01*
X943Y1079D02*
X949Y1079D01*
X966Y1079D02*
X972Y1079D01*
X919Y1078D02*
X925Y1078D01*
X943Y1078D02*
X949Y1078D01*
X966Y1078D02*
X972Y1078D01*
X919Y1077D02*
X926Y1077D01*
X942Y1077D02*
X949Y1077D01*
X966Y1077D02*
X972Y1077D01*
X920Y1076D02*
X926Y1076D01*
X942Y1076D02*
X950Y1076D01*
X966Y1076D02*
X972Y1076D01*
X920Y1075D02*
X927Y1075D01*
X941Y1075D02*
X950Y1075D01*
X965Y1075D02*
X972Y1075D01*
X920Y1074D02*
X928Y1074D01*
X940Y1074D02*
X951Y1074D01*
X964Y1074D02*
X971Y1074D01*
X921Y1073D02*
X929Y1073D01*
X939Y1073D02*
X953Y1073D01*
X962Y1073D02*
X971Y1073D01*
X812Y1072D02*
X863Y1072D01*
X921Y1072D02*
X970Y1072D01*
X811Y1071D02*
X863Y1071D01*
X922Y1071D02*
X970Y1071D01*
X810Y1070D02*
X863Y1070D01*
X923Y1070D02*
X969Y1070D01*
X810Y1069D02*
X863Y1069D01*
X924Y1069D02*
X944Y1069D01*
X948Y1069D02*
X968Y1069D01*
X811Y1068D02*
X863Y1068D01*
X925Y1068D02*
X943Y1068D01*
X949Y1068D02*
X967Y1068D01*
X811Y1067D02*
X863Y1067D01*
X927Y1067D02*
X941Y1067D01*
X950Y1067D02*
X965Y1067D01*
X813Y1066D02*
X863Y1066D01*
X929Y1066D02*
X939Y1066D01*
X952Y1066D02*
X963Y1066D01*
X831Y1065D02*
X837Y1065D01*
X857Y1065D02*
X863Y1065D01*
X831Y1064D02*
X837Y1064D01*
X857Y1064D02*
X863Y1064D01*
X831Y1063D02*
X837Y1063D01*
X857Y1063D02*
X863Y1063D01*
X831Y1062D02*
X837Y1062D01*
X857Y1062D02*
X863Y1062D01*
X831Y1061D02*
X837Y1061D01*
X857Y1061D02*
X863Y1061D01*
X831Y1060D02*
X837Y1060D01*
X857Y1060D02*
X863Y1060D01*
X831Y1059D02*
X837Y1059D01*
X857Y1059D02*
X863Y1059D01*
X831Y1058D02*
X837Y1058D01*
X857Y1058D02*
X863Y1058D01*
X831Y1057D02*
X837Y1057D01*
X857Y1057D02*
X863Y1057D01*
X831Y1056D02*
X837Y1056D01*
X857Y1056D02*
X863Y1056D01*
X831Y1055D02*
X837Y1055D01*
X857Y1055D02*
X863Y1055D01*
X831Y1054D02*
X837Y1054D01*
X857Y1054D02*
X863Y1054D01*
X831Y1053D02*
X837Y1053D01*
X857Y1053D02*
X863Y1053D01*
X831Y1052D02*
X837Y1052D01*
X857Y1052D02*
X863Y1052D01*
X831Y1051D02*
X837Y1051D01*
X857Y1051D02*
X863Y1051D01*
X831Y1050D02*
X837Y1050D01*
X857Y1050D02*
X863Y1050D01*
X831Y1049D02*
X837Y1049D01*
X857Y1049D02*
X863Y1049D01*
X921Y1049D02*
X924Y1049D01*
X968Y1049D02*
X971Y1049D01*
X831Y1048D02*
X837Y1048D01*
X857Y1048D02*
X863Y1048D01*
X920Y1048D02*
X925Y1048D01*
X967Y1048D02*
X972Y1048D01*
X831Y1047D02*
X838Y1047D01*
X857Y1047D02*
X863Y1047D01*
X919Y1047D02*
X925Y1047D01*
X967Y1047D02*
X972Y1047D01*
X831Y1046D02*
X839Y1046D01*
X856Y1046D02*
X863Y1046D01*
X919Y1046D02*
X925Y1046D01*
X966Y1046D02*
X972Y1046D01*
X832Y1045D02*
X863Y1045D01*
X919Y1045D02*
X925Y1045D01*
X966Y1045D02*
X972Y1045D01*
X832Y1044D02*
X862Y1044D01*
X919Y1044D02*
X925Y1044D01*
X966Y1044D02*
X972Y1044D01*
X833Y1043D02*
X862Y1043D01*
X919Y1043D02*
X925Y1043D01*
X966Y1043D02*
X972Y1043D01*
X834Y1042D02*
X861Y1042D01*
X919Y1042D02*
X925Y1042D01*
X966Y1042D02*
X972Y1042D01*
X835Y1041D02*
X860Y1041D01*
X919Y1041D02*
X925Y1041D01*
X966Y1041D02*
X972Y1041D01*
X836Y1040D02*
X859Y1040D01*
X919Y1040D02*
X925Y1040D01*
X966Y1040D02*
X972Y1040D01*
X838Y1039D02*
X857Y1039D01*
X919Y1039D02*
X925Y1039D01*
X966Y1039D02*
X972Y1039D01*
X919Y1038D02*
X925Y1038D01*
X966Y1038D02*
X972Y1038D01*
X919Y1037D02*
X925Y1037D01*
X966Y1037D02*
X972Y1037D01*
X919Y1036D02*
X972Y1036D01*
X919Y1035D02*
X972Y1035D01*
X919Y1034D02*
X972Y1034D01*
X919Y1033D02*
X972Y1033D01*
X919Y1032D02*
X972Y1032D01*
X919Y1031D02*
X972Y1031D01*
X919Y1030D02*
X972Y1030D01*
X919Y1029D02*
X926Y1029D01*
X966Y1029D02*
X972Y1029D01*
X919Y1028D02*
X925Y1028D01*
X966Y1028D02*
X972Y1028D01*
X919Y1027D02*
X925Y1027D01*
X966Y1027D02*
X972Y1027D01*
X919Y1026D02*
X925Y1026D01*
X966Y1026D02*
X972Y1026D01*
X919Y1025D02*
X925Y1025D01*
X966Y1025D02*
X972Y1025D01*
X919Y1024D02*
X925Y1024D01*
X966Y1024D02*
X972Y1024D01*
X919Y1023D02*
X925Y1023D01*
X966Y1023D02*
X972Y1023D01*
X816Y1022D02*
X821Y1022D01*
X853Y1022D02*
X859Y1022D01*
X919Y1022D02*
X925Y1022D01*
X966Y1022D02*
X972Y1022D01*
X814Y1021D02*
X822Y1021D01*
X851Y1021D02*
X861Y1021D01*
X919Y1021D02*
X925Y1021D01*
X966Y1021D02*
X972Y1021D01*
X813Y1020D02*
X822Y1020D01*
X850Y1020D02*
X862Y1020D01*
X919Y1020D02*
X925Y1020D01*
X966Y1020D02*
X972Y1020D01*
X812Y1019D02*
X822Y1019D01*
X849Y1019D02*
X862Y1019D01*
X919Y1019D02*
X925Y1019D01*
X966Y1019D02*
X972Y1019D01*
X811Y1018D02*
X822Y1018D01*
X847Y1018D02*
X863Y1018D01*
X919Y1018D02*
X925Y1018D01*
X967Y1018D02*
X972Y1018D01*
X811Y1017D02*
X821Y1017D01*
X846Y1017D02*
X863Y1017D01*
X920Y1017D02*
X925Y1017D01*
X967Y1017D02*
X972Y1017D01*
X746Y1016D02*
X756Y1016D01*
X811Y1016D02*
X819Y1016D01*
X845Y1016D02*
X863Y1016D01*
X921Y1016D02*
X924Y1016D01*
X968Y1016D02*
X971Y1016D01*
X744Y1015D02*
X757Y1015D01*
X810Y1015D02*
X817Y1015D01*
X844Y1015D02*
X854Y1015D01*
X857Y1015D02*
X863Y1015D01*
X742Y1014D02*
X757Y1014D01*
X810Y1014D02*
X816Y1014D01*
X842Y1014D02*
X853Y1014D01*
X857Y1014D02*
X863Y1014D01*
X740Y1013D02*
X757Y1013D01*
X810Y1013D02*
X816Y1013D01*
X841Y1013D02*
X852Y1013D01*
X857Y1013D02*
X863Y1013D01*
X737Y1012D02*
X757Y1012D01*
X810Y1012D02*
X816Y1012D01*
X840Y1012D02*
X850Y1012D01*
X857Y1012D02*
X863Y1012D01*
X735Y1011D02*
X756Y1011D01*
X810Y1011D02*
X816Y1011D01*
X838Y1011D02*
X849Y1011D01*
X857Y1011D02*
X863Y1011D01*
X733Y1010D02*
X755Y1010D01*
X810Y1010D02*
X816Y1010D01*
X837Y1010D02*
X848Y1010D01*
X857Y1010D02*
X863Y1010D01*
X730Y1009D02*
X747Y1009D01*
X810Y1009D02*
X816Y1009D01*
X836Y1009D02*
X846Y1009D01*
X857Y1009D02*
X863Y1009D01*
X728Y1008D02*
X745Y1008D01*
X810Y1008D02*
X816Y1008D01*
X835Y1008D02*
X845Y1008D01*
X857Y1008D02*
X863Y1008D01*
X726Y1007D02*
X742Y1007D01*
X810Y1007D02*
X816Y1007D01*
X833Y1007D02*
X844Y1007D01*
X857Y1007D02*
X863Y1007D01*
X724Y1006D02*
X740Y1006D01*
X810Y1006D02*
X816Y1006D01*
X832Y1006D02*
X843Y1006D01*
X857Y1006D02*
X863Y1006D01*
X721Y1005D02*
X738Y1005D01*
X810Y1005D02*
X816Y1005D01*
X831Y1005D02*
X841Y1005D01*
X857Y1005D02*
X863Y1005D01*
X720Y1004D02*
X735Y1004D01*
X810Y1004D02*
X816Y1004D01*
X829Y1004D02*
X840Y1004D01*
X857Y1004D02*
X863Y1004D01*
X719Y1003D02*
X733Y1003D01*
X810Y1003D02*
X816Y1003D01*
X828Y1003D02*
X839Y1003D01*
X857Y1003D02*
X863Y1003D01*
X719Y1002D02*
X731Y1002D01*
X810Y1002D02*
X816Y1002D01*
X827Y1002D02*
X837Y1002D01*
X857Y1002D02*
X863Y1002D01*
X719Y1001D02*
X729Y1001D01*
X810Y1001D02*
X816Y1001D01*
X826Y1001D02*
X836Y1001D01*
X857Y1001D02*
X863Y1001D01*
X719Y1000D02*
X726Y1000D01*
X810Y1000D02*
X816Y1000D01*
X824Y1000D02*
X835Y1000D01*
X857Y1000D02*
X863Y1000D01*
X719Y999D02*
X726Y999D01*
X810Y999D02*
X816Y999D01*
X823Y999D02*
X834Y999D01*
X857Y999D02*
X863Y999D01*
X962Y999D02*
X972Y999D01*
X719Y998D02*
X728Y998D01*
X810Y998D02*
X816Y998D01*
X822Y998D02*
X832Y998D01*
X857Y998D02*
X863Y998D01*
X961Y998D02*
X972Y998D01*
X719Y997D02*
X731Y997D01*
X810Y997D02*
X816Y997D01*
X820Y997D02*
X831Y997D01*
X857Y997D02*
X863Y997D01*
X961Y997D02*
X972Y997D01*
X719Y996D02*
X733Y996D01*
X810Y996D02*
X816Y996D01*
X819Y996D02*
X830Y996D01*
X857Y996D02*
X863Y996D01*
X961Y996D02*
X972Y996D01*
X720Y995D02*
X735Y995D01*
X810Y995D02*
X828Y995D01*
X854Y995D02*
X863Y995D01*
X961Y995D02*
X972Y995D01*
X721Y994D02*
X737Y994D01*
X811Y994D02*
X827Y994D01*
X852Y994D02*
X863Y994D01*
X962Y994D02*
X972Y994D01*
X723Y993D02*
X740Y993D01*
X811Y993D02*
X826Y993D01*
X852Y993D02*
X862Y993D01*
X963Y993D02*
X972Y993D01*
X726Y992D02*
X742Y992D01*
X812Y992D02*
X825Y992D01*
X852Y992D02*
X861Y992D01*
X966Y992D02*
X972Y992D01*
X728Y991D02*
X744Y991D01*
X812Y991D02*
X823Y991D01*
X852Y991D02*
X861Y991D01*
X966Y991D02*
X972Y991D01*
X730Y990D02*
X747Y990D01*
X813Y990D02*
X822Y990D01*
X852Y990D02*
X859Y990D01*
X966Y990D02*
X972Y990D01*
X732Y989D02*
X754Y989D01*
X815Y989D02*
X820Y989D01*
X853Y989D02*
X858Y989D01*
X966Y989D02*
X972Y989D01*
X735Y988D02*
X756Y988D01*
X966Y988D02*
X972Y988D01*
X737Y987D02*
X757Y987D01*
X966Y987D02*
X972Y987D01*
X739Y986D02*
X757Y986D01*
X922Y986D02*
X972Y986D01*
X742Y985D02*
X757Y985D01*
X920Y985D02*
X972Y985D01*
X744Y984D02*
X757Y984D01*
X920Y984D02*
X972Y984D01*
X746Y983D02*
X756Y983D01*
X919Y983D02*
X972Y983D01*
X919Y982D02*
X972Y982D01*
X920Y981D02*
X972Y981D01*
X921Y980D02*
X972Y980D01*
X966Y979D02*
X972Y979D01*
X966Y978D02*
X972Y978D01*
X966Y977D02*
X972Y977D01*
X966Y976D02*
X972Y976D01*
X966Y975D02*
X972Y975D01*
X966Y974D02*
X972Y974D01*
X966Y973D02*
X972Y973D01*
X963Y972D02*
X972Y972D01*
X961Y971D02*
X972Y971D01*
X961Y970D02*
X972Y970D01*
X961Y969D02*
X972Y969D01*
X961Y968D02*
X972Y968D01*
X961Y967D02*
X972Y967D01*
X720Y966D02*
X723Y966D01*
X767Y966D02*
X770Y966D01*
X962Y966D02*
X972Y966D01*
X719Y965D02*
X724Y965D01*
X766Y965D02*
X771Y965D01*
X719Y964D02*
X725Y964D01*
X766Y964D02*
X772Y964D01*
X719Y963D02*
X725Y963D01*
X766Y963D02*
X772Y963D01*
X719Y962D02*
X725Y962D01*
X766Y962D02*
X772Y962D01*
X821Y962D02*
X829Y962D01*
X844Y962D02*
X853Y962D01*
X719Y961D02*
X725Y961D01*
X766Y961D02*
X772Y961D01*
X820Y961D02*
X830Y961D01*
X843Y961D02*
X854Y961D01*
X719Y960D02*
X725Y960D01*
X766Y960D02*
X772Y960D01*
X819Y960D02*
X831Y960D01*
X843Y960D02*
X854Y960D01*
X719Y959D02*
X725Y959D01*
X766Y959D02*
X772Y959D01*
X819Y959D02*
X831Y959D01*
X843Y959D02*
X855Y959D01*
X719Y958D02*
X725Y958D01*
X766Y958D02*
X772Y958D01*
X819Y958D02*
X831Y958D01*
X843Y958D02*
X855Y958D01*
X719Y957D02*
X725Y957D01*
X766Y957D02*
X772Y957D01*
X819Y957D02*
X831Y957D01*
X843Y957D02*
X855Y957D01*
X719Y956D02*
X725Y956D01*
X766Y956D02*
X772Y956D01*
X819Y956D02*
X831Y956D01*
X843Y956D02*
X855Y956D01*
X719Y955D02*
X725Y955D01*
X766Y955D02*
X772Y955D01*
X819Y955D02*
X831Y955D01*
X843Y955D02*
X855Y955D01*
X719Y954D02*
X725Y954D01*
X766Y954D02*
X772Y954D01*
X819Y954D02*
X831Y954D01*
X843Y954D02*
X855Y954D01*
X719Y953D02*
X725Y953D01*
X766Y953D02*
X772Y953D01*
X819Y953D02*
X831Y953D01*
X843Y953D02*
X855Y953D01*
X719Y952D02*
X772Y952D01*
X819Y952D02*
X831Y952D01*
X843Y952D02*
X855Y952D01*
X719Y951D02*
X772Y951D01*
X819Y951D02*
X831Y951D01*
X843Y951D02*
X854Y951D01*
X719Y950D02*
X772Y950D01*
X820Y950D02*
X830Y950D01*
X844Y950D02*
X854Y950D01*
X719Y949D02*
X772Y949D01*
X821Y949D02*
X829Y949D01*
X845Y949D02*
X852Y949D01*
X719Y948D02*
X772Y948D01*
X719Y947D02*
X772Y947D01*
X719Y946D02*
X772Y946D01*
X719Y945D02*
X725Y945D01*
X719Y944D02*
X725Y944D01*
X719Y943D02*
X725Y943D01*
X719Y942D02*
X725Y942D01*
X719Y941D02*
X725Y941D01*
X719Y940D02*
X725Y940D01*
X719Y939D02*
X740Y939D01*
X719Y938D02*
X742Y938D01*
X719Y937D02*
X742Y937D01*
X719Y936D02*
X742Y936D01*
X719Y935D02*
X742Y935D01*
X719Y934D02*
X742Y934D01*
X720Y933D02*
X741Y933D01*
X812Y922D02*
X815Y922D01*
X811Y921D02*
X817Y921D01*
X810Y920D02*
X819Y920D01*
X810Y919D02*
X821Y919D01*
X811Y918D02*
X822Y918D01*
X811Y917D02*
X824Y917D01*
X813Y916D02*
X826Y916D01*
X814Y915D02*
X827Y915D01*
X816Y914D02*
X829Y914D01*
X818Y913D02*
X831Y913D01*
X820Y912D02*
X833Y912D01*
X821Y911D02*
X834Y911D01*
X823Y910D02*
X836Y910D01*
X825Y909D02*
X838Y909D01*
X826Y908D02*
X839Y908D01*
X828Y907D02*
X841Y907D01*
X730Y906D02*
X738Y906D01*
X830Y906D02*
X843Y906D01*
X728Y905D02*
X739Y905D01*
X832Y905D02*
X845Y905D01*
X728Y904D02*
X739Y904D01*
X833Y904D02*
X846Y904D01*
X728Y903D02*
X740Y903D01*
X835Y903D02*
X848Y903D01*
X728Y902D02*
X740Y902D01*
X837Y902D02*
X850Y902D01*
X728Y901D02*
X740Y901D01*
X838Y901D02*
X851Y901D01*
X728Y900D02*
X740Y900D01*
X840Y900D02*
X853Y900D01*
X728Y899D02*
X740Y899D01*
X842Y899D02*
X855Y899D01*
X941Y899D02*
X950Y899D01*
X728Y898D02*
X740Y898D01*
X843Y898D02*
X856Y898D01*
X939Y898D02*
X953Y898D01*
X728Y897D02*
X740Y897D01*
X845Y897D02*
X858Y897D01*
X937Y897D02*
X955Y897D01*
X728Y896D02*
X740Y896D01*
X847Y896D02*
X860Y896D01*
X935Y896D02*
X957Y896D01*
X728Y895D02*
X739Y895D01*
X849Y895D02*
X862Y895D01*
X933Y895D02*
X959Y895D01*
X728Y894D02*
X739Y894D01*
X850Y894D02*
X863Y894D01*
X931Y894D02*
X961Y894D01*
X729Y893D02*
X738Y893D01*
X852Y893D02*
X863Y893D01*
X929Y893D02*
X963Y893D01*
X854Y892D02*
X863Y892D01*
X927Y892D02*
X941Y892D01*
X950Y892D02*
X965Y892D01*
X855Y891D02*
X863Y891D01*
X925Y891D02*
X939Y891D01*
X952Y891D02*
X967Y891D01*
X857Y890D02*
X863Y890D01*
X923Y890D02*
X937Y890D01*
X954Y890D02*
X969Y890D01*
X859Y889D02*
X862Y889D01*
X922Y889D02*
X935Y889D01*
X956Y889D02*
X970Y889D01*
X921Y888D02*
X933Y888D01*
X958Y888D02*
X970Y888D01*
X921Y887D02*
X931Y887D01*
X960Y887D02*
X971Y887D01*
X920Y886D02*
X930Y886D01*
X962Y886D02*
X971Y886D01*
X920Y885D02*
X928Y885D01*
X964Y885D02*
X972Y885D01*
X920Y884D02*
X926Y884D01*
X966Y884D02*
X972Y884D01*
X919Y883D02*
X926Y883D01*
X966Y883D02*
X972Y883D01*
X919Y882D02*
X925Y882D01*
X966Y882D02*
X972Y882D01*
X919Y881D02*
X925Y881D01*
X966Y881D02*
X972Y881D01*
X919Y880D02*
X925Y880D01*
X966Y880D02*
X972Y880D01*
X919Y879D02*
X925Y879D01*
X966Y879D02*
X972Y879D01*
X919Y878D02*
X925Y878D01*
X966Y878D02*
X972Y878D01*
X919Y877D02*
X925Y877D01*
X966Y877D02*
X972Y877D01*
X919Y876D02*
X925Y876D01*
X966Y876D02*
X972Y876D01*
X919Y875D02*
X925Y875D01*
X966Y875D02*
X972Y875D01*
X919Y874D02*
X925Y874D01*
X966Y874D02*
X972Y874D01*
X919Y873D02*
X925Y873D01*
X966Y873D02*
X972Y873D01*
X812Y872D02*
X815Y872D01*
X919Y872D02*
X925Y872D01*
X966Y872D02*
X972Y872D01*
X811Y871D02*
X817Y871D01*
X919Y871D02*
X925Y871D01*
X966Y871D02*
X972Y871D01*
X810Y870D02*
X819Y870D01*
X919Y870D02*
X925Y870D01*
X966Y870D02*
X972Y870D01*
X810Y869D02*
X821Y869D01*
X919Y869D02*
X925Y869D01*
X966Y869D02*
X972Y869D01*
X811Y868D02*
X822Y868D01*
X919Y868D02*
X925Y868D01*
X967Y868D02*
X972Y868D01*
X811Y867D02*
X824Y867D01*
X920Y867D02*
X925Y867D01*
X967Y867D02*
X972Y867D01*
X723Y866D02*
X768Y866D01*
X813Y866D02*
X826Y866D01*
X921Y866D02*
X924Y866D01*
X968Y866D02*
X971Y866D01*
X721Y865D02*
X769Y865D01*
X814Y865D02*
X827Y865D01*
X720Y864D02*
X770Y864D01*
X816Y864D02*
X829Y864D01*
X720Y863D02*
X771Y863D01*
X818Y863D02*
X831Y863D01*
X719Y862D02*
X772Y862D01*
X820Y862D02*
X833Y862D01*
X719Y861D02*
X772Y861D01*
X821Y861D02*
X834Y861D01*
X719Y860D02*
X772Y860D01*
X823Y860D02*
X836Y860D01*
X719Y859D02*
X725Y859D01*
X766Y859D02*
X772Y859D01*
X825Y859D02*
X838Y859D01*
X719Y858D02*
X725Y858D01*
X766Y858D02*
X772Y858D01*
X826Y858D02*
X839Y858D01*
X719Y857D02*
X725Y857D01*
X766Y857D02*
X772Y857D01*
X828Y857D02*
X841Y857D01*
X719Y856D02*
X725Y856D01*
X766Y856D02*
X772Y856D01*
X830Y856D02*
X843Y856D01*
X719Y855D02*
X725Y855D01*
X766Y855D02*
X772Y855D01*
X832Y855D02*
X845Y855D01*
X719Y854D02*
X725Y854D01*
X766Y854D02*
X772Y854D01*
X833Y854D02*
X846Y854D01*
X719Y853D02*
X725Y853D01*
X766Y853D02*
X772Y853D01*
X835Y853D02*
X848Y853D01*
X719Y852D02*
X725Y852D01*
X766Y852D02*
X772Y852D01*
X837Y852D02*
X850Y852D01*
X719Y851D02*
X725Y851D01*
X766Y851D02*
X772Y851D01*
X838Y851D02*
X851Y851D01*
X719Y850D02*
X725Y850D01*
X766Y850D02*
X772Y850D01*
X840Y850D02*
X853Y850D01*
X922Y850D02*
X922Y850D01*
X719Y849D02*
X725Y849D01*
X766Y849D02*
X772Y849D01*
X842Y849D02*
X855Y849D01*
X920Y849D02*
X926Y849D01*
X719Y848D02*
X725Y848D01*
X766Y848D02*
X772Y848D01*
X844Y848D02*
X857Y848D01*
X920Y848D02*
X929Y848D01*
X719Y847D02*
X725Y847D01*
X766Y847D02*
X772Y847D01*
X845Y847D02*
X858Y847D01*
X919Y847D02*
X932Y847D01*
X719Y846D02*
X725Y846D01*
X766Y846D02*
X772Y846D01*
X847Y846D02*
X860Y846D01*
X919Y846D02*
X936Y846D01*
X719Y845D02*
X725Y845D01*
X766Y845D02*
X772Y845D01*
X849Y845D02*
X862Y845D01*
X920Y845D02*
X939Y845D01*
X719Y844D02*
X725Y844D01*
X766Y844D02*
X772Y844D01*
X850Y844D02*
X863Y844D01*
X920Y844D02*
X943Y844D01*
X719Y843D02*
X725Y843D01*
X766Y843D02*
X772Y843D01*
X852Y843D02*
X863Y843D01*
X922Y843D02*
X946Y843D01*
X719Y842D02*
X725Y842D01*
X766Y842D02*
X772Y842D01*
X854Y842D02*
X863Y842D01*
X926Y842D02*
X950Y842D01*
X719Y841D02*
X725Y841D01*
X766Y841D02*
X772Y841D01*
X856Y841D02*
X863Y841D01*
X929Y841D02*
X953Y841D01*
X719Y840D02*
X725Y840D01*
X766Y840D02*
X772Y840D01*
X857Y840D02*
X863Y840D01*
X931Y840D02*
X956Y840D01*
X719Y839D02*
X772Y839D01*
X859Y839D02*
X862Y839D01*
X931Y839D02*
X960Y839D01*
X719Y838D02*
X772Y838D01*
X931Y838D02*
X937Y838D01*
X939Y838D02*
X963Y838D01*
X719Y837D02*
X772Y837D01*
X931Y837D02*
X937Y837D01*
X943Y837D02*
X967Y837D01*
X720Y836D02*
X771Y836D01*
X931Y836D02*
X937Y836D01*
X946Y836D02*
X970Y836D01*
X720Y835D02*
X770Y835D01*
X931Y835D02*
X937Y835D01*
X949Y835D02*
X971Y835D01*
X721Y834D02*
X770Y834D01*
X931Y834D02*
X937Y834D01*
X953Y834D02*
X972Y834D01*
X723Y833D02*
X768Y833D01*
X931Y833D02*
X937Y833D01*
X956Y833D02*
X972Y833D01*
X931Y832D02*
X937Y832D01*
X955Y832D02*
X972Y832D01*
X931Y831D02*
X937Y831D01*
X952Y831D02*
X972Y831D01*
X931Y830D02*
X937Y830D01*
X948Y830D02*
X971Y830D01*
X931Y829D02*
X937Y829D01*
X945Y829D02*
X969Y829D01*
X931Y828D02*
X937Y828D01*
X941Y828D02*
X965Y828D01*
X931Y827D02*
X962Y827D01*
X931Y826D02*
X959Y826D01*
X931Y825D02*
X955Y825D01*
X928Y824D02*
X952Y824D01*
X924Y823D02*
X948Y823D01*
X816Y822D02*
X821Y822D01*
X853Y822D02*
X859Y822D01*
X921Y822D02*
X945Y822D01*
X814Y821D02*
X822Y821D01*
X851Y821D02*
X861Y821D01*
X920Y821D02*
X941Y821D01*
X813Y820D02*
X822Y820D01*
X850Y820D02*
X862Y820D01*
X919Y820D02*
X938Y820D01*
X812Y819D02*
X822Y819D01*
X849Y819D02*
X862Y819D01*
X919Y819D02*
X935Y819D01*
X811Y818D02*
X822Y818D01*
X847Y818D02*
X863Y818D01*
X919Y818D02*
X931Y818D01*
X811Y817D02*
X821Y817D01*
X846Y817D02*
X863Y817D01*
X920Y817D02*
X928Y817D01*
X811Y816D02*
X819Y816D01*
X845Y816D02*
X863Y816D01*
X921Y816D02*
X924Y816D01*
X810Y815D02*
X817Y815D01*
X843Y815D02*
X854Y815D01*
X857Y815D02*
X863Y815D01*
X810Y814D02*
X816Y814D01*
X842Y814D02*
X853Y814D01*
X857Y814D02*
X863Y814D01*
X810Y813D02*
X816Y813D01*
X841Y813D02*
X851Y813D01*
X857Y813D02*
X863Y813D01*
X810Y812D02*
X816Y812D01*
X840Y812D02*
X850Y812D01*
X857Y812D02*
X863Y812D01*
X810Y811D02*
X816Y811D01*
X838Y811D02*
X849Y811D01*
X857Y811D02*
X863Y811D01*
X810Y810D02*
X816Y810D01*
X837Y810D02*
X848Y810D01*
X857Y810D02*
X863Y810D01*
X810Y809D02*
X816Y809D01*
X836Y809D02*
X846Y809D01*
X857Y809D02*
X863Y809D01*
X810Y808D02*
X816Y808D01*
X834Y808D02*
X845Y808D01*
X857Y808D02*
X863Y808D01*
X810Y807D02*
X816Y807D01*
X833Y807D02*
X844Y807D01*
X857Y807D02*
X863Y807D01*
X810Y806D02*
X816Y806D01*
X832Y806D02*
X842Y806D01*
X857Y806D02*
X863Y806D01*
X810Y805D02*
X816Y805D01*
X831Y805D02*
X841Y805D01*
X857Y805D02*
X863Y805D01*
X810Y804D02*
X816Y804D01*
X829Y804D02*
X840Y804D01*
X857Y804D02*
X863Y804D01*
X810Y803D02*
X816Y803D01*
X828Y803D02*
X839Y803D01*
X857Y803D02*
X863Y803D01*
X810Y802D02*
X816Y802D01*
X827Y802D02*
X837Y802D01*
X857Y802D02*
X863Y802D01*
X810Y801D02*
X816Y801D01*
X825Y801D02*
X836Y801D01*
X857Y801D02*
X863Y801D01*
X810Y800D02*
X816Y800D01*
X824Y800D02*
X835Y800D01*
X857Y800D02*
X863Y800D01*
X810Y799D02*
X816Y799D01*
X823Y799D02*
X833Y799D01*
X857Y799D02*
X863Y799D01*
X920Y799D02*
X972Y799D01*
X810Y798D02*
X816Y798D01*
X822Y798D02*
X832Y798D01*
X857Y798D02*
X863Y798D01*
X920Y798D02*
X972Y798D01*
X810Y797D02*
X816Y797D01*
X820Y797D02*
X831Y797D01*
X857Y797D02*
X863Y797D01*
X919Y797D02*
X972Y797D01*
X810Y796D02*
X816Y796D01*
X819Y796D02*
X830Y796D01*
X856Y796D02*
X863Y796D01*
X919Y796D02*
X972Y796D01*
X810Y795D02*
X828Y795D01*
X854Y795D02*
X863Y795D01*
X920Y795D02*
X972Y795D01*
X811Y794D02*
X827Y794D01*
X852Y794D02*
X863Y794D01*
X920Y794D02*
X972Y794D01*
X811Y793D02*
X826Y793D01*
X852Y793D02*
X862Y793D01*
X922Y793D02*
X972Y793D01*
X812Y792D02*
X824Y792D01*
X852Y792D02*
X861Y792D01*
X949Y792D02*
X955Y792D01*
X966Y792D02*
X972Y792D01*
X812Y791D02*
X823Y791D01*
X852Y791D02*
X860Y791D01*
X949Y791D02*
X955Y791D01*
X966Y791D02*
X972Y791D01*
X814Y790D02*
X822Y790D01*
X852Y790D02*
X859Y790D01*
X949Y790D02*
X955Y790D01*
X966Y790D02*
X972Y790D01*
X815Y789D02*
X820Y789D01*
X853Y789D02*
X857Y789D01*
X949Y789D02*
X955Y789D01*
X966Y789D02*
X972Y789D01*
X948Y788D02*
X955Y788D01*
X966Y788D02*
X972Y788D01*
X947Y787D02*
X955Y787D01*
X966Y787D02*
X972Y787D01*
X945Y786D02*
X955Y786D01*
X966Y786D02*
X972Y786D01*
X943Y785D02*
X955Y785D01*
X966Y785D02*
X972Y785D01*
X942Y784D02*
X955Y784D01*
X966Y784D02*
X972Y784D01*
X940Y783D02*
X955Y783D01*
X966Y783D02*
X972Y783D01*
X938Y782D02*
X955Y782D01*
X966Y782D02*
X972Y782D01*
X936Y781D02*
X955Y781D01*
X966Y781D02*
X972Y781D01*
X935Y780D02*
X955Y780D01*
X966Y780D02*
X972Y780D01*
X933Y779D02*
X946Y779D01*
X949Y779D02*
X955Y779D01*
X966Y779D02*
X972Y779D01*
X931Y778D02*
X944Y778D01*
X949Y778D02*
X955Y778D01*
X966Y778D02*
X972Y778D01*
X930Y777D02*
X943Y777D01*
X949Y777D02*
X955Y777D01*
X966Y777D02*
X972Y777D01*
X928Y776D02*
X941Y776D01*
X949Y776D02*
X955Y776D01*
X966Y776D02*
X972Y776D01*
X926Y775D02*
X939Y775D01*
X949Y775D02*
X955Y775D01*
X966Y775D02*
X972Y775D01*
X924Y774D02*
X938Y774D01*
X949Y774D02*
X955Y774D01*
X966Y774D02*
X972Y774D01*
X923Y773D02*
X936Y773D01*
X949Y773D02*
X956Y773D01*
X965Y773D02*
X972Y773D01*
X816Y772D02*
X821Y772D01*
X853Y772D02*
X859Y772D01*
X921Y772D02*
X934Y772D01*
X949Y772D02*
X972Y772D01*
X814Y771D02*
X822Y771D01*
X851Y771D02*
X861Y771D01*
X920Y771D02*
X932Y771D01*
X950Y771D02*
X971Y771D01*
X813Y770D02*
X822Y770D01*
X850Y770D02*
X862Y770D01*
X919Y770D02*
X931Y770D01*
X951Y770D02*
X971Y770D01*
X812Y769D02*
X822Y769D01*
X849Y769D02*
X862Y769D01*
X919Y769D02*
X929Y769D01*
X951Y769D02*
X970Y769D01*
X811Y768D02*
X822Y768D01*
X847Y768D02*
X863Y768D01*
X919Y768D02*
X927Y768D01*
X952Y768D02*
X969Y768D01*
X811Y767D02*
X821Y767D01*
X846Y767D02*
X863Y767D01*
X920Y767D02*
X926Y767D01*
X954Y767D02*
X967Y767D01*
X811Y766D02*
X819Y766D01*
X845Y766D02*
X863Y766D01*
X921Y766D02*
X924Y766D01*
X956Y766D02*
X965Y766D01*
X810Y765D02*
X817Y765D01*
X843Y765D02*
X854Y765D01*
X857Y765D02*
X863Y765D01*
X810Y764D02*
X816Y764D01*
X842Y764D02*
X853Y764D01*
X857Y764D02*
X863Y764D01*
X810Y763D02*
X816Y763D01*
X841Y763D02*
X851Y763D01*
X857Y763D02*
X863Y763D01*
X810Y762D02*
X816Y762D01*
X840Y762D02*
X850Y762D01*
X857Y762D02*
X863Y762D01*
X810Y761D02*
X816Y761D01*
X838Y761D02*
X849Y761D01*
X857Y761D02*
X863Y761D01*
X810Y760D02*
X816Y760D01*
X837Y760D02*
X848Y760D01*
X857Y760D02*
X863Y760D01*
X810Y759D02*
X816Y759D01*
X836Y759D02*
X846Y759D01*
X857Y759D02*
X863Y759D01*
X810Y758D02*
X816Y758D01*
X834Y758D02*
X845Y758D01*
X857Y758D02*
X863Y758D01*
X810Y757D02*
X816Y757D01*
X833Y757D02*
X844Y757D01*
X857Y757D02*
X863Y757D01*
X810Y756D02*
X816Y756D01*
X832Y756D02*
X842Y756D01*
X857Y756D02*
X863Y756D01*
X810Y755D02*
X816Y755D01*
X831Y755D02*
X841Y755D01*
X857Y755D02*
X863Y755D01*
X810Y754D02*
X816Y754D01*
X829Y754D02*
X840Y754D01*
X857Y754D02*
X863Y754D01*
X810Y753D02*
X816Y753D01*
X828Y753D02*
X839Y753D01*
X857Y753D02*
X863Y753D01*
X810Y752D02*
X816Y752D01*
X827Y752D02*
X837Y752D01*
X857Y752D02*
X863Y752D01*
X810Y751D02*
X816Y751D01*
X825Y751D02*
X836Y751D01*
X857Y751D02*
X863Y751D01*
X810Y750D02*
X816Y750D01*
X824Y750D02*
X835Y750D01*
X857Y750D02*
X863Y750D01*
X810Y749D02*
X816Y749D01*
X823Y749D02*
X833Y749D01*
X857Y749D02*
X863Y749D01*
X920Y749D02*
X924Y749D01*
X968Y749D02*
X971Y749D01*
X810Y748D02*
X816Y748D01*
X822Y748D02*
X832Y748D01*
X857Y748D02*
X863Y748D01*
X920Y748D02*
X925Y748D01*
X967Y748D02*
X972Y748D01*
X810Y747D02*
X816Y747D01*
X820Y747D02*
X831Y747D01*
X857Y747D02*
X863Y747D01*
X919Y747D02*
X925Y747D01*
X967Y747D02*
X972Y747D01*
X810Y746D02*
X816Y746D01*
X819Y746D02*
X830Y746D01*
X856Y746D02*
X863Y746D01*
X919Y746D02*
X925Y746D01*
X966Y746D02*
X972Y746D01*
X810Y745D02*
X828Y745D01*
X853Y745D02*
X863Y745D01*
X919Y745D02*
X925Y745D01*
X966Y745D02*
X972Y745D01*
X811Y744D02*
X827Y744D01*
X852Y744D02*
X863Y744D01*
X919Y744D02*
X925Y744D01*
X966Y744D02*
X972Y744D01*
X811Y743D02*
X826Y743D01*
X852Y743D02*
X862Y743D01*
X919Y743D02*
X972Y743D01*
X812Y742D02*
X824Y742D01*
X852Y742D02*
X861Y742D01*
X919Y742D02*
X972Y742D01*
X812Y741D02*
X823Y741D01*
X852Y741D02*
X860Y741D01*
X919Y741D02*
X972Y741D01*
X814Y740D02*
X822Y740D01*
X852Y740D02*
X859Y740D01*
X919Y740D02*
X972Y740D01*
X815Y739D02*
X820Y739D01*
X853Y739D02*
X857Y739D01*
X919Y739D02*
X972Y739D01*
X919Y738D02*
X972Y738D01*
X919Y737D02*
X972Y737D01*
X919Y736D02*
X926Y736D01*
X966Y736D02*
X972Y736D01*
X919Y735D02*
X925Y735D01*
X966Y735D02*
X972Y735D01*
X919Y734D02*
X925Y734D01*
X966Y734D02*
X972Y734D01*
X919Y733D02*
X925Y733D01*
X966Y733D02*
X972Y733D01*
X919Y732D02*
X926Y732D01*
X966Y732D02*
X972Y732D01*
X920Y731D02*
X926Y731D01*
X965Y731D02*
X972Y731D01*
X920Y730D02*
X928Y730D01*
X963Y730D02*
X972Y730D01*
X920Y729D02*
X930Y729D01*
X961Y729D02*
X971Y729D01*
X921Y728D02*
X932Y728D01*
X960Y728D02*
X971Y728D01*
X922Y727D02*
X934Y727D01*
X958Y727D02*
X970Y727D01*
X922Y726D02*
X936Y726D01*
X956Y726D02*
X969Y726D01*
X924Y725D02*
X938Y725D01*
X954Y725D02*
X968Y725D01*
X925Y724D02*
X940Y724D01*
X952Y724D02*
X966Y724D01*
X811Y723D02*
X814Y723D01*
X927Y723D02*
X942Y723D01*
X949Y723D02*
X964Y723D01*
X810Y722D02*
X816Y722D01*
X859Y722D02*
X862Y722D01*
X929Y722D02*
X962Y722D01*
X810Y721D02*
X817Y721D01*
X858Y721D02*
X863Y721D01*
X931Y721D02*
X960Y721D01*
X810Y720D02*
X819Y720D01*
X858Y720D02*
X863Y720D01*
X933Y720D02*
X958Y720D01*
X810Y719D02*
X821Y719D01*
X857Y719D02*
X863Y719D01*
X935Y719D02*
X956Y719D01*
X810Y718D02*
X822Y718D01*
X857Y718D02*
X863Y718D01*
X937Y718D02*
X954Y718D01*
X810Y717D02*
X824Y717D01*
X857Y717D02*
X863Y717D01*
X939Y717D02*
X952Y717D01*
X810Y716D02*
X826Y716D01*
X857Y716D02*
X863Y716D01*
X942Y716D02*
X949Y716D01*
X810Y715D02*
X828Y715D01*
X857Y715D02*
X863Y715D01*
X810Y714D02*
X829Y714D01*
X857Y714D02*
X863Y714D01*
X810Y713D02*
X831Y713D01*
X857Y713D02*
X863Y713D01*
X810Y712D02*
X816Y712D01*
X820Y712D02*
X833Y712D01*
X857Y712D02*
X863Y712D01*
X810Y711D02*
X816Y711D01*
X821Y711D02*
X834Y711D01*
X857Y711D02*
X863Y711D01*
X810Y710D02*
X816Y710D01*
X823Y710D02*
X836Y710D01*
X857Y710D02*
X863Y710D01*
X810Y709D02*
X816Y709D01*
X825Y709D02*
X838Y709D01*
X857Y709D02*
X863Y709D01*
X810Y708D02*
X816Y708D01*
X827Y708D02*
X839Y708D01*
X857Y708D02*
X863Y708D01*
X810Y707D02*
X816Y707D01*
X828Y707D02*
X841Y707D01*
X857Y707D02*
X863Y707D01*
X810Y706D02*
X816Y706D01*
X830Y706D02*
X843Y706D01*
X857Y706D02*
X863Y706D01*
X810Y705D02*
X816Y705D01*
X832Y705D02*
X845Y705D01*
X857Y705D02*
X863Y705D01*
X810Y704D02*
X816Y704D01*
X833Y704D02*
X846Y704D01*
X857Y704D02*
X863Y704D01*
X810Y703D02*
X816Y703D01*
X835Y703D02*
X848Y703D01*
X857Y703D02*
X863Y703D01*
X810Y702D02*
X816Y702D01*
X837Y702D02*
X850Y702D01*
X857Y702D02*
X863Y702D01*
X810Y701D02*
X816Y701D01*
X839Y701D02*
X851Y701D01*
X857Y701D02*
X863Y701D01*
X810Y700D02*
X816Y700D01*
X840Y700D02*
X853Y700D01*
X857Y700D02*
X863Y700D01*
X810Y699D02*
X816Y699D01*
X842Y699D02*
X855Y699D01*
X857Y699D02*
X863Y699D01*
X810Y698D02*
X816Y698D01*
X844Y698D02*
X863Y698D01*
X810Y697D02*
X816Y697D01*
X845Y697D02*
X863Y697D01*
X810Y696D02*
X816Y696D01*
X847Y696D02*
X863Y696D01*
X810Y695D02*
X816Y695D01*
X849Y695D02*
X863Y695D01*
X810Y694D02*
X816Y694D01*
X850Y694D02*
X863Y694D01*
X810Y693D02*
X816Y693D01*
X852Y693D02*
X863Y693D01*
X810Y692D02*
X816Y692D01*
X854Y692D02*
X863Y692D01*
X810Y691D02*
X816Y691D01*
X856Y691D02*
X863Y691D01*
X811Y690D02*
X816Y690D01*
X857Y690D02*
X863Y690D01*
X812Y689D02*
X815Y689D01*
X859Y689D02*
X863Y689D01*
X821Y662D02*
X830Y662D01*
X820Y661D02*
X830Y661D01*
X819Y660D02*
X831Y660D01*
X819Y659D02*
X831Y659D01*
X819Y658D02*
X831Y658D01*
X819Y657D02*
X831Y657D01*
X819Y656D02*
X831Y656D01*
X819Y655D02*
X831Y655D01*
X819Y654D02*
X831Y654D01*
X819Y653D02*
X831Y653D01*
X819Y652D02*
X831Y652D01*
X819Y651D02*
X831Y651D01*
X820Y650D02*
X830Y650D01*
X822Y649D02*
X829Y649D01*
X925Y649D02*
X930Y649D01*
X962Y649D02*
X968Y649D01*
X923Y648D02*
X931Y648D01*
X960Y648D02*
X970Y648D01*
X922Y647D02*
X931Y647D01*
X959Y647D02*
X971Y647D01*
X921Y646D02*
X931Y646D01*
X958Y646D02*
X971Y646D01*
X920Y645D02*
X931Y645D01*
X956Y645D02*
X972Y645D01*
X920Y644D02*
X930Y644D01*
X955Y644D02*
X972Y644D01*
X920Y643D02*
X928Y643D01*
X954Y643D02*
X972Y643D01*
X919Y642D02*
X926Y642D01*
X952Y642D02*
X963Y642D01*
X966Y642D02*
X972Y642D01*
X919Y641D02*
X925Y641D01*
X951Y641D02*
X962Y641D01*
X966Y641D02*
X972Y641D01*
X919Y640D02*
X925Y640D01*
X950Y640D02*
X960Y640D01*
X966Y640D02*
X972Y640D01*
X919Y639D02*
X925Y639D01*
X949Y639D02*
X959Y639D01*
X966Y639D02*
X972Y639D01*
X919Y638D02*
X925Y638D01*
X947Y638D02*
X958Y638D01*
X966Y638D02*
X972Y638D01*
X919Y637D02*
X925Y637D01*
X946Y637D02*
X957Y637D01*
X966Y637D02*
X972Y637D01*
X919Y636D02*
X925Y636D01*
X945Y636D02*
X955Y636D01*
X966Y636D02*
X972Y636D01*
X919Y635D02*
X925Y635D01*
X943Y635D02*
X954Y635D01*
X966Y635D02*
X972Y635D01*
X919Y634D02*
X925Y634D01*
X942Y634D02*
X953Y634D01*
X966Y634D02*
X972Y634D01*
X919Y633D02*
X925Y633D01*
X941Y633D02*
X951Y633D01*
X966Y633D02*
X972Y633D01*
X919Y632D02*
X925Y632D01*
X940Y632D02*
X950Y632D01*
X966Y632D02*
X972Y632D01*
X919Y631D02*
X925Y631D01*
X938Y631D02*
X949Y631D01*
X966Y631D02*
X972Y631D01*
X919Y630D02*
X925Y630D01*
X937Y630D02*
X948Y630D01*
X966Y630D02*
X972Y630D01*
X919Y629D02*
X925Y629D01*
X936Y629D02*
X946Y629D01*
X966Y629D02*
X972Y629D01*
X919Y628D02*
X925Y628D01*
X934Y628D02*
X945Y628D01*
X966Y628D02*
X972Y628D01*
X919Y627D02*
X925Y627D01*
X933Y627D02*
X944Y627D01*
X966Y627D02*
X972Y627D01*
X919Y626D02*
X925Y626D01*
X932Y626D02*
X942Y626D01*
X966Y626D02*
X972Y626D01*
X919Y625D02*
X925Y625D01*
X930Y625D02*
X941Y625D01*
X966Y625D02*
X972Y625D01*
X919Y624D02*
X925Y624D01*
X929Y624D02*
X940Y624D01*
X966Y624D02*
X972Y624D01*
X837Y623D02*
X837Y623D01*
X919Y623D02*
X925Y623D01*
X928Y623D02*
X939Y623D01*
X965Y623D02*
X972Y623D01*
X832Y622D02*
X842Y622D01*
X919Y622D02*
X937Y622D01*
X962Y622D02*
X972Y622D01*
X829Y621D02*
X844Y621D01*
X920Y621D02*
X936Y621D01*
X961Y621D02*
X972Y621D01*
X827Y620D02*
X846Y620D01*
X920Y620D02*
X935Y620D01*
X961Y620D02*
X971Y620D01*
X826Y619D02*
X848Y619D01*
X921Y619D02*
X933Y619D01*
X961Y619D02*
X970Y619D01*
X824Y618D02*
X850Y618D01*
X921Y618D02*
X932Y618D01*
X961Y618D02*
X969Y618D01*
X822Y617D02*
X852Y617D01*
X923Y617D02*
X931Y617D01*
X961Y617D02*
X968Y617D01*
X820Y616D02*
X854Y616D01*
X924Y616D02*
X929Y616D01*
X962Y616D02*
X966Y616D01*
X818Y615D02*
X832Y615D01*
X842Y615D02*
X856Y615D01*
X816Y614D02*
X830Y614D01*
X844Y614D02*
X858Y614D01*
X814Y613D02*
X828Y613D01*
X846Y613D02*
X860Y613D01*
X813Y612D02*
X826Y612D01*
X848Y612D02*
X861Y612D01*
X812Y611D02*
X824Y611D01*
X850Y611D02*
X862Y611D01*
X812Y610D02*
X822Y610D01*
X851Y610D02*
X862Y610D01*
X811Y609D02*
X820Y609D01*
X853Y609D02*
X863Y609D01*
X811Y608D02*
X818Y608D01*
X855Y608D02*
X863Y608D01*
X811Y607D02*
X817Y607D01*
X857Y607D02*
X863Y607D01*
X810Y606D02*
X816Y606D01*
X857Y606D02*
X863Y606D01*
X810Y605D02*
X816Y605D01*
X857Y605D02*
X863Y605D01*
X810Y604D02*
X816Y604D01*
X857Y604D02*
X863Y604D01*
X810Y603D02*
X816Y603D01*
X857Y603D02*
X863Y603D01*
X810Y602D02*
X816Y602D01*
X857Y602D02*
X863Y602D01*
X810Y601D02*
X816Y601D01*
X857Y601D02*
X863Y601D01*
X810Y600D02*
X816Y600D01*
X857Y600D02*
X863Y600D01*
X963Y600D02*
X969Y600D01*
X810Y599D02*
X816Y599D01*
X857Y599D02*
X863Y599D01*
X962Y599D02*
X971Y599D01*
X810Y598D02*
X816Y598D01*
X857Y598D02*
X863Y598D01*
X960Y598D02*
X972Y598D01*
X810Y597D02*
X816Y597D01*
X857Y597D02*
X863Y597D01*
X959Y597D02*
X972Y597D01*
X810Y596D02*
X816Y596D01*
X857Y596D02*
X863Y596D01*
X958Y596D02*
X972Y596D01*
X810Y595D02*
X816Y595D01*
X857Y595D02*
X863Y595D01*
X956Y595D02*
X972Y595D01*
X810Y594D02*
X816Y594D01*
X857Y594D02*
X863Y594D01*
X955Y594D02*
X971Y594D01*
X810Y593D02*
X816Y593D01*
X857Y593D02*
X863Y593D01*
X954Y593D02*
X969Y593D01*
X810Y592D02*
X816Y592D01*
X857Y592D02*
X863Y592D01*
X953Y592D02*
X963Y592D01*
X810Y591D02*
X816Y591D01*
X858Y591D02*
X863Y591D01*
X951Y591D02*
X962Y591D01*
X811Y590D02*
X816Y590D01*
X858Y590D02*
X863Y590D01*
X950Y590D02*
X960Y590D01*
X812Y589D02*
X815Y589D01*
X859Y589D02*
X862Y589D01*
X949Y589D02*
X959Y589D01*
X947Y588D02*
X958Y588D01*
X946Y587D02*
X957Y587D01*
X922Y586D02*
X955Y586D01*
X920Y585D02*
X954Y585D01*
X920Y584D02*
X953Y584D01*
X919Y583D02*
X951Y583D01*
X919Y582D02*
X952Y582D01*
X920Y581D02*
X953Y581D01*
X921Y580D02*
X955Y580D01*
X945Y579D02*
X956Y579D01*
X947Y578D02*
X957Y578D01*
X948Y577D02*
X958Y577D01*
X949Y576D02*
X960Y576D01*
X951Y575D02*
X961Y575D01*
X952Y574D02*
X962Y574D01*
X813Y573D02*
X814Y573D01*
X953Y573D02*
X964Y573D01*
X811Y572D02*
X817Y572D01*
X954Y572D02*
X971Y572D01*
X811Y571D02*
X821Y571D01*
X956Y571D02*
X972Y571D01*
X810Y570D02*
X824Y570D01*
X957Y570D02*
X972Y570D01*
X810Y569D02*
X827Y569D01*
X958Y569D02*
X972Y569D01*
X811Y568D02*
X831Y568D01*
X960Y568D02*
X972Y568D01*
X812Y567D02*
X834Y567D01*
X961Y567D02*
X972Y567D01*
X814Y566D02*
X838Y566D01*
X962Y566D02*
X971Y566D01*
X817Y565D02*
X841Y565D01*
X820Y564D02*
X844Y564D01*
X822Y563D02*
X848Y563D01*
X822Y562D02*
X851Y562D01*
X822Y561D02*
X828Y561D01*
X831Y561D02*
X855Y561D01*
X822Y560D02*
X828Y560D01*
X834Y560D02*
X858Y560D01*
X822Y559D02*
X828Y559D01*
X838Y559D02*
X861Y559D01*
X822Y558D02*
X828Y558D01*
X841Y558D02*
X863Y558D01*
X822Y557D02*
X828Y557D01*
X844Y557D02*
X863Y557D01*
X822Y556D02*
X828Y556D01*
X848Y556D02*
X863Y556D01*
X822Y555D02*
X828Y555D01*
X846Y555D02*
X863Y555D01*
X822Y554D02*
X828Y554D01*
X842Y554D02*
X863Y554D01*
X822Y553D02*
X828Y553D01*
X839Y553D02*
X862Y553D01*
X822Y552D02*
X828Y552D01*
X835Y552D02*
X859Y552D01*
X822Y551D02*
X828Y551D01*
X832Y551D02*
X856Y551D01*
X822Y550D02*
X853Y550D01*
X822Y549D02*
X849Y549D01*
X924Y549D02*
X930Y549D01*
X962Y549D02*
X968Y549D01*
X822Y548D02*
X846Y548D01*
X923Y548D02*
X931Y548D01*
X960Y548D02*
X970Y548D01*
X818Y547D02*
X842Y547D01*
X922Y547D02*
X931Y547D01*
X959Y547D02*
X971Y547D01*
X815Y546D02*
X839Y546D01*
X921Y546D02*
X931Y546D01*
X958Y546D02*
X971Y546D01*
X812Y545D02*
X835Y545D01*
X920Y545D02*
X931Y545D01*
X956Y545D02*
X972Y545D01*
X811Y544D02*
X832Y544D01*
X920Y544D02*
X930Y544D01*
X955Y544D02*
X972Y544D01*
X810Y543D02*
X829Y543D01*
X920Y543D02*
X928Y543D01*
X954Y543D02*
X972Y543D01*
X810Y542D02*
X825Y542D01*
X919Y542D02*
X926Y542D01*
X952Y542D02*
X963Y542D01*
X966Y542D02*
X972Y542D01*
X810Y541D02*
X822Y541D01*
X919Y541D02*
X925Y541D01*
X951Y541D02*
X962Y541D01*
X966Y541D02*
X972Y541D01*
X811Y540D02*
X818Y540D01*
X919Y540D02*
X925Y540D01*
X950Y540D02*
X960Y540D01*
X966Y540D02*
X972Y540D01*
X812Y539D02*
X815Y539D01*
X919Y539D02*
X925Y539D01*
X948Y539D02*
X959Y539D01*
X966Y539D02*
X972Y539D01*
X919Y538D02*
X925Y538D01*
X947Y538D02*
X958Y538D01*
X966Y538D02*
X972Y538D01*
X919Y537D02*
X925Y537D01*
X946Y537D02*
X957Y537D01*
X966Y537D02*
X972Y537D01*
X919Y536D02*
X925Y536D01*
X945Y536D02*
X955Y536D01*
X966Y536D02*
X972Y536D01*
X919Y535D02*
X925Y535D01*
X943Y535D02*
X954Y535D01*
X966Y535D02*
X972Y535D01*
X919Y534D02*
X925Y534D01*
X942Y534D02*
X953Y534D01*
X966Y534D02*
X972Y534D01*
X919Y533D02*
X925Y533D01*
X941Y533D02*
X951Y533D01*
X966Y533D02*
X972Y533D01*
X919Y532D02*
X925Y532D01*
X939Y532D02*
X950Y532D01*
X966Y532D02*
X972Y532D01*
X919Y531D02*
X925Y531D01*
X938Y531D02*
X949Y531D01*
X966Y531D02*
X972Y531D01*
X919Y530D02*
X925Y530D01*
X937Y530D02*
X948Y530D01*
X966Y530D02*
X972Y530D01*
X919Y529D02*
X925Y529D01*
X936Y529D02*
X946Y529D01*
X966Y529D02*
X972Y529D01*
X919Y528D02*
X925Y528D01*
X934Y528D02*
X945Y528D01*
X966Y528D02*
X972Y528D01*
X919Y527D02*
X925Y527D01*
X933Y527D02*
X944Y527D01*
X966Y527D02*
X972Y527D01*
X919Y526D02*
X925Y526D01*
X932Y526D02*
X942Y526D01*
X966Y526D02*
X972Y526D01*
X919Y525D02*
X925Y525D01*
X930Y525D02*
X941Y525D01*
X966Y525D02*
X972Y525D01*
X919Y524D02*
X925Y524D01*
X929Y524D02*
X940Y524D01*
X966Y524D02*
X972Y524D01*
X919Y523D02*
X925Y523D01*
X928Y523D02*
X939Y523D01*
X965Y523D02*
X972Y523D01*
X919Y522D02*
X937Y522D01*
X962Y522D02*
X972Y522D01*
X920Y521D02*
X936Y521D01*
X961Y521D02*
X972Y521D01*
X920Y520D02*
X935Y520D01*
X961Y520D02*
X971Y520D01*
X921Y519D02*
X933Y519D01*
X961Y519D02*
X970Y519D01*
X921Y518D02*
X932Y518D01*
X961Y518D02*
X969Y518D01*
X923Y517D02*
X931Y517D01*
X961Y517D02*
X968Y517D01*
X924Y516D02*
X929Y516D01*
X962Y516D02*
X966Y516D01*
X964Y500D02*
X972Y500D01*
X962Y499D02*
X972Y499D01*
X961Y498D02*
X972Y498D01*
X961Y497D02*
X972Y497D01*
X961Y496D02*
X972Y496D01*
X961Y495D02*
X972Y495D01*
X962Y494D02*
X972Y494D01*
X966Y493D02*
X972Y493D01*
X966Y492D02*
X972Y492D01*
X966Y491D02*
X972Y491D01*
X966Y490D02*
X972Y490D01*
X966Y489D02*
X972Y489D01*
X966Y488D02*
X972Y488D01*
X966Y487D02*
X972Y487D01*
X922Y486D02*
X972Y486D01*
X920Y485D02*
X972Y485D01*
X920Y484D02*
X972Y484D01*
X919Y483D02*
X972Y483D01*
X919Y482D02*
X972Y482D01*
X920Y481D02*
X972Y481D01*
X921Y480D02*
X972Y480D01*
X966Y479D02*
X972Y479D01*
X966Y478D02*
X972Y478D01*
X966Y477D02*
X972Y477D01*
X966Y476D02*
X972Y476D01*
X966Y475D02*
X972Y475D01*
X966Y474D02*
X972Y474D01*
X966Y473D02*
X972Y473D01*
X962Y472D02*
X972Y472D01*
X961Y471D02*
X972Y471D01*
X961Y470D02*
X972Y470D01*
X961Y469D02*
X972Y469D01*
X961Y468D02*
X972Y468D01*
X961Y467D02*
X972Y467D01*
X962Y466D02*
X972Y466D01*
X920Y450D02*
X972Y450D01*
X919Y449D02*
X972Y449D01*
X919Y448D02*
X972Y448D01*
X919Y447D02*
X972Y447D01*
X919Y446D02*
X972Y446D01*
X919Y445D02*
X972Y445D01*
X919Y444D02*
X972Y444D01*
X919Y443D02*
X926Y443D01*
X942Y443D02*
X949Y443D01*
X966Y443D02*
X972Y443D01*
X919Y442D02*
X925Y442D01*
X943Y442D02*
X949Y442D01*
X966Y442D02*
X972Y442D01*
X919Y441D02*
X925Y441D01*
X943Y441D02*
X949Y441D01*
X966Y441D02*
X972Y441D01*
X919Y440D02*
X925Y440D01*
X943Y440D02*
X949Y440D01*
X966Y440D02*
X972Y440D01*
X919Y439D02*
X925Y439D01*
X943Y439D02*
X949Y439D01*
X966Y439D02*
X972Y439D01*
X919Y438D02*
X925Y438D01*
X943Y438D02*
X949Y438D01*
X966Y438D02*
X972Y438D01*
X919Y437D02*
X925Y437D01*
X943Y437D02*
X949Y437D01*
X966Y437D02*
X972Y437D01*
X919Y436D02*
X925Y436D01*
X943Y436D02*
X949Y436D01*
X966Y436D02*
X972Y436D01*
X919Y435D02*
X925Y435D01*
X943Y435D02*
X949Y435D01*
X966Y435D02*
X972Y435D01*
X919Y434D02*
X925Y434D01*
X943Y434D02*
X949Y434D01*
X966Y434D02*
X972Y434D01*
X919Y433D02*
X925Y433D01*
X943Y433D02*
X949Y433D01*
X966Y433D02*
X972Y433D01*
X919Y432D02*
X925Y432D01*
X943Y432D02*
X949Y432D01*
X966Y432D02*
X972Y432D01*
X919Y431D02*
X925Y431D01*
X943Y431D02*
X948Y431D01*
X966Y431D02*
X972Y431D01*
X919Y430D02*
X925Y430D01*
X944Y430D02*
X947Y430D01*
X966Y430D02*
X972Y430D01*
X919Y429D02*
X925Y429D01*
X966Y429D02*
X972Y429D01*
X919Y428D02*
X925Y428D01*
X966Y428D02*
X972Y428D01*
X919Y427D02*
X925Y427D01*
X966Y427D02*
X972Y427D01*
X919Y426D02*
X925Y426D01*
X966Y426D02*
X972Y426D01*
X919Y425D02*
X925Y425D01*
X966Y425D02*
X972Y425D01*
X919Y424D02*
X925Y424D01*
X966Y424D02*
X972Y424D01*
X919Y423D02*
X925Y423D01*
X966Y423D02*
X972Y423D01*
X919Y422D02*
X925Y422D01*
X966Y422D02*
X972Y422D01*
X919Y421D02*
X925Y421D01*
X966Y421D02*
X972Y421D01*
X919Y420D02*
X925Y420D01*
X966Y420D02*
X972Y420D01*
X919Y419D02*
X925Y419D01*
X966Y419D02*
X972Y419D01*
X919Y418D02*
X925Y418D01*
X967Y418D02*
X972Y418D01*
X920Y417D02*
X925Y417D01*
X967Y417D02*
X972Y417D01*
X921Y416D02*
X923Y416D01*
X968Y416D02*
X971Y416D01*
X922Y400D02*
X972Y400D01*
X920Y399D02*
X972Y399D01*
X920Y398D02*
X972Y398D01*
X919Y397D02*
X972Y397D01*
X919Y396D02*
X972Y396D01*
X920Y395D02*
X972Y395D01*
X921Y394D02*
X972Y394D01*
X963Y393D02*
X972Y393D01*
X962Y392D02*
X972Y392D01*
X961Y391D02*
X972Y391D01*
X959Y390D02*
X971Y390D01*
X958Y389D02*
X969Y389D01*
X956Y388D02*
X968Y388D01*
X955Y387D02*
X966Y387D01*
X951Y386D02*
X965Y386D01*
X950Y385D02*
X963Y385D01*
X949Y384D02*
X962Y384D01*
X949Y383D02*
X961Y383D01*
X949Y382D02*
X961Y382D01*
X949Y381D02*
X963Y381D01*
X950Y380D02*
X964Y380D01*
X954Y379D02*
X966Y379D01*
X956Y378D02*
X967Y378D01*
X957Y377D02*
X969Y377D01*
X959Y376D02*
X970Y376D01*
X960Y375D02*
X971Y375D01*
X962Y374D02*
X972Y374D01*
X963Y373D02*
X972Y373D01*
X921Y372D02*
X972Y372D01*
X920Y371D02*
X972Y371D01*
X919Y370D02*
X972Y370D01*
X919Y369D02*
X972Y369D01*
X919Y368D02*
X972Y368D01*
X920Y367D02*
X972Y367D01*
X921Y366D02*
X972Y366D01*
D02*
G04 End of Silk1*
M02*