G04 MADE WITH FRITZING*
G04 WWW.FRITZING.ORG*
G04 DOUBLE SIDED*
G04 HOLES PLATED*
G04 CONTOUR ON CENTER OF CONTOUR VECTOR*
%ASAXBY*%
%FSLAX23Y23*%
%MOIN*%
%OFA0B0*%
%SFA1.0B1.0*%
%ADD10C,0.064000*%
%ADD11C,0.070000*%
%ADD12C,0.078000*%
%ADD13R,0.064000X0.064000*%
%ADD14R,0.069958X0.070000*%
%ADD15R,0.077944X0.077986*%
%ADD16C,0.024000*%
%LNCOPPER0*%
G90*
G70*
G54D10*
X1291Y1153D03*
X1291Y1053D03*
X1291Y953D03*
X1291Y853D03*
X1291Y753D03*
X1291Y653D03*
X1291Y553D03*
X1291Y453D03*
G54D11*
X1091Y153D03*
X1091Y253D03*
X1091Y353D03*
X1091Y453D03*
X1091Y553D03*
X1091Y653D03*
X1091Y753D03*
X1091Y853D03*
X1091Y953D03*
X1091Y1053D03*
X1091Y1153D03*
X1091Y1253D03*
X1091Y1353D03*
X1091Y1453D03*
X1091Y1553D03*
X491Y153D03*
X491Y253D03*
X491Y353D03*
X491Y453D03*
X491Y553D03*
X491Y653D03*
X491Y753D03*
X491Y853D03*
X491Y953D03*
X491Y1053D03*
X491Y1153D03*
X491Y1253D03*
X491Y1353D03*
X491Y1453D03*
X491Y1553D03*
X891Y57D03*
X891Y157D03*
X790Y57D03*
X790Y157D03*
X690Y57D03*
X690Y157D03*
G54D12*
X291Y953D03*
X291Y853D03*
X291Y752D03*
X291Y652D03*
G54D13*
X1291Y1153D03*
G54D14*
X1091Y153D03*
G54D15*
X291Y953D03*
G54D16*
X90Y853D02*
X272Y853D01*
D02*
X90Y253D02*
X90Y853D01*
D02*
X473Y253D02*
X90Y253D01*
D02*
X473Y753D02*
X310Y752D01*
D02*
X1590Y1553D02*
X1590Y854D01*
D02*
X1590Y854D02*
X1311Y853D01*
D02*
X1109Y1553D02*
X1590Y1553D01*
D02*
X1491Y1452D02*
X1491Y953D01*
D02*
X1491Y953D02*
X1311Y953D01*
D02*
X1109Y1453D02*
X1491Y1452D01*
D02*
X1277Y638D02*
X1103Y465D01*
G04 End of Copper0*
M02*