; NON-PLATED HOLES START AT T1
; THROUGH (PLATED) HOLES START AT T100
M48
INCH
T100C0.036000
T101C0.038000
T102C0.040000
%
T100
X004907Y005525
X010907Y005525
X010907Y012525
X004907Y008525
X004907Y009525
X007904Y001569
X004907Y011525
X007904Y000569
X004907Y006525
X010907Y009525
X004907Y004525
X010907Y013525
X010907Y006525
X010907Y008525
X010907Y001525
X004907Y013525
X004907Y003525
X006902Y001569
X010907Y007525
X010907Y011525
X004907Y015525
X004907Y012525
X010907Y010525
X010907Y014525
X010907Y015525
X010907Y002525
X004907Y002525
X010907Y003525
X004907Y014525
X010907Y004525
X006902Y000569
X008905Y000569
X008905Y001569
X004907Y010525
X004907Y001525
X004907Y007525
T101
X002907Y006524
X002907Y009525
X002907Y007524
X002907Y008525
T102
X012907Y007525
X012907Y011525
X012907Y004525
X012907Y005525
X012907Y009525
X012907Y006525
X012907Y010525
X012907Y008525
T00
M30
