; NON-PLATED HOLES START AT T1
; THROUGH (PLATED) HOLES START AT T100
M48
INCH
T100C0.036000
T101C0.040000
T102C0.038000
%
T100
X010069Y001528
X007066Y000572
X004069Y011528
X004069Y015528
X010069Y002528
X010069Y009528
X008066Y001572
X004069Y007528
X004069Y003528
X004069Y010528
X004069Y005528
X004069Y001528
X004069Y009528
X010069Y004528
X010069Y013528
X004069Y012528
X010069Y010528
X004069Y006528
X007066Y001572
X010069Y006528
X008066Y000572
X010069Y014528
X006064Y001572
X010069Y015528
X004069Y014528
X010069Y008528
X004069Y002528
X006064Y000572
X004069Y004528
X004069Y008528
X010069Y003528
X010069Y012528
X010069Y005528
X004069Y013528
X010069Y011528
X010069Y007528
T101
X012224Y007114
X012224Y006114
X012224Y005114
X012224Y012114
X012224Y008114
X012224Y010114
X012224Y011114
X012224Y009114
T102
X002198Y006517
X002198Y008518
X002198Y007517
X002198Y009518
T00
M30
