G04 MADE WITH FRITZING*
G04 WWW.FRITZING.ORG*
G04 DOUBLE SIDED*
G04 HOLES PLATED*
G04 CONTOUR ON CENTER OF CONTOUR VECTOR*
%ASAXBY*%
%FSLAX23Y23*%
%MOIN*%
%OFA0B0*%
%SFA1.0B1.0*%
%ADD10R,0.001000X0.001000*%
%LNSILK0*%
G90*
G70*
G54D10*
X372Y1653D02*
X1282Y1653D01*
X358Y1652D02*
X1296Y1652D01*
X348Y1651D02*
X1306Y1651D01*
X339Y1650D02*
X1315Y1650D01*
X332Y1649D02*
X1322Y1649D01*
X326Y1648D02*
X1328Y1648D01*
X321Y1647D02*
X1333Y1647D01*
X315Y1646D02*
X1339Y1646D01*
X310Y1645D02*
X371Y1645D01*
X1283Y1645D02*
X1344Y1645D01*
X306Y1644D02*
X357Y1644D01*
X1297Y1644D02*
X1348Y1644D01*
X302Y1643D02*
X347Y1643D01*
X1307Y1643D02*
X1352Y1643D01*
X297Y1642D02*
X339Y1642D01*
X1315Y1642D02*
X1357Y1642D01*
X293Y1641D02*
X332Y1641D01*
X1322Y1641D02*
X1361Y1641D01*
X290Y1640D02*
X326Y1640D01*
X1328Y1640D02*
X1364Y1640D01*
X286Y1639D02*
X320Y1639D01*
X1334Y1639D02*
X1368Y1639D01*
X283Y1638D02*
X315Y1638D01*
X1339Y1638D02*
X1371Y1638D01*
X279Y1637D02*
X310Y1637D01*
X1344Y1637D02*
X1375Y1637D01*
X276Y1636D02*
X305Y1636D01*
X1349Y1636D02*
X1378Y1636D01*
X273Y1635D02*
X301Y1635D01*
X1353Y1635D02*
X1381Y1635D01*
X270Y1634D02*
X297Y1634D01*
X1357Y1634D02*
X1384Y1634D01*
X267Y1633D02*
X293Y1633D01*
X1361Y1633D02*
X1387Y1633D01*
X264Y1632D02*
X289Y1632D01*
X1365Y1632D02*
X1390Y1632D01*
X261Y1631D02*
X286Y1631D01*
X1368Y1631D02*
X1393Y1631D01*
X258Y1630D02*
X282Y1630D01*
X1372Y1630D02*
X1396Y1630D01*
X255Y1629D02*
X279Y1629D01*
X1375Y1629D02*
X1399Y1629D01*
X253Y1628D02*
X276Y1628D01*
X1378Y1628D02*
X1401Y1628D01*
X250Y1627D02*
X273Y1627D01*
X1381Y1627D02*
X1404Y1627D01*
X248Y1626D02*
X270Y1626D01*
X1384Y1626D02*
X1406Y1626D01*
X245Y1625D02*
X267Y1625D01*
X1387Y1625D02*
X1409Y1625D01*
X243Y1624D02*
X264Y1624D01*
X1390Y1624D02*
X1411Y1624D01*
X240Y1623D02*
X261Y1623D01*
X1393Y1623D02*
X1414Y1623D01*
X238Y1622D02*
X258Y1622D01*
X1396Y1622D02*
X1416Y1622D01*
X236Y1621D02*
X256Y1621D01*
X1398Y1621D02*
X1418Y1621D01*
X233Y1620D02*
X253Y1620D01*
X1401Y1620D02*
X1420Y1620D01*
X231Y1619D02*
X250Y1619D01*
X1404Y1619D02*
X1423Y1619D01*
X229Y1618D02*
X248Y1618D01*
X1406Y1618D02*
X1425Y1618D01*
X227Y1617D02*
X245Y1617D01*
X1409Y1617D02*
X1427Y1617D01*
X225Y1616D02*
X243Y1616D01*
X1411Y1616D02*
X1429Y1616D01*
X222Y1615D02*
X241Y1615D01*
X1413Y1615D02*
X1432Y1615D01*
X220Y1614D02*
X238Y1614D01*
X1416Y1614D02*
X1434Y1614D01*
X219Y1613D02*
X236Y1613D01*
X1418Y1613D02*
X1435Y1613D01*
X217Y1612D02*
X234Y1612D01*
X1420Y1612D02*
X1437Y1612D01*
X215Y1611D02*
X232Y1611D01*
X1422Y1611D02*
X1439Y1611D01*
X213Y1610D02*
X229Y1610D01*
X1425Y1610D02*
X1441Y1610D01*
X211Y1609D02*
X227Y1609D01*
X1427Y1609D02*
X1443Y1609D01*
X209Y1608D02*
X225Y1608D01*
X1429Y1608D02*
X1445Y1608D01*
X207Y1607D02*
X223Y1607D01*
X1431Y1607D02*
X1447Y1607D01*
X205Y1606D02*
X221Y1606D01*
X1433Y1606D02*
X1449Y1606D01*
X203Y1605D02*
X219Y1605D01*
X1435Y1605D02*
X1451Y1605D01*
X201Y1604D02*
X217Y1604D01*
X1437Y1604D02*
X1453Y1604D01*
X200Y1603D02*
X215Y1603D01*
X1439Y1603D02*
X1454Y1603D01*
X198Y1602D02*
X213Y1602D01*
X1441Y1602D02*
X1456Y1602D01*
X196Y1601D02*
X211Y1601D01*
X1443Y1601D02*
X1458Y1601D01*
X194Y1600D02*
X209Y1600D01*
X1445Y1600D02*
X1460Y1600D01*
X193Y1599D02*
X208Y1599D01*
X1446Y1599D02*
X1461Y1599D01*
X191Y1598D02*
X206Y1598D01*
X1448Y1598D02*
X1463Y1598D01*
X189Y1597D02*
X204Y1597D01*
X1450Y1597D02*
X1465Y1597D01*
X188Y1596D02*
X202Y1596D01*
X1452Y1596D02*
X1466Y1596D01*
X186Y1595D02*
X201Y1595D01*
X1453Y1595D02*
X1468Y1595D01*
X185Y1594D02*
X199Y1594D01*
X1455Y1594D02*
X1469Y1594D01*
X183Y1593D02*
X197Y1593D01*
X1457Y1593D02*
X1471Y1593D01*
X181Y1592D02*
X195Y1592D01*
X1459Y1592D02*
X1473Y1592D01*
X180Y1591D02*
X194Y1591D01*
X1460Y1591D02*
X1474Y1591D01*
X178Y1590D02*
X192Y1590D01*
X1462Y1590D02*
X1476Y1590D01*
X177Y1589D02*
X190Y1589D01*
X1464Y1589D02*
X1477Y1589D01*
X175Y1588D02*
X189Y1588D01*
X1465Y1588D02*
X1479Y1588D01*
X174Y1587D02*
X187Y1587D01*
X1467Y1587D02*
X1480Y1587D01*
X172Y1586D02*
X186Y1586D01*
X1468Y1586D02*
X1482Y1586D01*
X171Y1585D02*
X184Y1585D01*
X1470Y1585D02*
X1483Y1585D01*
X169Y1584D02*
X183Y1584D01*
X1471Y1584D02*
X1485Y1584D01*
X168Y1583D02*
X181Y1583D01*
X1473Y1583D02*
X1486Y1583D01*
X167Y1582D02*
X179Y1582D01*
X1475Y1582D02*
X1487Y1582D01*
X165Y1581D02*
X178Y1581D01*
X1476Y1581D02*
X1489Y1581D01*
X164Y1580D02*
X176Y1580D01*
X1478Y1580D02*
X1490Y1580D01*
X162Y1579D02*
X175Y1579D01*
X1479Y1579D02*
X1492Y1579D01*
X161Y1578D02*
X174Y1578D01*
X1480Y1578D02*
X1493Y1578D01*
X159Y1577D02*
X172Y1577D01*
X1482Y1577D02*
X1495Y1577D01*
X158Y1576D02*
X171Y1576D01*
X1483Y1576D02*
X1496Y1576D01*
X157Y1575D02*
X169Y1575D01*
X1485Y1575D02*
X1497Y1575D01*
X155Y1574D02*
X168Y1574D01*
X1486Y1574D02*
X1499Y1574D01*
X154Y1573D02*
X167Y1573D01*
X1487Y1573D02*
X1500Y1573D01*
X153Y1572D02*
X165Y1572D01*
X1489Y1572D02*
X1501Y1572D01*
X152Y1571D02*
X164Y1571D01*
X1490Y1571D02*
X1502Y1571D01*
X150Y1570D02*
X162Y1570D01*
X1492Y1570D02*
X1504Y1570D01*
X149Y1569D02*
X161Y1569D01*
X1493Y1569D02*
X1505Y1569D01*
X148Y1568D02*
X160Y1568D01*
X1494Y1568D02*
X1506Y1568D01*
X147Y1567D02*
X158Y1567D01*
X1496Y1567D02*
X1507Y1567D01*
X145Y1566D02*
X157Y1566D01*
X1497Y1566D02*
X1509Y1566D01*
X144Y1565D02*
X156Y1565D01*
X1498Y1565D02*
X1510Y1565D01*
X143Y1564D02*
X155Y1564D01*
X1499Y1564D02*
X1511Y1564D01*
X142Y1563D02*
X153Y1563D01*
X1501Y1563D02*
X1512Y1563D01*
X140Y1562D02*
X152Y1562D01*
X1502Y1562D02*
X1514Y1562D01*
X139Y1561D02*
X151Y1561D01*
X1503Y1561D02*
X1515Y1561D01*
X138Y1560D02*
X150Y1560D01*
X1504Y1560D02*
X1516Y1560D01*
X137Y1559D02*
X148Y1559D01*
X1506Y1559D02*
X1517Y1559D01*
X136Y1558D02*
X147Y1558D01*
X1507Y1558D02*
X1518Y1558D01*
X135Y1557D02*
X146Y1557D01*
X1508Y1557D02*
X1519Y1557D01*
X134Y1556D02*
X145Y1556D01*
X1509Y1556D02*
X1520Y1556D01*
X132Y1555D02*
X144Y1555D01*
X1510Y1555D02*
X1522Y1555D01*
X131Y1554D02*
X142Y1554D01*
X1512Y1554D02*
X1523Y1554D01*
X130Y1553D02*
X141Y1553D01*
X1513Y1553D02*
X1524Y1553D01*
X129Y1552D02*
X140Y1552D01*
X1514Y1552D02*
X1525Y1552D01*
X128Y1551D02*
X139Y1551D01*
X1515Y1551D02*
X1526Y1551D01*
X127Y1550D02*
X138Y1550D01*
X1516Y1550D02*
X1527Y1550D01*
X126Y1549D02*
X137Y1549D01*
X1517Y1549D02*
X1528Y1549D01*
X125Y1548D02*
X135Y1548D01*
X1518Y1548D02*
X1529Y1548D01*
X124Y1547D02*
X134Y1547D01*
X1520Y1547D02*
X1530Y1547D01*
X123Y1546D02*
X133Y1546D01*
X1521Y1546D02*
X1531Y1546D01*
X122Y1545D02*
X132Y1545D01*
X1522Y1545D02*
X1532Y1545D01*
X121Y1544D02*
X131Y1544D01*
X1523Y1544D02*
X1533Y1544D01*
X119Y1543D02*
X130Y1543D01*
X1524Y1543D02*
X1535Y1543D01*
X118Y1542D02*
X129Y1542D01*
X1525Y1542D02*
X1536Y1542D01*
X117Y1541D02*
X128Y1541D01*
X1526Y1541D02*
X1537Y1541D01*
X116Y1540D02*
X127Y1540D01*
X1527Y1540D02*
X1538Y1540D01*
X115Y1539D02*
X126Y1539D01*
X1528Y1539D02*
X1539Y1539D01*
X114Y1538D02*
X125Y1538D01*
X1529Y1538D02*
X1540Y1538D01*
X113Y1537D02*
X124Y1537D01*
X1530Y1537D02*
X1541Y1537D01*
X112Y1536D02*
X123Y1536D01*
X1531Y1536D02*
X1542Y1536D01*
X111Y1535D02*
X122Y1535D01*
X1532Y1535D02*
X1543Y1535D01*
X111Y1534D02*
X121Y1534D01*
X1533Y1534D02*
X1543Y1534D01*
X110Y1533D02*
X120Y1533D01*
X1534Y1533D02*
X1544Y1533D01*
X109Y1532D02*
X119Y1532D01*
X1535Y1532D02*
X1545Y1532D01*
X108Y1531D02*
X118Y1531D01*
X1536Y1531D02*
X1546Y1531D01*
X107Y1530D02*
X117Y1530D01*
X1537Y1530D02*
X1547Y1530D01*
X106Y1529D02*
X116Y1529D01*
X1538Y1529D02*
X1548Y1529D01*
X105Y1528D02*
X115Y1528D01*
X1539Y1528D02*
X1549Y1528D01*
X104Y1527D02*
X114Y1527D01*
X1540Y1527D02*
X1550Y1527D01*
X103Y1526D02*
X113Y1526D01*
X1541Y1526D02*
X1551Y1526D01*
X102Y1525D02*
X112Y1525D01*
X1542Y1525D02*
X1552Y1525D01*
X101Y1524D02*
X111Y1524D01*
X1543Y1524D02*
X1553Y1524D01*
X100Y1523D02*
X110Y1523D01*
X1544Y1523D02*
X1554Y1523D01*
X99Y1522D02*
X109Y1522D01*
X1545Y1522D02*
X1555Y1522D01*
X99Y1521D02*
X108Y1521D01*
X1546Y1521D02*
X1555Y1521D01*
X98Y1520D02*
X107Y1520D01*
X1547Y1520D02*
X1556Y1520D01*
X97Y1519D02*
X106Y1519D01*
X1548Y1519D02*
X1557Y1519D01*
X96Y1518D02*
X106Y1518D01*
X1548Y1518D02*
X1558Y1518D01*
X95Y1517D02*
X105Y1517D01*
X1549Y1517D02*
X1559Y1517D01*
X94Y1516D02*
X104Y1516D01*
X1550Y1516D02*
X1560Y1516D01*
X93Y1515D02*
X103Y1515D01*
X1551Y1515D02*
X1561Y1515D01*
X92Y1514D02*
X102Y1514D01*
X1552Y1514D02*
X1562Y1514D01*
X92Y1513D02*
X101Y1513D01*
X1553Y1513D02*
X1562Y1513D01*
X91Y1512D02*
X100Y1512D01*
X1554Y1512D02*
X1563Y1512D01*
X90Y1511D02*
X99Y1511D01*
X1555Y1511D02*
X1564Y1511D01*
X89Y1510D02*
X99Y1510D01*
X1555Y1510D02*
X1565Y1510D01*
X88Y1509D02*
X98Y1509D01*
X1556Y1509D02*
X1566Y1509D01*
X88Y1508D02*
X97Y1508D01*
X1557Y1508D02*
X1566Y1508D01*
X87Y1507D02*
X96Y1507D01*
X1558Y1507D02*
X1567Y1507D01*
X86Y1506D02*
X95Y1506D01*
X1559Y1506D02*
X1568Y1506D01*
X85Y1505D02*
X94Y1505D01*
X1560Y1505D02*
X1569Y1505D01*
X84Y1504D02*
X94Y1504D01*
X1560Y1504D02*
X1570Y1504D01*
X84Y1503D02*
X93Y1503D01*
X1561Y1503D02*
X1570Y1503D01*
X83Y1502D02*
X92Y1502D01*
X1562Y1502D02*
X1571Y1502D01*
X82Y1501D02*
X91Y1501D01*
X1563Y1501D02*
X1572Y1501D01*
X81Y1500D02*
X90Y1500D01*
X1564Y1500D02*
X1573Y1500D01*
X80Y1499D02*
X90Y1499D01*
X1564Y1499D02*
X1574Y1499D01*
X80Y1498D02*
X89Y1498D01*
X1565Y1498D02*
X1574Y1498D01*
X79Y1497D02*
X88Y1497D01*
X1566Y1497D02*
X1575Y1497D01*
X78Y1496D02*
X87Y1496D01*
X1567Y1496D02*
X1576Y1496D01*
X77Y1495D02*
X86Y1495D01*
X1568Y1495D02*
X1577Y1495D01*
X77Y1494D02*
X86Y1494D01*
X1568Y1494D02*
X1577Y1494D01*
X76Y1493D02*
X85Y1493D01*
X1569Y1493D02*
X1578Y1493D01*
X75Y1492D02*
X84Y1492D01*
X1570Y1492D02*
X1579Y1492D01*
X75Y1491D02*
X83Y1491D01*
X1571Y1491D02*
X1579Y1491D01*
X74Y1490D02*
X83Y1490D01*
X1571Y1490D02*
X1580Y1490D01*
X73Y1489D02*
X82Y1489D01*
X1572Y1489D02*
X1581Y1489D01*
X73Y1488D02*
X81Y1488D01*
X1573Y1488D02*
X1581Y1488D01*
X72Y1487D02*
X81Y1487D01*
X1573Y1487D02*
X1582Y1487D01*
X71Y1486D02*
X80Y1486D01*
X1574Y1486D02*
X1583Y1486D01*
X70Y1485D02*
X79Y1485D01*
X1575Y1485D02*
X1584Y1485D01*
X70Y1484D02*
X78Y1484D01*
X1576Y1484D02*
X1584Y1484D01*
X69Y1483D02*
X78Y1483D01*
X1576Y1483D02*
X1585Y1483D01*
X68Y1482D02*
X77Y1482D01*
X1577Y1482D02*
X1586Y1482D01*
X68Y1481D02*
X76Y1481D01*
X1578Y1481D02*
X1586Y1481D01*
X67Y1480D02*
X76Y1480D01*
X1578Y1480D02*
X1587Y1480D01*
X66Y1479D02*
X75Y1479D01*
X1579Y1479D02*
X1588Y1479D01*
X66Y1478D02*
X74Y1478D01*
X1580Y1478D02*
X1588Y1478D01*
X65Y1477D02*
X73Y1477D01*
X1581Y1477D02*
X1589Y1477D01*
X64Y1476D02*
X73Y1476D01*
X1581Y1476D02*
X1590Y1476D01*
X64Y1475D02*
X72Y1475D01*
X1582Y1475D02*
X1590Y1475D01*
X63Y1474D02*
X71Y1474D01*
X1583Y1474D02*
X1591Y1474D01*
X62Y1473D02*
X71Y1473D01*
X1583Y1473D02*
X1592Y1473D01*
X62Y1472D02*
X70Y1472D01*
X1584Y1472D02*
X1592Y1472D01*
X61Y1471D02*
X70Y1471D01*
X1584Y1471D02*
X1593Y1471D01*
X61Y1470D02*
X69Y1470D01*
X1585Y1470D02*
X1593Y1470D01*
X60Y1469D02*
X68Y1469D01*
X1586Y1469D02*
X1594Y1469D01*
X59Y1468D02*
X68Y1468D01*
X1586Y1468D02*
X1595Y1468D01*
X59Y1467D02*
X67Y1467D01*
X1587Y1467D02*
X1595Y1467D01*
X58Y1466D02*
X66Y1466D01*
X1588Y1466D02*
X1596Y1466D01*
X57Y1465D02*
X66Y1465D01*
X1588Y1465D02*
X1597Y1465D01*
X57Y1464D02*
X65Y1464D01*
X1589Y1464D02*
X1597Y1464D01*
X56Y1463D02*
X64Y1463D01*
X1590Y1463D02*
X1598Y1463D01*
X56Y1462D02*
X64Y1462D01*
X1590Y1462D02*
X1598Y1462D01*
X55Y1461D02*
X63Y1461D01*
X1591Y1461D02*
X1599Y1461D01*
X54Y1460D02*
X63Y1460D01*
X1591Y1460D02*
X1600Y1460D01*
X54Y1459D02*
X62Y1459D01*
X1592Y1459D02*
X1600Y1459D01*
X53Y1458D02*
X61Y1458D01*
X1593Y1458D02*
X1601Y1458D01*
X53Y1457D02*
X61Y1457D01*
X1593Y1457D02*
X1601Y1457D01*
X52Y1456D02*
X60Y1456D01*
X1594Y1456D02*
X1602Y1456D01*
X52Y1455D02*
X60Y1455D01*
X1594Y1455D02*
X1602Y1455D01*
X51Y1454D02*
X59Y1454D01*
X1595Y1454D02*
X1603Y1454D01*
X50Y1453D02*
X59Y1453D01*
X1595Y1453D02*
X1604Y1453D01*
X50Y1452D02*
X58Y1452D01*
X1596Y1452D02*
X1604Y1452D01*
X49Y1451D02*
X57Y1451D01*
X1597Y1451D02*
X1605Y1451D01*
X49Y1450D02*
X57Y1450D01*
X1597Y1450D02*
X1605Y1450D01*
X48Y1449D02*
X56Y1449D01*
X1598Y1449D02*
X1606Y1449D01*
X48Y1448D02*
X56Y1448D01*
X1598Y1448D02*
X1606Y1448D01*
X47Y1447D02*
X55Y1447D01*
X1599Y1447D02*
X1607Y1447D01*
X47Y1446D02*
X55Y1446D01*
X1599Y1446D02*
X1607Y1446D01*
X46Y1445D02*
X54Y1445D01*
X1600Y1445D02*
X1608Y1445D01*
X46Y1444D02*
X53Y1444D01*
X1601Y1444D02*
X1608Y1444D01*
X45Y1443D02*
X53Y1443D01*
X1601Y1443D02*
X1609Y1443D01*
X45Y1442D02*
X52Y1442D01*
X1602Y1442D02*
X1609Y1442D01*
X44Y1441D02*
X52Y1441D01*
X1602Y1441D02*
X1610Y1441D01*
X44Y1440D02*
X51Y1440D01*
X1603Y1440D02*
X1610Y1440D01*
X43Y1439D02*
X51Y1439D01*
X1603Y1439D02*
X1611Y1439D01*
X43Y1438D02*
X50Y1438D01*
X1604Y1438D02*
X1611Y1438D01*
X42Y1437D02*
X50Y1437D01*
X1604Y1437D02*
X1612Y1437D01*
X42Y1436D02*
X49Y1436D01*
X1605Y1436D02*
X1612Y1436D01*
X41Y1435D02*
X49Y1435D01*
X1605Y1435D02*
X1613Y1435D01*
X40Y1434D02*
X48Y1434D01*
X1606Y1434D02*
X1614Y1434D01*
X40Y1433D02*
X48Y1433D01*
X1606Y1433D02*
X1614Y1433D01*
X39Y1432D02*
X47Y1432D01*
X1607Y1432D02*
X1615Y1432D01*
X39Y1431D02*
X47Y1431D01*
X1607Y1431D02*
X1615Y1431D01*
X39Y1430D02*
X46Y1430D01*
X1608Y1430D02*
X1615Y1430D01*
X38Y1429D02*
X46Y1429D01*
X1608Y1429D02*
X1616Y1429D01*
X38Y1428D02*
X45Y1428D01*
X1609Y1428D02*
X1616Y1428D01*
X37Y1427D02*
X45Y1427D01*
X1609Y1427D02*
X1617Y1427D01*
X37Y1426D02*
X44Y1426D01*
X1610Y1426D02*
X1617Y1426D01*
X36Y1425D02*
X44Y1425D01*
X1610Y1425D02*
X1618Y1425D01*
X36Y1424D02*
X43Y1424D01*
X1611Y1424D02*
X1618Y1424D01*
X35Y1423D02*
X43Y1423D01*
X1611Y1423D02*
X1619Y1423D01*
X35Y1422D02*
X43Y1422D01*
X1611Y1422D02*
X1619Y1422D01*
X34Y1421D02*
X42Y1421D01*
X1612Y1421D02*
X1619Y1421D01*
X34Y1420D02*
X42Y1420D01*
X1612Y1420D02*
X1620Y1420D01*
X34Y1419D02*
X41Y1419D01*
X1613Y1419D02*
X1620Y1419D01*
X33Y1418D02*
X41Y1418D01*
X1613Y1418D02*
X1621Y1418D01*
X33Y1417D02*
X40Y1417D01*
X1614Y1417D02*
X1621Y1417D01*
X32Y1416D02*
X40Y1416D01*
X1614Y1416D02*
X1622Y1416D01*
X32Y1415D02*
X39Y1415D01*
X1615Y1415D02*
X1622Y1415D01*
X31Y1414D02*
X39Y1414D01*
X1615Y1414D02*
X1623Y1414D01*
X31Y1413D02*
X39Y1413D01*
X1615Y1413D02*
X1623Y1413D01*
X31Y1412D02*
X38Y1412D01*
X1616Y1412D02*
X1623Y1412D01*
X30Y1411D02*
X38Y1411D01*
X1616Y1411D02*
X1624Y1411D01*
X30Y1410D02*
X37Y1410D01*
X1617Y1410D02*
X1624Y1410D01*
X29Y1409D02*
X37Y1409D01*
X1617Y1409D02*
X1625Y1409D01*
X29Y1408D02*
X36Y1408D01*
X1618Y1408D02*
X1625Y1408D01*
X29Y1407D02*
X36Y1407D01*
X1618Y1407D02*
X1625Y1407D01*
X28Y1406D02*
X36Y1406D01*
X1618Y1406D02*
X1626Y1406D01*
X28Y1405D02*
X35Y1405D01*
X1619Y1405D02*
X1626Y1405D01*
X27Y1404D02*
X35Y1404D01*
X1619Y1404D02*
X1627Y1404D01*
X27Y1403D02*
X34Y1403D01*
X1620Y1403D02*
X1627Y1403D01*
X27Y1402D02*
X34Y1402D01*
X1620Y1402D02*
X1627Y1402D01*
X26Y1401D02*
X34Y1401D01*
X1620Y1401D02*
X1628Y1401D01*
X26Y1400D02*
X33Y1400D01*
X1621Y1400D02*
X1628Y1400D01*
X25Y1399D02*
X33Y1399D01*
X1621Y1399D02*
X1629Y1399D01*
X25Y1398D02*
X33Y1398D01*
X1621Y1398D02*
X1629Y1398D01*
X25Y1397D02*
X32Y1397D01*
X1622Y1397D02*
X1629Y1397D01*
X24Y1396D02*
X32Y1396D01*
X1622Y1396D02*
X1630Y1396D01*
X24Y1395D02*
X31Y1395D01*
X1623Y1395D02*
X1630Y1395D01*
X24Y1394D02*
X31Y1394D01*
X1623Y1394D02*
X1630Y1394D01*
X23Y1393D02*
X31Y1393D01*
X1623Y1393D02*
X1631Y1393D01*
X23Y1392D02*
X30Y1392D01*
X1624Y1392D02*
X1631Y1392D01*
X23Y1391D02*
X30Y1391D01*
X1624Y1391D02*
X1631Y1391D01*
X22Y1390D02*
X30Y1390D01*
X1624Y1390D02*
X1632Y1390D01*
X22Y1389D02*
X29Y1389D01*
X1625Y1389D02*
X1632Y1389D01*
X22Y1388D02*
X29Y1388D01*
X1625Y1388D02*
X1632Y1388D01*
X21Y1387D02*
X29Y1387D01*
X1625Y1387D02*
X1633Y1387D01*
X21Y1386D02*
X28Y1386D01*
X1626Y1386D02*
X1633Y1386D01*
X21Y1385D02*
X28Y1385D01*
X1626Y1385D02*
X1633Y1385D01*
X20Y1384D02*
X28Y1384D01*
X1626Y1384D02*
X1634Y1384D01*
X20Y1383D02*
X27Y1383D01*
X1627Y1383D02*
X1634Y1383D01*
X20Y1382D02*
X27Y1382D01*
X1627Y1382D02*
X1634Y1382D01*
X19Y1381D02*
X27Y1381D01*
X1627Y1381D02*
X1635Y1381D01*
X19Y1380D02*
X26Y1380D01*
X1628Y1380D02*
X1635Y1380D01*
X19Y1379D02*
X26Y1379D01*
X1628Y1379D02*
X1635Y1379D01*
X18Y1378D02*
X26Y1378D01*
X1628Y1378D02*
X1636Y1378D01*
X18Y1377D02*
X25Y1377D01*
X1629Y1377D02*
X1636Y1377D01*
X18Y1376D02*
X25Y1376D01*
X1629Y1376D02*
X1636Y1376D01*
X17Y1375D02*
X25Y1375D01*
X1629Y1375D02*
X1637Y1375D01*
X17Y1374D02*
X24Y1374D01*
X1630Y1374D02*
X1637Y1374D01*
X17Y1373D02*
X24Y1373D01*
X1630Y1373D02*
X1637Y1373D01*
X17Y1372D02*
X24Y1372D01*
X1630Y1372D02*
X1637Y1372D01*
X16Y1371D02*
X23Y1371D01*
X1631Y1371D02*
X1638Y1371D01*
X16Y1370D02*
X23Y1370D01*
X1631Y1370D02*
X1638Y1370D01*
X16Y1369D02*
X23Y1369D01*
X1631Y1369D02*
X1638Y1369D01*
X15Y1368D02*
X23Y1368D01*
X1631Y1368D02*
X1639Y1368D01*
X15Y1367D02*
X22Y1367D01*
X1632Y1367D02*
X1639Y1367D01*
X15Y1366D02*
X22Y1366D01*
X1632Y1366D02*
X1639Y1366D01*
X15Y1365D02*
X22Y1365D01*
X1632Y1365D02*
X1639Y1365D01*
X14Y1364D02*
X21Y1364D01*
X1633Y1364D02*
X1640Y1364D01*
X14Y1363D02*
X21Y1363D01*
X1633Y1363D02*
X1640Y1363D01*
X14Y1362D02*
X21Y1362D01*
X1633Y1362D02*
X1640Y1362D01*
X13Y1361D02*
X21Y1361D01*
X1633Y1361D02*
X1641Y1361D01*
X13Y1360D02*
X20Y1360D01*
X1634Y1360D02*
X1641Y1360D01*
X13Y1359D02*
X20Y1359D01*
X1634Y1359D02*
X1641Y1359D01*
X13Y1358D02*
X20Y1358D01*
X1634Y1358D02*
X1641Y1358D01*
X12Y1357D02*
X20Y1357D01*
X1634Y1357D02*
X1642Y1357D01*
X12Y1356D02*
X19Y1356D01*
X1635Y1356D02*
X1642Y1356D01*
X12Y1355D02*
X19Y1355D01*
X1635Y1355D02*
X1642Y1355D01*
X12Y1354D02*
X19Y1354D01*
X1635Y1354D02*
X1642Y1354D01*
X12Y1353D02*
X19Y1353D01*
X1635Y1353D02*
X1642Y1353D01*
X11Y1352D02*
X18Y1352D01*
X1636Y1352D02*
X1643Y1352D01*
X11Y1351D02*
X18Y1351D01*
X1636Y1351D02*
X1643Y1351D01*
X11Y1350D02*
X18Y1350D01*
X1636Y1350D02*
X1643Y1350D01*
X11Y1349D02*
X18Y1349D01*
X1636Y1349D02*
X1643Y1349D01*
X10Y1348D02*
X17Y1348D01*
X1637Y1348D02*
X1644Y1348D01*
X10Y1347D02*
X17Y1347D01*
X1637Y1347D02*
X1644Y1347D01*
X10Y1346D02*
X17Y1346D01*
X1637Y1346D02*
X1644Y1346D01*
X10Y1345D02*
X17Y1345D01*
X1637Y1345D02*
X1644Y1345D01*
X9Y1344D02*
X17Y1344D01*
X1637Y1344D02*
X1645Y1344D01*
X9Y1343D02*
X16Y1343D01*
X1638Y1343D02*
X1645Y1343D01*
X9Y1342D02*
X16Y1342D01*
X1638Y1342D02*
X1645Y1342D01*
X9Y1341D02*
X16Y1341D01*
X1638Y1341D02*
X1645Y1341D01*
X9Y1340D02*
X16Y1340D01*
X1638Y1340D02*
X1645Y1340D01*
X8Y1339D02*
X16Y1339D01*
X1638Y1339D02*
X1646Y1339D01*
X8Y1338D02*
X15Y1338D01*
X1639Y1338D02*
X1646Y1338D01*
X8Y1337D02*
X15Y1337D01*
X1639Y1337D02*
X1646Y1337D01*
X8Y1336D02*
X15Y1336D01*
X1639Y1336D02*
X1646Y1336D01*
X8Y1335D02*
X15Y1335D01*
X1639Y1335D02*
X1646Y1335D01*
X8Y1334D02*
X15Y1334D01*
X1639Y1334D02*
X1646Y1334D01*
X7Y1333D02*
X14Y1333D01*
X1640Y1333D02*
X1647Y1333D01*
X7Y1332D02*
X14Y1332D01*
X1640Y1332D02*
X1647Y1332D01*
X7Y1331D02*
X14Y1331D01*
X1640Y1331D02*
X1647Y1331D01*
X7Y1330D02*
X14Y1330D01*
X1640Y1330D02*
X1647Y1330D01*
X7Y1329D02*
X14Y1329D01*
X1640Y1329D02*
X1647Y1329D01*
X6Y1328D02*
X14Y1328D01*
X1640Y1328D02*
X1648Y1328D01*
X6Y1327D02*
X13Y1327D01*
X1641Y1327D02*
X1648Y1327D01*
X6Y1326D02*
X13Y1326D01*
X1641Y1326D02*
X1648Y1326D01*
X6Y1325D02*
X13Y1325D01*
X1641Y1325D02*
X1648Y1325D01*
X6Y1324D02*
X13Y1324D01*
X1641Y1324D02*
X1648Y1324D01*
X6Y1323D02*
X13Y1323D01*
X1641Y1323D02*
X1648Y1323D01*
X5Y1322D02*
X13Y1322D01*
X1641Y1322D02*
X1649Y1322D01*
X5Y1321D02*
X12Y1321D01*
X1642Y1321D02*
X1649Y1321D01*
X5Y1320D02*
X12Y1320D01*
X1642Y1320D02*
X1649Y1320D01*
X5Y1319D02*
X12Y1319D01*
X1642Y1319D02*
X1649Y1319D01*
X5Y1318D02*
X12Y1318D01*
X1642Y1318D02*
X1649Y1318D01*
X5Y1317D02*
X12Y1317D01*
X1642Y1317D02*
X1649Y1317D01*
X5Y1316D02*
X12Y1316D01*
X1642Y1316D02*
X1649Y1316D01*
X4Y1315D02*
X12Y1315D01*
X1642Y1315D02*
X1650Y1315D01*
X4Y1314D02*
X11Y1314D01*
X1643Y1314D02*
X1650Y1314D01*
X4Y1313D02*
X11Y1313D01*
X1643Y1313D02*
X1650Y1313D01*
X4Y1312D02*
X11Y1312D01*
X1643Y1312D02*
X1650Y1312D01*
X4Y1311D02*
X11Y1311D01*
X1643Y1311D02*
X1650Y1311D01*
X4Y1310D02*
X11Y1310D01*
X1643Y1310D02*
X1650Y1310D01*
X4Y1309D02*
X11Y1309D01*
X1643Y1309D02*
X1650Y1309D01*
X4Y1308D02*
X11Y1308D01*
X1643Y1308D02*
X1650Y1308D01*
X4Y1307D02*
X11Y1307D01*
X1643Y1307D02*
X1650Y1307D01*
X3Y1306D02*
X10Y1306D01*
X1644Y1306D02*
X1651Y1306D01*
X3Y1305D02*
X10Y1305D01*
X1644Y1305D02*
X1651Y1305D01*
X3Y1304D02*
X10Y1304D01*
X1644Y1304D02*
X1651Y1304D01*
X3Y1303D02*
X10Y1303D01*
X1644Y1303D02*
X1651Y1303D01*
X3Y1302D02*
X10Y1302D01*
X1644Y1302D02*
X1651Y1302D01*
X3Y1301D02*
X10Y1301D01*
X1644Y1301D02*
X1651Y1301D01*
X3Y1300D02*
X10Y1300D01*
X1644Y1300D02*
X1651Y1300D01*
X3Y1299D02*
X10Y1299D01*
X1644Y1299D02*
X1651Y1299D01*
X3Y1298D02*
X10Y1298D01*
X1644Y1298D02*
X1651Y1298D01*
X3Y1297D02*
X10Y1297D01*
X1644Y1297D02*
X1651Y1297D01*
X2Y1296D02*
X9Y1296D01*
X1645Y1296D02*
X1652Y1296D01*
X2Y1295D02*
X9Y1295D01*
X1645Y1295D02*
X1652Y1295D01*
X2Y1294D02*
X9Y1294D01*
X1645Y1294D02*
X1652Y1294D01*
X2Y1293D02*
X9Y1293D01*
X1645Y1293D02*
X1652Y1293D01*
X2Y1292D02*
X9Y1292D01*
X1645Y1292D02*
X1652Y1292D01*
X2Y1291D02*
X9Y1291D01*
X1645Y1291D02*
X1652Y1291D01*
X2Y1290D02*
X9Y1290D01*
X1645Y1290D02*
X1652Y1290D01*
X2Y1289D02*
X9Y1289D01*
X1645Y1289D02*
X1652Y1289D01*
X2Y1288D02*
X9Y1288D01*
X1645Y1288D02*
X1652Y1288D01*
X2Y1287D02*
X9Y1287D01*
X1645Y1287D02*
X1652Y1287D01*
X2Y1286D02*
X9Y1286D01*
X1645Y1286D02*
X1652Y1286D01*
X2Y1285D02*
X9Y1285D01*
X1645Y1285D02*
X1652Y1285D01*
X2Y1284D02*
X9Y1284D01*
X1645Y1284D02*
X1652Y1284D01*
X2Y1283D02*
X9Y1283D01*
X1645Y1283D02*
X1652Y1283D01*
X1Y1282D02*
X8Y1282D01*
X1646Y1282D02*
X1653Y1282D01*
X1Y1281D02*
X8Y1281D01*
X1646Y1281D02*
X1653Y1281D01*
X1Y1280D02*
X8Y1280D01*
X1646Y1280D02*
X1653Y1280D01*
X1Y1279D02*
X8Y1279D01*
X1646Y1279D02*
X1653Y1279D01*
X1Y1278D02*
X8Y1278D01*
X1646Y1278D02*
X1653Y1278D01*
X1Y1277D02*
X8Y1277D01*
X1646Y1277D02*
X1653Y1277D01*
X1Y1276D02*
X8Y1276D01*
X1646Y1276D02*
X1653Y1276D01*
X1Y1275D02*
X8Y1275D01*
X1646Y1275D02*
X1653Y1275D01*
X1Y1274D02*
X8Y1274D01*
X1646Y1274D02*
X1653Y1274D01*
X1Y1273D02*
X8Y1273D01*
X1646Y1273D02*
X1653Y1273D01*
X1Y1272D02*
X8Y1272D01*
X1646Y1272D02*
X1653Y1272D01*
X1Y1271D02*
X8Y1271D01*
X1646Y1271D02*
X1653Y1271D01*
X1Y1270D02*
X8Y1270D01*
X1646Y1270D02*
X1653Y1270D01*
X1Y1269D02*
X8Y1269D01*
X1646Y1269D02*
X1653Y1269D01*
X1Y1268D02*
X8Y1268D01*
X1646Y1268D02*
X1653Y1268D01*
X1Y1267D02*
X8Y1267D01*
X1646Y1267D02*
X1653Y1267D01*
X1Y1266D02*
X8Y1266D01*
X1646Y1266D02*
X1653Y1266D01*
X1Y1265D02*
X8Y1265D01*
X1646Y1265D02*
X1653Y1265D01*
X1Y1264D02*
X8Y1264D01*
X1646Y1264D02*
X1653Y1264D01*
X1Y1263D02*
X8Y1263D01*
X1646Y1263D02*
X1653Y1263D01*
X1Y1262D02*
X8Y1262D01*
X1646Y1262D02*
X1653Y1262D01*
X1Y1261D02*
X8Y1261D01*
X1646Y1261D02*
X1653Y1261D01*
X1Y1260D02*
X8Y1260D01*
X1646Y1260D02*
X1653Y1260D01*
X1Y1259D02*
X8Y1259D01*
X1646Y1259D02*
X1653Y1259D01*
X1Y1258D02*
X8Y1258D01*
X1646Y1258D02*
X1653Y1258D01*
X1Y1257D02*
X8Y1257D01*
X1646Y1257D02*
X1653Y1257D01*
X1Y1256D02*
X8Y1256D01*
X1646Y1256D02*
X1653Y1256D01*
X1Y1255D02*
X8Y1255D01*
X1646Y1255D02*
X1653Y1255D01*
X1Y1254D02*
X8Y1254D01*
X1646Y1254D02*
X1653Y1254D01*
X1Y1253D02*
X8Y1253D01*
X1646Y1253D02*
X1653Y1253D01*
X1Y1252D02*
X8Y1252D01*
X1646Y1252D02*
X1653Y1252D01*
X1Y1251D02*
X8Y1251D01*
X1646Y1251D02*
X1653Y1251D01*
X1Y1250D02*
X8Y1250D01*
X1646Y1250D02*
X1653Y1250D01*
X1Y1249D02*
X8Y1249D01*
X1646Y1249D02*
X1653Y1249D01*
X1Y1248D02*
X8Y1248D01*
X1646Y1248D02*
X1653Y1248D01*
X1Y1247D02*
X8Y1247D01*
X1646Y1247D02*
X1653Y1247D01*
X1Y1246D02*
X8Y1246D01*
X1646Y1246D02*
X1653Y1246D01*
X1Y1245D02*
X8Y1245D01*
X1646Y1245D02*
X1653Y1245D01*
X1Y1244D02*
X8Y1244D01*
X1646Y1244D02*
X1653Y1244D01*
X1Y1243D02*
X8Y1243D01*
X1646Y1243D02*
X1653Y1243D01*
X1Y1242D02*
X8Y1242D01*
X1646Y1242D02*
X1653Y1242D01*
X1Y1241D02*
X8Y1241D01*
X1646Y1241D02*
X1653Y1241D01*
X1Y1240D02*
X8Y1240D01*
X1646Y1240D02*
X1653Y1240D01*
X1Y1239D02*
X8Y1239D01*
X1646Y1239D02*
X1653Y1239D01*
X1Y1238D02*
X8Y1238D01*
X1646Y1238D02*
X1653Y1238D01*
X1Y1237D02*
X8Y1237D01*
X1646Y1237D02*
X1653Y1237D01*
X1Y1236D02*
X8Y1236D01*
X1646Y1236D02*
X1653Y1236D01*
X1Y1235D02*
X8Y1235D01*
X1646Y1235D02*
X1653Y1235D01*
X1Y1234D02*
X8Y1234D01*
X1646Y1234D02*
X1653Y1234D01*
X1Y1233D02*
X8Y1233D01*
X1646Y1233D02*
X1653Y1233D01*
X1Y1232D02*
X8Y1232D01*
X1646Y1232D02*
X1653Y1232D01*
X1Y1231D02*
X8Y1231D01*
X1646Y1231D02*
X1653Y1231D01*
X1Y1230D02*
X8Y1230D01*
X1646Y1230D02*
X1653Y1230D01*
X1Y1229D02*
X8Y1229D01*
X1646Y1229D02*
X1653Y1229D01*
X1Y1228D02*
X8Y1228D01*
X1646Y1228D02*
X1653Y1228D01*
X1Y1227D02*
X8Y1227D01*
X1646Y1227D02*
X1653Y1227D01*
X1Y1226D02*
X8Y1226D01*
X1646Y1226D02*
X1653Y1226D01*
X1Y1225D02*
X8Y1225D01*
X1646Y1225D02*
X1653Y1225D01*
X1Y1224D02*
X8Y1224D01*
X1646Y1224D02*
X1653Y1224D01*
X1Y1223D02*
X8Y1223D01*
X1646Y1223D02*
X1653Y1223D01*
X1Y1222D02*
X8Y1222D01*
X1646Y1222D02*
X1653Y1222D01*
X1Y1221D02*
X8Y1221D01*
X1646Y1221D02*
X1653Y1221D01*
X1Y1220D02*
X8Y1220D01*
X1646Y1220D02*
X1653Y1220D01*
X1Y1219D02*
X8Y1219D01*
X1646Y1219D02*
X1653Y1219D01*
X1Y1218D02*
X8Y1218D01*
X1646Y1218D02*
X1653Y1218D01*
X1Y1217D02*
X8Y1217D01*
X1646Y1217D02*
X1653Y1217D01*
X1Y1216D02*
X8Y1216D01*
X1646Y1216D02*
X1653Y1216D01*
X1Y1215D02*
X8Y1215D01*
X1646Y1215D02*
X1653Y1215D01*
X1Y1214D02*
X8Y1214D01*
X1646Y1214D02*
X1653Y1214D01*
X1Y1213D02*
X8Y1213D01*
X1646Y1213D02*
X1653Y1213D01*
X1Y1212D02*
X8Y1212D01*
X1646Y1212D02*
X1653Y1212D01*
X1Y1211D02*
X8Y1211D01*
X1646Y1211D02*
X1653Y1211D01*
X1Y1210D02*
X8Y1210D01*
X1646Y1210D02*
X1653Y1210D01*
X1Y1209D02*
X8Y1209D01*
X1646Y1209D02*
X1653Y1209D01*
X1Y1208D02*
X8Y1208D01*
X1646Y1208D02*
X1653Y1208D01*
X1Y1207D02*
X8Y1207D01*
X1646Y1207D02*
X1653Y1207D01*
X1Y1206D02*
X8Y1206D01*
X1646Y1206D02*
X1653Y1206D01*
X1Y1205D02*
X8Y1205D01*
X1646Y1205D02*
X1653Y1205D01*
X1Y1204D02*
X8Y1204D01*
X1646Y1204D02*
X1653Y1204D01*
X1Y1203D02*
X8Y1203D01*
X1646Y1203D02*
X1653Y1203D01*
X1Y1202D02*
X8Y1202D01*
X1646Y1202D02*
X1653Y1202D01*
X1Y1201D02*
X8Y1201D01*
X1646Y1201D02*
X1653Y1201D01*
X1Y1200D02*
X8Y1200D01*
X1646Y1200D02*
X1653Y1200D01*
X1Y1199D02*
X8Y1199D01*
X1646Y1199D02*
X1653Y1199D01*
X1Y1198D02*
X8Y1198D01*
X1646Y1198D02*
X1653Y1198D01*
X1Y1197D02*
X8Y1197D01*
X1646Y1197D02*
X1653Y1197D01*
X1Y1196D02*
X8Y1196D01*
X1646Y1196D02*
X1653Y1196D01*
X1Y1195D02*
X8Y1195D01*
X1646Y1195D02*
X1653Y1195D01*
X1Y1194D02*
X8Y1194D01*
X1646Y1194D02*
X1653Y1194D01*
X1Y1193D02*
X8Y1193D01*
X1646Y1193D02*
X1653Y1193D01*
X1Y1192D02*
X8Y1192D01*
X1646Y1192D02*
X1653Y1192D01*
X1Y1191D02*
X8Y1191D01*
X1646Y1191D02*
X1653Y1191D01*
X1Y1190D02*
X8Y1190D01*
X1646Y1190D02*
X1653Y1190D01*
X1Y1189D02*
X8Y1189D01*
X1646Y1189D02*
X1653Y1189D01*
X1Y1188D02*
X8Y1188D01*
X1646Y1188D02*
X1653Y1188D01*
X1Y1187D02*
X8Y1187D01*
X1646Y1187D02*
X1653Y1187D01*
X1Y1186D02*
X8Y1186D01*
X1646Y1186D02*
X1653Y1186D01*
X1Y1185D02*
X8Y1185D01*
X1646Y1185D02*
X1653Y1185D01*
X1Y1184D02*
X8Y1184D01*
X1646Y1184D02*
X1653Y1184D01*
X1Y1183D02*
X8Y1183D01*
X1646Y1183D02*
X1653Y1183D01*
X1Y1182D02*
X8Y1182D01*
X1646Y1182D02*
X1653Y1182D01*
X1Y1181D02*
X8Y1181D01*
X1646Y1181D02*
X1653Y1181D01*
X1Y1180D02*
X8Y1180D01*
X1646Y1180D02*
X1653Y1180D01*
X1Y1179D02*
X8Y1179D01*
X1646Y1179D02*
X1653Y1179D01*
X1Y1178D02*
X8Y1178D01*
X1646Y1178D02*
X1653Y1178D01*
X1Y1177D02*
X8Y1177D01*
X1646Y1177D02*
X1653Y1177D01*
X1Y1176D02*
X8Y1176D01*
X1646Y1176D02*
X1653Y1176D01*
X1Y1175D02*
X8Y1175D01*
X1646Y1175D02*
X1653Y1175D01*
X1Y1174D02*
X8Y1174D01*
X1646Y1174D02*
X1653Y1174D01*
X1Y1173D02*
X8Y1173D01*
X1646Y1173D02*
X1653Y1173D01*
X1Y1172D02*
X8Y1172D01*
X1646Y1172D02*
X1653Y1172D01*
X1Y1171D02*
X8Y1171D01*
X1646Y1171D02*
X1653Y1171D01*
X1Y1170D02*
X8Y1170D01*
X1646Y1170D02*
X1653Y1170D01*
X1Y1169D02*
X8Y1169D01*
X1646Y1169D02*
X1653Y1169D01*
X1Y1168D02*
X8Y1168D01*
X1646Y1168D02*
X1653Y1168D01*
X1Y1167D02*
X8Y1167D01*
X1646Y1167D02*
X1653Y1167D01*
X1Y1166D02*
X8Y1166D01*
X1646Y1166D02*
X1653Y1166D01*
X1Y1165D02*
X8Y1165D01*
X1646Y1165D02*
X1653Y1165D01*
X1Y1164D02*
X8Y1164D01*
X1646Y1164D02*
X1653Y1164D01*
X1Y1163D02*
X8Y1163D01*
X1646Y1163D02*
X1653Y1163D01*
X1Y1162D02*
X8Y1162D01*
X1646Y1162D02*
X1653Y1162D01*
X1Y1161D02*
X8Y1161D01*
X1646Y1161D02*
X1653Y1161D01*
X1Y1160D02*
X8Y1160D01*
X1646Y1160D02*
X1653Y1160D01*
X1Y1159D02*
X8Y1159D01*
X1646Y1159D02*
X1653Y1159D01*
X1Y1158D02*
X8Y1158D01*
X1646Y1158D02*
X1653Y1158D01*
X1Y1157D02*
X8Y1157D01*
X1646Y1157D02*
X1653Y1157D01*
X1Y1156D02*
X8Y1156D01*
X1646Y1156D02*
X1653Y1156D01*
X1Y1155D02*
X8Y1155D01*
X1646Y1155D02*
X1653Y1155D01*
X1Y1154D02*
X8Y1154D01*
X1646Y1154D02*
X1653Y1154D01*
X1Y1153D02*
X8Y1153D01*
X1646Y1153D02*
X1653Y1153D01*
X1Y1152D02*
X8Y1152D01*
X1646Y1152D02*
X1653Y1152D01*
X1Y1151D02*
X8Y1151D01*
X1646Y1151D02*
X1653Y1151D01*
X1Y1150D02*
X8Y1150D01*
X1646Y1150D02*
X1653Y1150D01*
X1Y1149D02*
X8Y1149D01*
X1646Y1149D02*
X1653Y1149D01*
X1Y1148D02*
X8Y1148D01*
X1646Y1148D02*
X1653Y1148D01*
X1Y1147D02*
X8Y1147D01*
X1646Y1147D02*
X1653Y1147D01*
X1Y1146D02*
X8Y1146D01*
X1646Y1146D02*
X1653Y1146D01*
X1Y1145D02*
X8Y1145D01*
X1646Y1145D02*
X1653Y1145D01*
X1Y1144D02*
X8Y1144D01*
X1646Y1144D02*
X1653Y1144D01*
X1Y1143D02*
X8Y1143D01*
X1646Y1143D02*
X1653Y1143D01*
X1Y1142D02*
X8Y1142D01*
X1646Y1142D02*
X1653Y1142D01*
X1Y1141D02*
X8Y1141D01*
X1646Y1141D02*
X1653Y1141D01*
X1Y1140D02*
X8Y1140D01*
X1646Y1140D02*
X1653Y1140D01*
X1Y1139D02*
X8Y1139D01*
X1646Y1139D02*
X1653Y1139D01*
X1Y1138D02*
X8Y1138D01*
X1646Y1138D02*
X1653Y1138D01*
X1Y1137D02*
X8Y1137D01*
X1646Y1137D02*
X1653Y1137D01*
X1Y1136D02*
X8Y1136D01*
X1646Y1136D02*
X1653Y1136D01*
X1Y1135D02*
X8Y1135D01*
X1646Y1135D02*
X1653Y1135D01*
X1Y1134D02*
X8Y1134D01*
X1646Y1134D02*
X1653Y1134D01*
X1Y1133D02*
X8Y1133D01*
X1646Y1133D02*
X1653Y1133D01*
X1Y1132D02*
X8Y1132D01*
X1646Y1132D02*
X1653Y1132D01*
X1Y1131D02*
X8Y1131D01*
X1646Y1131D02*
X1653Y1131D01*
X1Y1130D02*
X8Y1130D01*
X1646Y1130D02*
X1653Y1130D01*
X1Y1129D02*
X8Y1129D01*
X1646Y1129D02*
X1653Y1129D01*
X1Y1128D02*
X8Y1128D01*
X1646Y1128D02*
X1653Y1128D01*
X1Y1127D02*
X8Y1127D01*
X1646Y1127D02*
X1653Y1127D01*
X1Y1126D02*
X8Y1126D01*
X1646Y1126D02*
X1653Y1126D01*
X1Y1125D02*
X8Y1125D01*
X1646Y1125D02*
X1653Y1125D01*
X1Y1124D02*
X8Y1124D01*
X1646Y1124D02*
X1653Y1124D01*
X1Y1123D02*
X8Y1123D01*
X1646Y1123D02*
X1653Y1123D01*
X1Y1122D02*
X8Y1122D01*
X1646Y1122D02*
X1653Y1122D01*
X1Y1121D02*
X8Y1121D01*
X1646Y1121D02*
X1653Y1121D01*
X1Y1120D02*
X8Y1120D01*
X1646Y1120D02*
X1653Y1120D01*
X1Y1119D02*
X8Y1119D01*
X1646Y1119D02*
X1653Y1119D01*
X1Y1118D02*
X8Y1118D01*
X1646Y1118D02*
X1653Y1118D01*
X1Y1117D02*
X8Y1117D01*
X1646Y1117D02*
X1653Y1117D01*
X1Y1116D02*
X8Y1116D01*
X1646Y1116D02*
X1653Y1116D01*
X1Y1115D02*
X8Y1115D01*
X1646Y1115D02*
X1653Y1115D01*
X1Y1114D02*
X8Y1114D01*
X1646Y1114D02*
X1653Y1114D01*
X1Y1113D02*
X8Y1113D01*
X1646Y1113D02*
X1653Y1113D01*
X1Y1112D02*
X8Y1112D01*
X1646Y1112D02*
X1653Y1112D01*
X1Y1111D02*
X8Y1111D01*
X1646Y1111D02*
X1653Y1111D01*
X1Y1110D02*
X8Y1110D01*
X1646Y1110D02*
X1653Y1110D01*
X1Y1109D02*
X8Y1109D01*
X1646Y1109D02*
X1653Y1109D01*
X1Y1108D02*
X8Y1108D01*
X1646Y1108D02*
X1653Y1108D01*
X1Y1107D02*
X8Y1107D01*
X1646Y1107D02*
X1653Y1107D01*
X1Y1106D02*
X8Y1106D01*
X1646Y1106D02*
X1653Y1106D01*
X1Y1105D02*
X8Y1105D01*
X1646Y1105D02*
X1653Y1105D01*
X1Y1104D02*
X8Y1104D01*
X1646Y1104D02*
X1653Y1104D01*
X1Y1103D02*
X8Y1103D01*
X1646Y1103D02*
X1653Y1103D01*
X1Y1102D02*
X8Y1102D01*
X1646Y1102D02*
X1653Y1102D01*
X1Y1101D02*
X8Y1101D01*
X1646Y1101D02*
X1653Y1101D01*
X1Y1100D02*
X8Y1100D01*
X1646Y1100D02*
X1653Y1100D01*
X1Y1099D02*
X8Y1099D01*
X1646Y1099D02*
X1653Y1099D01*
X1Y1098D02*
X8Y1098D01*
X1646Y1098D02*
X1653Y1098D01*
X1Y1097D02*
X8Y1097D01*
X1646Y1097D02*
X1653Y1097D01*
X1Y1096D02*
X8Y1096D01*
X1646Y1096D02*
X1653Y1096D01*
X1Y1095D02*
X8Y1095D01*
X1646Y1095D02*
X1653Y1095D01*
X1Y1094D02*
X8Y1094D01*
X1646Y1094D02*
X1653Y1094D01*
X1Y1093D02*
X8Y1093D01*
X1646Y1093D02*
X1653Y1093D01*
X1Y1092D02*
X8Y1092D01*
X1646Y1092D02*
X1653Y1092D01*
X1Y1091D02*
X8Y1091D01*
X1646Y1091D02*
X1653Y1091D01*
X1Y1090D02*
X8Y1090D01*
X1646Y1090D02*
X1653Y1090D01*
X1Y1089D02*
X8Y1089D01*
X1646Y1089D02*
X1653Y1089D01*
X1Y1088D02*
X8Y1088D01*
X1646Y1088D02*
X1653Y1088D01*
X1Y1087D02*
X8Y1087D01*
X1646Y1087D02*
X1653Y1087D01*
X1Y1086D02*
X8Y1086D01*
X1646Y1086D02*
X1653Y1086D01*
X1Y1085D02*
X8Y1085D01*
X1646Y1085D02*
X1653Y1085D01*
X1Y1084D02*
X8Y1084D01*
X1646Y1084D02*
X1653Y1084D01*
X1Y1083D02*
X8Y1083D01*
X1646Y1083D02*
X1653Y1083D01*
X1Y1082D02*
X8Y1082D01*
X1646Y1082D02*
X1653Y1082D01*
X1Y1081D02*
X8Y1081D01*
X1646Y1081D02*
X1653Y1081D01*
X1Y1080D02*
X8Y1080D01*
X1646Y1080D02*
X1653Y1080D01*
X1Y1079D02*
X8Y1079D01*
X1646Y1079D02*
X1653Y1079D01*
X1Y1078D02*
X8Y1078D01*
X1646Y1078D02*
X1653Y1078D01*
X1Y1077D02*
X8Y1077D01*
X1646Y1077D02*
X1653Y1077D01*
X1Y1076D02*
X8Y1076D01*
X1646Y1076D02*
X1653Y1076D01*
X1Y1075D02*
X8Y1075D01*
X1646Y1075D02*
X1653Y1075D01*
X1Y1074D02*
X8Y1074D01*
X1646Y1074D02*
X1653Y1074D01*
X1Y1073D02*
X8Y1073D01*
X1646Y1073D02*
X1653Y1073D01*
X1Y1072D02*
X8Y1072D01*
X1646Y1072D02*
X1653Y1072D01*
X1Y1071D02*
X8Y1071D01*
X1646Y1071D02*
X1653Y1071D01*
X1Y1070D02*
X8Y1070D01*
X1646Y1070D02*
X1653Y1070D01*
X1Y1069D02*
X8Y1069D01*
X1646Y1069D02*
X1653Y1069D01*
X1Y1068D02*
X8Y1068D01*
X1646Y1068D02*
X1653Y1068D01*
X1Y1067D02*
X8Y1067D01*
X1646Y1067D02*
X1653Y1067D01*
X1Y1066D02*
X8Y1066D01*
X1646Y1066D02*
X1653Y1066D01*
X1Y1065D02*
X8Y1065D01*
X1646Y1065D02*
X1653Y1065D01*
X1Y1064D02*
X8Y1064D01*
X1646Y1064D02*
X1653Y1064D01*
X1Y1063D02*
X8Y1063D01*
X1646Y1063D02*
X1653Y1063D01*
X1Y1062D02*
X8Y1062D01*
X1646Y1062D02*
X1653Y1062D01*
X1Y1061D02*
X8Y1061D01*
X1646Y1061D02*
X1653Y1061D01*
X1Y1060D02*
X8Y1060D01*
X1646Y1060D02*
X1653Y1060D01*
X1Y1059D02*
X8Y1059D01*
X1646Y1059D02*
X1653Y1059D01*
X1Y1058D02*
X8Y1058D01*
X1646Y1058D02*
X1653Y1058D01*
X1Y1057D02*
X8Y1057D01*
X1646Y1057D02*
X1653Y1057D01*
X1Y1056D02*
X8Y1056D01*
X1646Y1056D02*
X1653Y1056D01*
X1Y1055D02*
X8Y1055D01*
X1646Y1055D02*
X1653Y1055D01*
X1Y1054D02*
X8Y1054D01*
X1646Y1054D02*
X1653Y1054D01*
X1Y1053D02*
X8Y1053D01*
X1646Y1053D02*
X1653Y1053D01*
X1Y1052D02*
X8Y1052D01*
X1646Y1052D02*
X1653Y1052D01*
X1Y1051D02*
X8Y1051D01*
X1646Y1051D02*
X1653Y1051D01*
X1Y1050D02*
X8Y1050D01*
X1646Y1050D02*
X1653Y1050D01*
X1Y1049D02*
X8Y1049D01*
X1646Y1049D02*
X1653Y1049D01*
X1Y1048D02*
X8Y1048D01*
X1646Y1048D02*
X1653Y1048D01*
X1Y1047D02*
X8Y1047D01*
X1646Y1047D02*
X1653Y1047D01*
X1Y1046D02*
X8Y1046D01*
X1646Y1046D02*
X1653Y1046D01*
X1Y1045D02*
X8Y1045D01*
X1646Y1045D02*
X1653Y1045D01*
X1Y1044D02*
X8Y1044D01*
X1646Y1044D02*
X1653Y1044D01*
X1Y1043D02*
X8Y1043D01*
X1646Y1043D02*
X1653Y1043D01*
X1Y1042D02*
X8Y1042D01*
X1646Y1042D02*
X1653Y1042D01*
X1Y1041D02*
X8Y1041D01*
X1646Y1041D02*
X1653Y1041D01*
X1Y1040D02*
X8Y1040D01*
X1646Y1040D02*
X1653Y1040D01*
X1Y1039D02*
X8Y1039D01*
X1646Y1039D02*
X1653Y1039D01*
X1Y1038D02*
X8Y1038D01*
X1646Y1038D02*
X1653Y1038D01*
X1Y1037D02*
X8Y1037D01*
X1646Y1037D02*
X1653Y1037D01*
X1Y1036D02*
X8Y1036D01*
X1646Y1036D02*
X1653Y1036D01*
X1Y1035D02*
X8Y1035D01*
X1646Y1035D02*
X1653Y1035D01*
X1Y1034D02*
X8Y1034D01*
X1646Y1034D02*
X1653Y1034D01*
X1Y1033D02*
X8Y1033D01*
X1646Y1033D02*
X1653Y1033D01*
X1Y1032D02*
X8Y1032D01*
X1646Y1032D02*
X1653Y1032D01*
X1Y1031D02*
X8Y1031D01*
X1646Y1031D02*
X1653Y1031D01*
X1Y1030D02*
X8Y1030D01*
X1646Y1030D02*
X1653Y1030D01*
X1Y1029D02*
X8Y1029D01*
X1646Y1029D02*
X1653Y1029D01*
X1Y1028D02*
X8Y1028D01*
X1646Y1028D02*
X1653Y1028D01*
X1Y1027D02*
X8Y1027D01*
X1646Y1027D02*
X1653Y1027D01*
X1Y1026D02*
X8Y1026D01*
X1646Y1026D02*
X1653Y1026D01*
X1Y1025D02*
X8Y1025D01*
X1646Y1025D02*
X1653Y1025D01*
X1Y1024D02*
X8Y1024D01*
X1646Y1024D02*
X1653Y1024D01*
X1Y1023D02*
X8Y1023D01*
X1646Y1023D02*
X1653Y1023D01*
X1Y1022D02*
X8Y1022D01*
X1646Y1022D02*
X1653Y1022D01*
X1Y1021D02*
X8Y1021D01*
X1646Y1021D02*
X1653Y1021D01*
X1Y1020D02*
X8Y1020D01*
X1646Y1020D02*
X1653Y1020D01*
X1Y1019D02*
X8Y1019D01*
X1646Y1019D02*
X1653Y1019D01*
X1Y1018D02*
X8Y1018D01*
X1646Y1018D02*
X1653Y1018D01*
X1Y1017D02*
X8Y1017D01*
X1646Y1017D02*
X1653Y1017D01*
X1Y1016D02*
X8Y1016D01*
X1646Y1016D02*
X1653Y1016D01*
X1Y1015D02*
X8Y1015D01*
X1646Y1015D02*
X1653Y1015D01*
X1Y1014D02*
X8Y1014D01*
X1646Y1014D02*
X1653Y1014D01*
X1Y1013D02*
X8Y1013D01*
X1646Y1013D02*
X1653Y1013D01*
X1Y1012D02*
X8Y1012D01*
X1646Y1012D02*
X1653Y1012D01*
X1Y1011D02*
X8Y1011D01*
X1646Y1011D02*
X1653Y1011D01*
X1Y1010D02*
X8Y1010D01*
X1646Y1010D02*
X1653Y1010D01*
X1Y1009D02*
X8Y1009D01*
X1646Y1009D02*
X1653Y1009D01*
X1Y1008D02*
X8Y1008D01*
X1646Y1008D02*
X1653Y1008D01*
X1Y1007D02*
X8Y1007D01*
X1646Y1007D02*
X1653Y1007D01*
X1Y1006D02*
X8Y1006D01*
X1646Y1006D02*
X1653Y1006D01*
X1Y1005D02*
X8Y1005D01*
X1646Y1005D02*
X1653Y1005D01*
X1Y1004D02*
X8Y1004D01*
X1646Y1004D02*
X1653Y1004D01*
X1Y1003D02*
X8Y1003D01*
X1646Y1003D02*
X1653Y1003D01*
X1Y1002D02*
X8Y1002D01*
X1646Y1002D02*
X1653Y1002D01*
X1Y1001D02*
X8Y1001D01*
X1646Y1001D02*
X1653Y1001D01*
X1Y1000D02*
X8Y1000D01*
X1646Y1000D02*
X1653Y1000D01*
X1Y999D02*
X8Y999D01*
X1646Y999D02*
X1653Y999D01*
X1Y998D02*
X8Y998D01*
X1646Y998D02*
X1653Y998D01*
X1Y997D02*
X8Y997D01*
X1646Y997D02*
X1653Y997D01*
X1Y996D02*
X8Y996D01*
X1646Y996D02*
X1653Y996D01*
X1Y995D02*
X8Y995D01*
X1646Y995D02*
X1653Y995D01*
X1Y994D02*
X8Y994D01*
X1646Y994D02*
X1653Y994D01*
X1Y993D02*
X8Y993D01*
X1646Y993D02*
X1653Y993D01*
X1Y992D02*
X8Y992D01*
X1646Y992D02*
X1653Y992D01*
X1Y991D02*
X8Y991D01*
X1646Y991D02*
X1653Y991D01*
X1Y990D02*
X8Y990D01*
X1646Y990D02*
X1653Y990D01*
X1Y989D02*
X8Y989D01*
X1646Y989D02*
X1653Y989D01*
X1Y988D02*
X8Y988D01*
X1646Y988D02*
X1653Y988D01*
X1Y987D02*
X8Y987D01*
X1646Y987D02*
X1653Y987D01*
X1Y986D02*
X8Y986D01*
X1646Y986D02*
X1653Y986D01*
X1Y985D02*
X8Y985D01*
X1646Y985D02*
X1653Y985D01*
X1Y984D02*
X8Y984D01*
X1646Y984D02*
X1653Y984D01*
X1Y983D02*
X8Y983D01*
X1646Y983D02*
X1653Y983D01*
X1Y982D02*
X8Y982D01*
X1646Y982D02*
X1653Y982D01*
X1Y981D02*
X8Y981D01*
X1646Y981D02*
X1653Y981D01*
X1Y980D02*
X8Y980D01*
X1646Y980D02*
X1653Y980D01*
X1Y979D02*
X8Y979D01*
X1646Y979D02*
X1653Y979D01*
X1Y978D02*
X8Y978D01*
X1646Y978D02*
X1653Y978D01*
X1Y977D02*
X8Y977D01*
X1646Y977D02*
X1653Y977D01*
X1Y976D02*
X8Y976D01*
X1646Y976D02*
X1653Y976D01*
X1Y975D02*
X8Y975D01*
X1646Y975D02*
X1653Y975D01*
X1Y974D02*
X8Y974D01*
X1646Y974D02*
X1653Y974D01*
X1Y973D02*
X8Y973D01*
X1646Y973D02*
X1653Y973D01*
X1Y972D02*
X8Y972D01*
X1646Y972D02*
X1653Y972D01*
X1Y971D02*
X8Y971D01*
X1646Y971D02*
X1653Y971D01*
X1Y970D02*
X8Y970D01*
X1646Y970D02*
X1653Y970D01*
X1Y969D02*
X8Y969D01*
X1646Y969D02*
X1653Y969D01*
X1Y968D02*
X8Y968D01*
X1646Y968D02*
X1653Y968D01*
X1Y967D02*
X8Y967D01*
X1646Y967D02*
X1653Y967D01*
X1Y966D02*
X8Y966D01*
X1646Y966D02*
X1653Y966D01*
X1Y965D02*
X8Y965D01*
X1646Y965D02*
X1653Y965D01*
X1Y964D02*
X8Y964D01*
X1646Y964D02*
X1653Y964D01*
X1Y963D02*
X8Y963D01*
X1646Y963D02*
X1653Y963D01*
X1Y962D02*
X8Y962D01*
X1646Y962D02*
X1653Y962D01*
X1Y961D02*
X8Y961D01*
X1646Y961D02*
X1653Y961D01*
X1Y960D02*
X8Y960D01*
X1646Y960D02*
X1653Y960D01*
X1Y959D02*
X8Y959D01*
X1646Y959D02*
X1653Y959D01*
X1Y958D02*
X8Y958D01*
X1646Y958D02*
X1653Y958D01*
X1Y957D02*
X8Y957D01*
X1646Y957D02*
X1653Y957D01*
X1Y956D02*
X8Y956D01*
X1646Y956D02*
X1653Y956D01*
X1Y955D02*
X8Y955D01*
X1646Y955D02*
X1653Y955D01*
X1Y954D02*
X8Y954D01*
X1646Y954D02*
X1653Y954D01*
X1Y953D02*
X8Y953D01*
X1646Y953D02*
X1653Y953D01*
X1Y952D02*
X8Y952D01*
X1646Y952D02*
X1653Y952D01*
X1Y951D02*
X8Y951D01*
X1646Y951D02*
X1653Y951D01*
X1Y950D02*
X8Y950D01*
X1646Y950D02*
X1653Y950D01*
X1Y949D02*
X8Y949D01*
X1646Y949D02*
X1653Y949D01*
X1Y948D02*
X8Y948D01*
X1646Y948D02*
X1653Y948D01*
X1Y947D02*
X8Y947D01*
X1646Y947D02*
X1653Y947D01*
X1Y946D02*
X8Y946D01*
X1646Y946D02*
X1653Y946D01*
X1Y945D02*
X8Y945D01*
X1646Y945D02*
X1653Y945D01*
X1Y944D02*
X8Y944D01*
X1646Y944D02*
X1653Y944D01*
X1Y943D02*
X8Y943D01*
X1646Y943D02*
X1653Y943D01*
X1Y942D02*
X8Y942D01*
X1646Y942D02*
X1653Y942D01*
X1Y941D02*
X8Y941D01*
X1646Y941D02*
X1653Y941D01*
X1Y940D02*
X8Y940D01*
X1646Y940D02*
X1653Y940D01*
X1Y939D02*
X8Y939D01*
X1646Y939D02*
X1653Y939D01*
X1Y938D02*
X8Y938D01*
X1646Y938D02*
X1653Y938D01*
X1Y937D02*
X8Y937D01*
X1646Y937D02*
X1653Y937D01*
X1Y936D02*
X8Y936D01*
X1646Y936D02*
X1653Y936D01*
X1Y935D02*
X8Y935D01*
X1646Y935D02*
X1653Y935D01*
X1Y934D02*
X8Y934D01*
X1646Y934D02*
X1653Y934D01*
X1Y933D02*
X8Y933D01*
X1646Y933D02*
X1653Y933D01*
X1Y932D02*
X8Y932D01*
X1646Y932D02*
X1653Y932D01*
X1Y931D02*
X8Y931D01*
X1646Y931D02*
X1653Y931D01*
X1Y930D02*
X8Y930D01*
X1646Y930D02*
X1653Y930D01*
X1Y929D02*
X8Y929D01*
X1646Y929D02*
X1653Y929D01*
X1Y928D02*
X8Y928D01*
X1646Y928D02*
X1653Y928D01*
X1Y927D02*
X8Y927D01*
X1646Y927D02*
X1653Y927D01*
X1Y926D02*
X8Y926D01*
X1646Y926D02*
X1653Y926D01*
X1Y925D02*
X8Y925D01*
X1646Y925D02*
X1653Y925D01*
X1Y924D02*
X8Y924D01*
X1646Y924D02*
X1653Y924D01*
X1Y923D02*
X8Y923D01*
X1646Y923D02*
X1653Y923D01*
X1Y922D02*
X8Y922D01*
X1646Y922D02*
X1653Y922D01*
X1Y921D02*
X8Y921D01*
X1646Y921D02*
X1653Y921D01*
X1Y920D02*
X8Y920D01*
X1646Y920D02*
X1653Y920D01*
X1Y919D02*
X8Y919D01*
X1646Y919D02*
X1653Y919D01*
X1Y918D02*
X8Y918D01*
X1646Y918D02*
X1653Y918D01*
X1Y917D02*
X8Y917D01*
X1646Y917D02*
X1653Y917D01*
X1Y916D02*
X8Y916D01*
X1646Y916D02*
X1653Y916D01*
X1Y915D02*
X8Y915D01*
X1646Y915D02*
X1653Y915D01*
X1Y914D02*
X8Y914D01*
X1646Y914D02*
X1653Y914D01*
X1Y913D02*
X8Y913D01*
X1646Y913D02*
X1653Y913D01*
X1Y912D02*
X8Y912D01*
X1646Y912D02*
X1653Y912D01*
X1Y911D02*
X8Y911D01*
X1646Y911D02*
X1653Y911D01*
X1Y910D02*
X8Y910D01*
X1646Y910D02*
X1653Y910D01*
X1Y909D02*
X8Y909D01*
X1646Y909D02*
X1653Y909D01*
X1Y908D02*
X8Y908D01*
X1646Y908D02*
X1653Y908D01*
X1Y907D02*
X8Y907D01*
X1646Y907D02*
X1653Y907D01*
X1Y906D02*
X8Y906D01*
X1646Y906D02*
X1653Y906D01*
X1Y905D02*
X8Y905D01*
X1646Y905D02*
X1653Y905D01*
X1Y904D02*
X8Y904D01*
X1646Y904D02*
X1653Y904D01*
X1Y903D02*
X8Y903D01*
X1646Y903D02*
X1653Y903D01*
X1Y902D02*
X8Y902D01*
X1646Y902D02*
X1653Y902D01*
X1Y901D02*
X8Y901D01*
X1646Y901D02*
X1653Y901D01*
X1Y900D02*
X8Y900D01*
X1646Y900D02*
X1653Y900D01*
X1Y899D02*
X8Y899D01*
X1646Y899D02*
X1653Y899D01*
X1Y898D02*
X8Y898D01*
X1646Y898D02*
X1653Y898D01*
X1Y897D02*
X8Y897D01*
X1646Y897D02*
X1653Y897D01*
X1Y896D02*
X8Y896D01*
X1646Y896D02*
X1653Y896D01*
X1Y895D02*
X8Y895D01*
X1646Y895D02*
X1653Y895D01*
X1Y894D02*
X8Y894D01*
X1646Y894D02*
X1653Y894D01*
X1Y893D02*
X8Y893D01*
X1646Y893D02*
X1653Y893D01*
X1Y892D02*
X8Y892D01*
X1646Y892D02*
X1653Y892D01*
X1Y891D02*
X8Y891D01*
X1646Y891D02*
X1653Y891D01*
X1Y890D02*
X8Y890D01*
X1646Y890D02*
X1653Y890D01*
X1Y889D02*
X8Y889D01*
X1646Y889D02*
X1653Y889D01*
X1Y888D02*
X8Y888D01*
X1646Y888D02*
X1653Y888D01*
X1Y887D02*
X8Y887D01*
X1646Y887D02*
X1653Y887D01*
X1Y886D02*
X8Y886D01*
X1646Y886D02*
X1653Y886D01*
X1Y885D02*
X8Y885D01*
X1646Y885D02*
X1653Y885D01*
X1Y884D02*
X8Y884D01*
X1646Y884D02*
X1653Y884D01*
X1Y883D02*
X8Y883D01*
X1646Y883D02*
X1653Y883D01*
X1Y882D02*
X8Y882D01*
X1646Y882D02*
X1653Y882D01*
X1Y881D02*
X8Y881D01*
X1646Y881D02*
X1653Y881D01*
X1Y880D02*
X8Y880D01*
X1646Y880D02*
X1653Y880D01*
X1Y879D02*
X8Y879D01*
X1646Y879D02*
X1653Y879D01*
X1Y878D02*
X8Y878D01*
X1646Y878D02*
X1653Y878D01*
X1Y877D02*
X8Y877D01*
X1646Y877D02*
X1653Y877D01*
X1Y876D02*
X8Y876D01*
X1646Y876D02*
X1653Y876D01*
X1Y875D02*
X8Y875D01*
X1646Y875D02*
X1653Y875D01*
X1Y874D02*
X8Y874D01*
X1646Y874D02*
X1653Y874D01*
X1Y873D02*
X8Y873D01*
X1646Y873D02*
X1653Y873D01*
X1Y872D02*
X8Y872D01*
X1646Y872D02*
X1653Y872D01*
X1Y871D02*
X8Y871D01*
X1646Y871D02*
X1653Y871D01*
X1Y870D02*
X8Y870D01*
X1646Y870D02*
X1653Y870D01*
X1Y869D02*
X8Y869D01*
X1646Y869D02*
X1653Y869D01*
X1Y868D02*
X8Y868D01*
X1646Y868D02*
X1653Y868D01*
X1Y867D02*
X8Y867D01*
X1646Y867D02*
X1653Y867D01*
X1Y866D02*
X8Y866D01*
X1646Y866D02*
X1653Y866D01*
X1Y865D02*
X8Y865D01*
X1646Y865D02*
X1653Y865D01*
X1Y864D02*
X8Y864D01*
X1646Y864D02*
X1653Y864D01*
X1Y863D02*
X8Y863D01*
X1646Y863D02*
X1653Y863D01*
X1Y862D02*
X8Y862D01*
X1646Y862D02*
X1653Y862D01*
X1Y861D02*
X8Y861D01*
X1646Y861D02*
X1653Y861D01*
X1Y860D02*
X8Y860D01*
X1646Y860D02*
X1653Y860D01*
X1Y859D02*
X8Y859D01*
X1646Y859D02*
X1653Y859D01*
X1Y858D02*
X8Y858D01*
X1646Y858D02*
X1653Y858D01*
X1Y857D02*
X8Y857D01*
X1646Y857D02*
X1653Y857D01*
X1Y856D02*
X8Y856D01*
X1646Y856D02*
X1653Y856D01*
X1Y855D02*
X8Y855D01*
X1646Y855D02*
X1653Y855D01*
X1Y854D02*
X8Y854D01*
X1646Y854D02*
X1653Y854D01*
X1Y853D02*
X8Y853D01*
X1646Y853D02*
X1653Y853D01*
X1Y852D02*
X8Y852D01*
X1646Y852D02*
X1653Y852D01*
X1Y851D02*
X8Y851D01*
X1646Y851D02*
X1653Y851D01*
X1Y850D02*
X8Y850D01*
X1646Y850D02*
X1653Y850D01*
X1Y849D02*
X8Y849D01*
X1646Y849D02*
X1653Y849D01*
X1Y848D02*
X8Y848D01*
X1646Y848D02*
X1653Y848D01*
X1Y847D02*
X8Y847D01*
X1646Y847D02*
X1653Y847D01*
X1Y846D02*
X8Y846D01*
X1646Y846D02*
X1653Y846D01*
X1Y845D02*
X8Y845D01*
X1646Y845D02*
X1653Y845D01*
X1Y844D02*
X8Y844D01*
X1646Y844D02*
X1653Y844D01*
X1Y843D02*
X8Y843D01*
X1646Y843D02*
X1653Y843D01*
X1Y842D02*
X8Y842D01*
X1646Y842D02*
X1653Y842D01*
X1Y841D02*
X8Y841D01*
X1646Y841D02*
X1653Y841D01*
X1Y840D02*
X8Y840D01*
X1646Y840D02*
X1653Y840D01*
X1Y839D02*
X8Y839D01*
X1646Y839D02*
X1653Y839D01*
X1Y838D02*
X8Y838D01*
X1646Y838D02*
X1653Y838D01*
X1Y837D02*
X8Y837D01*
X1646Y837D02*
X1653Y837D01*
X1Y836D02*
X8Y836D01*
X1646Y836D02*
X1653Y836D01*
X1Y835D02*
X8Y835D01*
X1646Y835D02*
X1653Y835D01*
X1Y834D02*
X8Y834D01*
X1646Y834D02*
X1653Y834D01*
X1Y833D02*
X8Y833D01*
X1646Y833D02*
X1653Y833D01*
X1Y832D02*
X8Y832D01*
X1646Y832D02*
X1653Y832D01*
X1Y831D02*
X8Y831D01*
X1646Y831D02*
X1653Y831D01*
X1Y830D02*
X8Y830D01*
X1646Y830D02*
X1653Y830D01*
X1Y829D02*
X8Y829D01*
X1646Y829D02*
X1653Y829D01*
X1Y828D02*
X8Y828D01*
X1646Y828D02*
X1653Y828D01*
X1Y827D02*
X8Y827D01*
X1646Y827D02*
X1653Y827D01*
X1Y826D02*
X8Y826D01*
X1646Y826D02*
X1653Y826D01*
X1Y825D02*
X8Y825D01*
X1646Y825D02*
X1653Y825D01*
X1Y824D02*
X8Y824D01*
X1646Y824D02*
X1653Y824D01*
X1Y823D02*
X8Y823D01*
X1646Y823D02*
X1653Y823D01*
X1Y822D02*
X8Y822D01*
X1646Y822D02*
X1653Y822D01*
X1Y821D02*
X8Y821D01*
X1646Y821D02*
X1653Y821D01*
X1Y820D02*
X8Y820D01*
X1646Y820D02*
X1653Y820D01*
X1Y819D02*
X8Y819D01*
X1646Y819D02*
X1653Y819D01*
X1Y818D02*
X8Y818D01*
X1646Y818D02*
X1653Y818D01*
X1Y817D02*
X8Y817D01*
X1646Y817D02*
X1653Y817D01*
X1Y816D02*
X8Y816D01*
X1646Y816D02*
X1653Y816D01*
X1Y815D02*
X8Y815D01*
X1646Y815D02*
X1653Y815D01*
X1Y814D02*
X8Y814D01*
X1646Y814D02*
X1653Y814D01*
X1Y813D02*
X8Y813D01*
X1646Y813D02*
X1653Y813D01*
X1Y812D02*
X8Y812D01*
X1646Y812D02*
X1653Y812D01*
X1Y811D02*
X8Y811D01*
X1646Y811D02*
X1653Y811D01*
X1Y810D02*
X8Y810D01*
X1646Y810D02*
X1653Y810D01*
X1Y809D02*
X8Y809D01*
X1646Y809D02*
X1653Y809D01*
X1Y808D02*
X8Y808D01*
X1646Y808D02*
X1653Y808D01*
X1Y807D02*
X8Y807D01*
X1646Y807D02*
X1653Y807D01*
X1Y806D02*
X8Y806D01*
X1646Y806D02*
X1653Y806D01*
X1Y805D02*
X8Y805D01*
X1646Y805D02*
X1653Y805D01*
X1Y804D02*
X8Y804D01*
X1646Y804D02*
X1653Y804D01*
X1Y803D02*
X8Y803D01*
X1646Y803D02*
X1653Y803D01*
X1Y802D02*
X8Y802D01*
X1646Y802D02*
X1653Y802D01*
X1Y801D02*
X8Y801D01*
X1646Y801D02*
X1653Y801D01*
X1Y800D02*
X8Y800D01*
X1646Y800D02*
X1653Y800D01*
X1Y799D02*
X8Y799D01*
X1646Y799D02*
X1653Y799D01*
X1Y798D02*
X8Y798D01*
X1646Y798D02*
X1653Y798D01*
X1Y797D02*
X8Y797D01*
X1646Y797D02*
X1653Y797D01*
X1Y796D02*
X8Y796D01*
X1646Y796D02*
X1653Y796D01*
X1Y795D02*
X8Y795D01*
X1646Y795D02*
X1653Y795D01*
X1Y794D02*
X8Y794D01*
X1646Y794D02*
X1653Y794D01*
X1Y793D02*
X8Y793D01*
X1646Y793D02*
X1653Y793D01*
X1Y792D02*
X8Y792D01*
X1646Y792D02*
X1653Y792D01*
X1Y791D02*
X8Y791D01*
X1646Y791D02*
X1653Y791D01*
X1Y790D02*
X8Y790D01*
X1646Y790D02*
X1653Y790D01*
X1Y789D02*
X8Y789D01*
X1646Y789D02*
X1653Y789D01*
X1Y788D02*
X8Y788D01*
X1646Y788D02*
X1653Y788D01*
X1Y787D02*
X8Y787D01*
X1646Y787D02*
X1653Y787D01*
X1Y786D02*
X8Y786D01*
X1646Y786D02*
X1653Y786D01*
X1Y785D02*
X8Y785D01*
X1646Y785D02*
X1653Y785D01*
X1Y784D02*
X8Y784D01*
X1646Y784D02*
X1653Y784D01*
X1Y783D02*
X8Y783D01*
X1646Y783D02*
X1653Y783D01*
X1Y782D02*
X8Y782D01*
X1646Y782D02*
X1653Y782D01*
X1Y781D02*
X8Y781D01*
X1646Y781D02*
X1653Y781D01*
X1Y780D02*
X8Y780D01*
X1646Y780D02*
X1653Y780D01*
X1Y779D02*
X8Y779D01*
X1646Y779D02*
X1653Y779D01*
X1Y778D02*
X8Y778D01*
X1646Y778D02*
X1653Y778D01*
X1Y777D02*
X8Y777D01*
X1646Y777D02*
X1653Y777D01*
X1Y776D02*
X8Y776D01*
X1646Y776D02*
X1653Y776D01*
X1Y775D02*
X8Y775D01*
X1646Y775D02*
X1653Y775D01*
X1Y774D02*
X8Y774D01*
X1646Y774D02*
X1653Y774D01*
X1Y773D02*
X8Y773D01*
X1646Y773D02*
X1653Y773D01*
X1Y772D02*
X8Y772D01*
X1646Y772D02*
X1653Y772D01*
X1Y771D02*
X8Y771D01*
X1646Y771D02*
X1653Y771D01*
X1Y770D02*
X8Y770D01*
X1646Y770D02*
X1653Y770D01*
X1Y769D02*
X8Y769D01*
X1646Y769D02*
X1653Y769D01*
X1Y768D02*
X8Y768D01*
X1646Y768D02*
X1653Y768D01*
X1Y767D02*
X8Y767D01*
X1646Y767D02*
X1653Y767D01*
X1Y766D02*
X8Y766D01*
X1646Y766D02*
X1653Y766D01*
X1Y765D02*
X8Y765D01*
X1646Y765D02*
X1653Y765D01*
X1Y764D02*
X8Y764D01*
X1646Y764D02*
X1653Y764D01*
X1Y763D02*
X8Y763D01*
X1646Y763D02*
X1653Y763D01*
X1Y762D02*
X8Y762D01*
X1646Y762D02*
X1653Y762D01*
X1Y761D02*
X8Y761D01*
X1646Y761D02*
X1653Y761D01*
X1Y760D02*
X8Y760D01*
X1646Y760D02*
X1653Y760D01*
X1Y759D02*
X8Y759D01*
X1646Y759D02*
X1653Y759D01*
X1Y758D02*
X8Y758D01*
X1646Y758D02*
X1653Y758D01*
X1Y757D02*
X8Y757D01*
X1646Y757D02*
X1653Y757D01*
X1Y756D02*
X8Y756D01*
X1646Y756D02*
X1653Y756D01*
X1Y755D02*
X8Y755D01*
X1646Y755D02*
X1653Y755D01*
X1Y754D02*
X8Y754D01*
X1646Y754D02*
X1653Y754D01*
X1Y753D02*
X8Y753D01*
X1646Y753D02*
X1653Y753D01*
X1Y752D02*
X8Y752D01*
X1646Y752D02*
X1653Y752D01*
X1Y751D02*
X8Y751D01*
X1646Y751D02*
X1653Y751D01*
X1Y750D02*
X8Y750D01*
X1646Y750D02*
X1653Y750D01*
X1Y749D02*
X8Y749D01*
X1646Y749D02*
X1653Y749D01*
X1Y748D02*
X8Y748D01*
X1646Y748D02*
X1653Y748D01*
X1Y747D02*
X8Y747D01*
X1646Y747D02*
X1653Y747D01*
X1Y746D02*
X8Y746D01*
X1646Y746D02*
X1653Y746D01*
X1Y745D02*
X8Y745D01*
X1646Y745D02*
X1653Y745D01*
X1Y744D02*
X8Y744D01*
X1646Y744D02*
X1653Y744D01*
X1Y743D02*
X8Y743D01*
X1646Y743D02*
X1653Y743D01*
X1Y742D02*
X8Y742D01*
X1646Y742D02*
X1653Y742D01*
X1Y741D02*
X8Y741D01*
X1646Y741D02*
X1653Y741D01*
X1Y740D02*
X8Y740D01*
X1646Y740D02*
X1653Y740D01*
X1Y739D02*
X8Y739D01*
X1646Y739D02*
X1653Y739D01*
X1Y738D02*
X8Y738D01*
X1646Y738D02*
X1653Y738D01*
X1Y737D02*
X8Y737D01*
X1646Y737D02*
X1653Y737D01*
X1Y736D02*
X8Y736D01*
X1646Y736D02*
X1653Y736D01*
X1Y735D02*
X8Y735D01*
X1646Y735D02*
X1653Y735D01*
X1Y734D02*
X8Y734D01*
X1646Y734D02*
X1653Y734D01*
X1Y733D02*
X8Y733D01*
X1646Y733D02*
X1653Y733D01*
X1Y732D02*
X8Y732D01*
X1646Y732D02*
X1653Y732D01*
X1Y731D02*
X8Y731D01*
X1646Y731D02*
X1653Y731D01*
X1Y730D02*
X8Y730D01*
X1646Y730D02*
X1653Y730D01*
X1Y729D02*
X8Y729D01*
X1646Y729D02*
X1653Y729D01*
X1Y728D02*
X8Y728D01*
X1646Y728D02*
X1653Y728D01*
X1Y727D02*
X8Y727D01*
X1646Y727D02*
X1653Y727D01*
X1Y726D02*
X8Y726D01*
X1646Y726D02*
X1653Y726D01*
X1Y725D02*
X8Y725D01*
X1646Y725D02*
X1653Y725D01*
X1Y724D02*
X8Y724D01*
X1646Y724D02*
X1653Y724D01*
X1Y723D02*
X8Y723D01*
X1646Y723D02*
X1653Y723D01*
X1Y722D02*
X8Y722D01*
X1646Y722D02*
X1653Y722D01*
X1Y721D02*
X8Y721D01*
X1646Y721D02*
X1653Y721D01*
X1Y720D02*
X8Y720D01*
X1646Y720D02*
X1653Y720D01*
X1Y719D02*
X8Y719D01*
X1646Y719D02*
X1653Y719D01*
X1Y718D02*
X8Y718D01*
X1646Y718D02*
X1653Y718D01*
X1Y717D02*
X8Y717D01*
X1646Y717D02*
X1653Y717D01*
X1Y716D02*
X8Y716D01*
X1646Y716D02*
X1653Y716D01*
X1Y715D02*
X8Y715D01*
X1646Y715D02*
X1653Y715D01*
X1Y714D02*
X8Y714D01*
X1646Y714D02*
X1653Y714D01*
X1Y713D02*
X8Y713D01*
X1646Y713D02*
X1653Y713D01*
X1Y712D02*
X8Y712D01*
X1646Y712D02*
X1653Y712D01*
X1Y711D02*
X8Y711D01*
X1646Y711D02*
X1653Y711D01*
X1Y710D02*
X8Y710D01*
X1646Y710D02*
X1653Y710D01*
X1Y709D02*
X8Y709D01*
X1646Y709D02*
X1653Y709D01*
X1Y708D02*
X8Y708D01*
X1646Y708D02*
X1653Y708D01*
X1Y707D02*
X8Y707D01*
X1646Y707D02*
X1653Y707D01*
X1Y706D02*
X8Y706D01*
X1646Y706D02*
X1653Y706D01*
X1Y705D02*
X8Y705D01*
X1646Y705D02*
X1653Y705D01*
X1Y704D02*
X8Y704D01*
X1646Y704D02*
X1653Y704D01*
X1Y703D02*
X8Y703D01*
X1646Y703D02*
X1653Y703D01*
X1Y702D02*
X8Y702D01*
X1646Y702D02*
X1653Y702D01*
X1Y701D02*
X8Y701D01*
X1646Y701D02*
X1653Y701D01*
X1Y700D02*
X8Y700D01*
X1646Y700D02*
X1653Y700D01*
X1Y699D02*
X8Y699D01*
X1646Y699D02*
X1653Y699D01*
X1Y698D02*
X8Y698D01*
X1646Y698D02*
X1653Y698D01*
X1Y697D02*
X8Y697D01*
X1646Y697D02*
X1653Y697D01*
X1Y696D02*
X8Y696D01*
X1646Y696D02*
X1653Y696D01*
X1Y695D02*
X8Y695D01*
X1646Y695D02*
X1653Y695D01*
X1Y694D02*
X8Y694D01*
X1646Y694D02*
X1653Y694D01*
X1Y693D02*
X8Y693D01*
X1646Y693D02*
X1653Y693D01*
X1Y692D02*
X8Y692D01*
X1646Y692D02*
X1653Y692D01*
X1Y691D02*
X8Y691D01*
X1646Y691D02*
X1653Y691D01*
X1Y690D02*
X8Y690D01*
X1646Y690D02*
X1653Y690D01*
X1Y689D02*
X8Y689D01*
X1646Y689D02*
X1653Y689D01*
X1Y688D02*
X8Y688D01*
X1646Y688D02*
X1653Y688D01*
X1Y687D02*
X8Y687D01*
X1646Y687D02*
X1653Y687D01*
X1Y686D02*
X8Y686D01*
X1646Y686D02*
X1653Y686D01*
X1Y685D02*
X8Y685D01*
X1646Y685D02*
X1653Y685D01*
X1Y684D02*
X8Y684D01*
X1646Y684D02*
X1653Y684D01*
X1Y683D02*
X8Y683D01*
X1646Y683D02*
X1653Y683D01*
X1Y682D02*
X8Y682D01*
X1646Y682D02*
X1653Y682D01*
X1Y681D02*
X8Y681D01*
X1646Y681D02*
X1653Y681D01*
X1Y680D02*
X8Y680D01*
X1646Y680D02*
X1653Y680D01*
X1Y679D02*
X8Y679D01*
X1646Y679D02*
X1653Y679D01*
X1Y678D02*
X8Y678D01*
X1646Y678D02*
X1653Y678D01*
X1Y677D02*
X8Y677D01*
X1646Y677D02*
X1653Y677D01*
X1Y676D02*
X8Y676D01*
X1646Y676D02*
X1653Y676D01*
X1Y675D02*
X8Y675D01*
X1646Y675D02*
X1653Y675D01*
X1Y674D02*
X8Y674D01*
X1646Y674D02*
X1653Y674D01*
X1Y673D02*
X8Y673D01*
X1646Y673D02*
X1653Y673D01*
X1Y672D02*
X8Y672D01*
X1646Y672D02*
X1653Y672D01*
X1Y671D02*
X8Y671D01*
X1646Y671D02*
X1653Y671D01*
X1Y670D02*
X8Y670D01*
X1646Y670D02*
X1653Y670D01*
X1Y669D02*
X8Y669D01*
X1646Y669D02*
X1653Y669D01*
X1Y668D02*
X8Y668D01*
X1646Y668D02*
X1653Y668D01*
X1Y667D02*
X8Y667D01*
X1646Y667D02*
X1653Y667D01*
X1Y666D02*
X8Y666D01*
X1646Y666D02*
X1653Y666D01*
X1Y665D02*
X8Y665D01*
X1646Y665D02*
X1653Y665D01*
X1Y664D02*
X8Y664D01*
X1646Y664D02*
X1653Y664D01*
X1Y663D02*
X8Y663D01*
X1646Y663D02*
X1653Y663D01*
X1Y662D02*
X8Y662D01*
X1646Y662D02*
X1653Y662D01*
X1Y661D02*
X8Y661D01*
X1646Y661D02*
X1653Y661D01*
X1Y660D02*
X8Y660D01*
X1646Y660D02*
X1653Y660D01*
X1Y659D02*
X8Y659D01*
X1646Y659D02*
X1653Y659D01*
X1Y658D02*
X8Y658D01*
X1646Y658D02*
X1653Y658D01*
X1Y657D02*
X8Y657D01*
X1646Y657D02*
X1653Y657D01*
X1Y656D02*
X8Y656D01*
X1646Y656D02*
X1653Y656D01*
X1Y655D02*
X8Y655D01*
X1646Y655D02*
X1653Y655D01*
X1Y654D02*
X8Y654D01*
X1646Y654D02*
X1653Y654D01*
X1Y653D02*
X8Y653D01*
X1646Y653D02*
X1653Y653D01*
X1Y652D02*
X8Y652D01*
X1646Y652D02*
X1653Y652D01*
X1Y651D02*
X8Y651D01*
X1646Y651D02*
X1653Y651D01*
X1Y650D02*
X8Y650D01*
X1646Y650D02*
X1653Y650D01*
X1Y649D02*
X8Y649D01*
X1646Y649D02*
X1653Y649D01*
X1Y648D02*
X8Y648D01*
X1646Y648D02*
X1653Y648D01*
X1Y647D02*
X8Y647D01*
X1646Y647D02*
X1653Y647D01*
X1Y646D02*
X8Y646D01*
X1646Y646D02*
X1653Y646D01*
X1Y645D02*
X8Y645D01*
X1646Y645D02*
X1653Y645D01*
X1Y644D02*
X8Y644D01*
X1646Y644D02*
X1653Y644D01*
X1Y643D02*
X8Y643D01*
X1646Y643D02*
X1653Y643D01*
X1Y642D02*
X8Y642D01*
X1646Y642D02*
X1653Y642D01*
X1Y641D02*
X8Y641D01*
X1646Y641D02*
X1653Y641D01*
X1Y640D02*
X8Y640D01*
X1646Y640D02*
X1653Y640D01*
X1Y639D02*
X8Y639D01*
X1646Y639D02*
X1653Y639D01*
X1Y638D02*
X8Y638D01*
X1646Y638D02*
X1653Y638D01*
X1Y637D02*
X8Y637D01*
X1646Y637D02*
X1653Y637D01*
X1Y636D02*
X8Y636D01*
X1646Y636D02*
X1653Y636D01*
X1Y635D02*
X8Y635D01*
X1646Y635D02*
X1653Y635D01*
X1Y634D02*
X8Y634D01*
X1646Y634D02*
X1653Y634D01*
X1Y633D02*
X8Y633D01*
X1646Y633D02*
X1653Y633D01*
X1Y632D02*
X8Y632D01*
X1646Y632D02*
X1653Y632D01*
X1Y631D02*
X8Y631D01*
X1646Y631D02*
X1653Y631D01*
X1Y630D02*
X8Y630D01*
X1646Y630D02*
X1653Y630D01*
X1Y629D02*
X8Y629D01*
X1646Y629D02*
X1653Y629D01*
X1Y628D02*
X8Y628D01*
X1646Y628D02*
X1653Y628D01*
X1Y627D02*
X8Y627D01*
X1646Y627D02*
X1653Y627D01*
X1Y626D02*
X8Y626D01*
X1646Y626D02*
X1653Y626D01*
X1Y625D02*
X8Y625D01*
X1646Y625D02*
X1653Y625D01*
X1Y624D02*
X8Y624D01*
X1646Y624D02*
X1653Y624D01*
X1Y623D02*
X8Y623D01*
X1646Y623D02*
X1653Y623D01*
X1Y622D02*
X8Y622D01*
X1646Y622D02*
X1653Y622D01*
X1Y621D02*
X8Y621D01*
X1646Y621D02*
X1653Y621D01*
X1Y620D02*
X8Y620D01*
X1646Y620D02*
X1653Y620D01*
X1Y619D02*
X8Y619D01*
X1646Y619D02*
X1653Y619D01*
X1Y618D02*
X8Y618D01*
X1646Y618D02*
X1653Y618D01*
X1Y617D02*
X8Y617D01*
X1646Y617D02*
X1653Y617D01*
X1Y616D02*
X8Y616D01*
X1646Y616D02*
X1653Y616D01*
X1Y615D02*
X8Y615D01*
X1646Y615D02*
X1653Y615D01*
X1Y614D02*
X8Y614D01*
X1646Y614D02*
X1653Y614D01*
X1Y613D02*
X8Y613D01*
X1646Y613D02*
X1653Y613D01*
X1Y612D02*
X8Y612D01*
X1646Y612D02*
X1653Y612D01*
X1Y611D02*
X8Y611D01*
X1646Y611D02*
X1653Y611D01*
X1Y610D02*
X8Y610D01*
X1646Y610D02*
X1653Y610D01*
X1Y609D02*
X8Y609D01*
X1646Y609D02*
X1653Y609D01*
X1Y608D02*
X8Y608D01*
X1646Y608D02*
X1653Y608D01*
X1Y607D02*
X8Y607D01*
X1646Y607D02*
X1653Y607D01*
X1Y606D02*
X8Y606D01*
X1646Y606D02*
X1653Y606D01*
X1Y605D02*
X8Y605D01*
X1646Y605D02*
X1653Y605D01*
X1Y604D02*
X8Y604D01*
X1646Y604D02*
X1653Y604D01*
X1Y603D02*
X8Y603D01*
X1646Y603D02*
X1653Y603D01*
X1Y602D02*
X8Y602D01*
X1646Y602D02*
X1653Y602D01*
X1Y601D02*
X8Y601D01*
X1646Y601D02*
X1653Y601D01*
X1Y600D02*
X8Y600D01*
X1646Y600D02*
X1653Y600D01*
X1Y599D02*
X8Y599D01*
X1646Y599D02*
X1653Y599D01*
X1Y598D02*
X8Y598D01*
X1646Y598D02*
X1653Y598D01*
X1Y597D02*
X8Y597D01*
X1646Y597D02*
X1653Y597D01*
X1Y596D02*
X8Y596D01*
X1646Y596D02*
X1653Y596D01*
X1Y595D02*
X8Y595D01*
X1646Y595D02*
X1653Y595D01*
X1Y594D02*
X8Y594D01*
X1646Y594D02*
X1653Y594D01*
X1Y593D02*
X8Y593D01*
X1646Y593D02*
X1653Y593D01*
X1Y592D02*
X8Y592D01*
X1646Y592D02*
X1653Y592D01*
X1Y591D02*
X8Y591D01*
X1646Y591D02*
X1653Y591D01*
X1Y590D02*
X8Y590D01*
X1646Y590D02*
X1653Y590D01*
X1Y589D02*
X8Y589D01*
X1646Y589D02*
X1653Y589D01*
X1Y588D02*
X8Y588D01*
X1646Y588D02*
X1653Y588D01*
X1Y587D02*
X8Y587D01*
X1646Y587D02*
X1653Y587D01*
X1Y586D02*
X8Y586D01*
X1646Y586D02*
X1653Y586D01*
X1Y585D02*
X8Y585D01*
X1646Y585D02*
X1653Y585D01*
X1Y584D02*
X8Y584D01*
X1646Y584D02*
X1653Y584D01*
X1Y583D02*
X8Y583D01*
X1646Y583D02*
X1653Y583D01*
X1Y582D02*
X8Y582D01*
X1646Y582D02*
X1653Y582D01*
X1Y581D02*
X8Y581D01*
X1646Y581D02*
X1653Y581D01*
X1Y580D02*
X8Y580D01*
X1646Y580D02*
X1653Y580D01*
X1Y579D02*
X8Y579D01*
X1646Y579D02*
X1653Y579D01*
X1Y578D02*
X8Y578D01*
X1646Y578D02*
X1653Y578D01*
X1Y577D02*
X8Y577D01*
X1646Y577D02*
X1653Y577D01*
X1Y576D02*
X8Y576D01*
X1646Y576D02*
X1653Y576D01*
X1Y575D02*
X8Y575D01*
X1646Y575D02*
X1653Y575D01*
X1Y574D02*
X8Y574D01*
X1646Y574D02*
X1653Y574D01*
X1Y573D02*
X8Y573D01*
X1646Y573D02*
X1653Y573D01*
X1Y572D02*
X8Y572D01*
X1646Y572D02*
X1653Y572D01*
X1Y571D02*
X8Y571D01*
X1646Y571D02*
X1653Y571D01*
X1Y570D02*
X8Y570D01*
X1646Y570D02*
X1653Y570D01*
X1Y569D02*
X8Y569D01*
X1646Y569D02*
X1653Y569D01*
X1Y568D02*
X8Y568D01*
X1646Y568D02*
X1653Y568D01*
X1Y567D02*
X8Y567D01*
X1646Y567D02*
X1653Y567D01*
X1Y566D02*
X8Y566D01*
X1646Y566D02*
X1653Y566D01*
X1Y565D02*
X8Y565D01*
X1646Y565D02*
X1653Y565D01*
X1Y564D02*
X8Y564D01*
X1646Y564D02*
X1653Y564D01*
X1Y563D02*
X8Y563D01*
X1646Y563D02*
X1653Y563D01*
X1Y562D02*
X8Y562D01*
X1646Y562D02*
X1653Y562D01*
X1Y561D02*
X8Y561D01*
X1646Y561D02*
X1653Y561D01*
X1Y560D02*
X8Y560D01*
X1646Y560D02*
X1653Y560D01*
X1Y559D02*
X8Y559D01*
X1646Y559D02*
X1653Y559D01*
X1Y558D02*
X8Y558D01*
X1646Y558D02*
X1653Y558D01*
X1Y557D02*
X8Y557D01*
X1646Y557D02*
X1653Y557D01*
X1Y556D02*
X8Y556D01*
X1646Y556D02*
X1653Y556D01*
X1Y555D02*
X8Y555D01*
X1646Y555D02*
X1653Y555D01*
X1Y554D02*
X8Y554D01*
X1646Y554D02*
X1653Y554D01*
X1Y553D02*
X8Y553D01*
X1646Y553D02*
X1653Y553D01*
X1Y552D02*
X8Y552D01*
X1646Y552D02*
X1653Y552D01*
X1Y551D02*
X8Y551D01*
X1646Y551D02*
X1653Y551D01*
X1Y550D02*
X8Y550D01*
X1646Y550D02*
X1653Y550D01*
X1Y549D02*
X8Y549D01*
X1646Y549D02*
X1653Y549D01*
X1Y548D02*
X8Y548D01*
X1646Y548D02*
X1653Y548D01*
X1Y547D02*
X8Y547D01*
X1646Y547D02*
X1653Y547D01*
X1Y546D02*
X8Y546D01*
X1646Y546D02*
X1653Y546D01*
X1Y545D02*
X8Y545D01*
X1646Y545D02*
X1653Y545D01*
X1Y544D02*
X8Y544D01*
X1646Y544D02*
X1653Y544D01*
X1Y543D02*
X8Y543D01*
X1646Y543D02*
X1653Y543D01*
X1Y542D02*
X8Y542D01*
X1646Y542D02*
X1653Y542D01*
X1Y541D02*
X8Y541D01*
X1646Y541D02*
X1653Y541D01*
X1Y540D02*
X8Y540D01*
X1646Y540D02*
X1653Y540D01*
X1Y539D02*
X8Y539D01*
X1646Y539D02*
X1653Y539D01*
X1Y538D02*
X8Y538D01*
X1646Y538D02*
X1653Y538D01*
X1Y537D02*
X8Y537D01*
X1646Y537D02*
X1653Y537D01*
X1Y536D02*
X8Y536D01*
X1646Y536D02*
X1653Y536D01*
X1Y535D02*
X8Y535D01*
X1646Y535D02*
X1653Y535D01*
X1Y534D02*
X8Y534D01*
X1646Y534D02*
X1653Y534D01*
X1Y533D02*
X8Y533D01*
X1646Y533D02*
X1653Y533D01*
X1Y532D02*
X8Y532D01*
X1646Y532D02*
X1653Y532D01*
X1Y531D02*
X8Y531D01*
X1646Y531D02*
X1653Y531D01*
X1Y530D02*
X8Y530D01*
X1646Y530D02*
X1653Y530D01*
X1Y529D02*
X8Y529D01*
X1646Y529D02*
X1653Y529D01*
X1Y528D02*
X8Y528D01*
X1646Y528D02*
X1653Y528D01*
X1Y527D02*
X8Y527D01*
X1646Y527D02*
X1653Y527D01*
X1Y526D02*
X8Y526D01*
X1646Y526D02*
X1653Y526D01*
X1Y525D02*
X8Y525D01*
X1646Y525D02*
X1653Y525D01*
X1Y524D02*
X8Y524D01*
X1646Y524D02*
X1653Y524D01*
X1Y523D02*
X8Y523D01*
X1646Y523D02*
X1653Y523D01*
X1Y522D02*
X8Y522D01*
X1646Y522D02*
X1653Y522D01*
X1Y521D02*
X8Y521D01*
X1646Y521D02*
X1653Y521D01*
X1Y520D02*
X8Y520D01*
X1646Y520D02*
X1653Y520D01*
X1Y519D02*
X8Y519D01*
X1646Y519D02*
X1653Y519D01*
X1Y518D02*
X8Y518D01*
X1646Y518D02*
X1653Y518D01*
X1Y517D02*
X8Y517D01*
X1646Y517D02*
X1653Y517D01*
X1Y516D02*
X8Y516D01*
X1646Y516D02*
X1653Y516D01*
X1Y515D02*
X8Y515D01*
X1646Y515D02*
X1653Y515D01*
X1Y514D02*
X8Y514D01*
X1646Y514D02*
X1653Y514D01*
X1Y513D02*
X8Y513D01*
X1646Y513D02*
X1653Y513D01*
X1Y512D02*
X8Y512D01*
X1646Y512D02*
X1653Y512D01*
X1Y511D02*
X8Y511D01*
X1646Y511D02*
X1653Y511D01*
X1Y510D02*
X8Y510D01*
X1646Y510D02*
X1653Y510D01*
X1Y509D02*
X8Y509D01*
X1646Y509D02*
X1653Y509D01*
X1Y508D02*
X8Y508D01*
X1646Y508D02*
X1653Y508D01*
X1Y507D02*
X8Y507D01*
X1646Y507D02*
X1653Y507D01*
X1Y506D02*
X8Y506D01*
X1646Y506D02*
X1653Y506D01*
X1Y505D02*
X8Y505D01*
X1646Y505D02*
X1653Y505D01*
X1Y504D02*
X8Y504D01*
X1646Y504D02*
X1653Y504D01*
X1Y503D02*
X8Y503D01*
X1646Y503D02*
X1653Y503D01*
X1Y502D02*
X8Y502D01*
X1646Y502D02*
X1653Y502D01*
X1Y501D02*
X8Y501D01*
X1646Y501D02*
X1653Y501D01*
X1Y500D02*
X8Y500D01*
X1646Y500D02*
X1653Y500D01*
X1Y499D02*
X8Y499D01*
X1646Y499D02*
X1653Y499D01*
X1Y498D02*
X8Y498D01*
X1646Y498D02*
X1653Y498D01*
X1Y497D02*
X8Y497D01*
X1646Y497D02*
X1653Y497D01*
X1Y496D02*
X8Y496D01*
X1646Y496D02*
X1653Y496D01*
X1Y495D02*
X8Y495D01*
X1646Y495D02*
X1653Y495D01*
X1Y494D02*
X8Y494D01*
X1646Y494D02*
X1653Y494D01*
X1Y493D02*
X8Y493D01*
X1646Y493D02*
X1653Y493D01*
X1Y492D02*
X8Y492D01*
X1646Y492D02*
X1653Y492D01*
X1Y491D02*
X8Y491D01*
X1646Y491D02*
X1653Y491D01*
X1Y490D02*
X8Y490D01*
X1646Y490D02*
X1653Y490D01*
X1Y489D02*
X8Y489D01*
X1646Y489D02*
X1653Y489D01*
X1Y488D02*
X8Y488D01*
X1646Y488D02*
X1653Y488D01*
X1Y487D02*
X8Y487D01*
X1646Y487D02*
X1653Y487D01*
X1Y486D02*
X8Y486D01*
X1646Y486D02*
X1653Y486D01*
X1Y485D02*
X8Y485D01*
X1646Y485D02*
X1653Y485D01*
X1Y484D02*
X8Y484D01*
X1646Y484D02*
X1653Y484D01*
X1Y483D02*
X8Y483D01*
X1646Y483D02*
X1653Y483D01*
X1Y482D02*
X8Y482D01*
X1646Y482D02*
X1653Y482D01*
X1Y481D02*
X8Y481D01*
X1646Y481D02*
X1653Y481D01*
X1Y480D02*
X8Y480D01*
X1646Y480D02*
X1653Y480D01*
X1Y479D02*
X8Y479D01*
X1646Y479D02*
X1653Y479D01*
X1Y478D02*
X8Y478D01*
X1646Y478D02*
X1653Y478D01*
X1Y477D02*
X8Y477D01*
X1646Y477D02*
X1653Y477D01*
X1Y476D02*
X8Y476D01*
X1646Y476D02*
X1653Y476D01*
X1Y475D02*
X8Y475D01*
X1646Y475D02*
X1653Y475D01*
X1Y474D02*
X8Y474D01*
X1646Y474D02*
X1653Y474D01*
X1Y473D02*
X8Y473D01*
X1646Y473D02*
X1653Y473D01*
X1Y472D02*
X8Y472D01*
X1646Y472D02*
X1653Y472D01*
X1Y471D02*
X8Y471D01*
X1646Y471D02*
X1653Y471D01*
X1Y470D02*
X8Y470D01*
X1646Y470D02*
X1653Y470D01*
X1Y469D02*
X8Y469D01*
X1646Y469D02*
X1653Y469D01*
X1Y468D02*
X8Y468D01*
X1646Y468D02*
X1653Y468D01*
X1Y467D02*
X8Y467D01*
X1646Y467D02*
X1653Y467D01*
X1Y466D02*
X8Y466D01*
X1646Y466D02*
X1653Y466D01*
X1Y465D02*
X8Y465D01*
X1646Y465D02*
X1653Y465D01*
X1Y464D02*
X8Y464D01*
X1646Y464D02*
X1653Y464D01*
X1Y463D02*
X8Y463D01*
X1646Y463D02*
X1653Y463D01*
X1Y462D02*
X8Y462D01*
X1646Y462D02*
X1653Y462D01*
X1Y461D02*
X8Y461D01*
X1646Y461D02*
X1653Y461D01*
X1Y460D02*
X8Y460D01*
X1646Y460D02*
X1653Y460D01*
X1Y459D02*
X8Y459D01*
X1646Y459D02*
X1653Y459D01*
X1Y458D02*
X8Y458D01*
X1646Y458D02*
X1653Y458D01*
X1Y457D02*
X8Y457D01*
X1646Y457D02*
X1653Y457D01*
X1Y456D02*
X8Y456D01*
X1646Y456D02*
X1653Y456D01*
X1Y455D02*
X8Y455D01*
X1646Y455D02*
X1653Y455D01*
X1Y454D02*
X8Y454D01*
X1646Y454D02*
X1653Y454D01*
X1Y453D02*
X8Y453D01*
X1646Y453D02*
X1653Y453D01*
X1Y452D02*
X8Y452D01*
X1646Y452D02*
X1653Y452D01*
X1Y451D02*
X8Y451D01*
X1646Y451D02*
X1653Y451D01*
X1Y450D02*
X8Y450D01*
X1646Y450D02*
X1653Y450D01*
X1Y449D02*
X8Y449D01*
X1646Y449D02*
X1653Y449D01*
X1Y448D02*
X8Y448D01*
X1646Y448D02*
X1653Y448D01*
X1Y447D02*
X8Y447D01*
X1646Y447D02*
X1653Y447D01*
X1Y446D02*
X8Y446D01*
X1646Y446D02*
X1653Y446D01*
X1Y445D02*
X8Y445D01*
X1646Y445D02*
X1653Y445D01*
X1Y444D02*
X8Y444D01*
X1646Y444D02*
X1653Y444D01*
X1Y443D02*
X8Y443D01*
X1646Y443D02*
X1653Y443D01*
X1Y442D02*
X8Y442D01*
X1646Y442D02*
X1653Y442D01*
X1Y441D02*
X8Y441D01*
X1646Y441D02*
X1653Y441D01*
X1Y440D02*
X8Y440D01*
X1646Y440D02*
X1653Y440D01*
X1Y439D02*
X8Y439D01*
X1646Y439D02*
X1653Y439D01*
X1Y438D02*
X8Y438D01*
X1646Y438D02*
X1653Y438D01*
X1Y437D02*
X8Y437D01*
X1646Y437D02*
X1653Y437D01*
X1Y436D02*
X8Y436D01*
X1646Y436D02*
X1653Y436D01*
X1Y435D02*
X8Y435D01*
X1646Y435D02*
X1653Y435D01*
X1Y434D02*
X8Y434D01*
X1646Y434D02*
X1653Y434D01*
X1Y433D02*
X8Y433D01*
X1646Y433D02*
X1653Y433D01*
X1Y432D02*
X8Y432D01*
X1646Y432D02*
X1653Y432D01*
X1Y431D02*
X8Y431D01*
X1646Y431D02*
X1653Y431D01*
X1Y430D02*
X8Y430D01*
X1646Y430D02*
X1653Y430D01*
X1Y429D02*
X8Y429D01*
X1646Y429D02*
X1653Y429D01*
X1Y428D02*
X8Y428D01*
X1646Y428D02*
X1653Y428D01*
X1Y427D02*
X8Y427D01*
X1646Y427D02*
X1653Y427D01*
X1Y426D02*
X8Y426D01*
X1646Y426D02*
X1653Y426D01*
X1Y425D02*
X8Y425D01*
X1646Y425D02*
X1653Y425D01*
X1Y424D02*
X8Y424D01*
X1646Y424D02*
X1653Y424D01*
X1Y423D02*
X8Y423D01*
X1646Y423D02*
X1653Y423D01*
X1Y422D02*
X8Y422D01*
X1646Y422D02*
X1653Y422D01*
X1Y421D02*
X8Y421D01*
X1646Y421D02*
X1653Y421D01*
X1Y420D02*
X8Y420D01*
X1646Y420D02*
X1653Y420D01*
X1Y419D02*
X8Y419D01*
X1646Y419D02*
X1653Y419D01*
X1Y418D02*
X8Y418D01*
X1646Y418D02*
X1653Y418D01*
X1Y417D02*
X8Y417D01*
X1646Y417D02*
X1653Y417D01*
X1Y416D02*
X8Y416D01*
X1646Y416D02*
X1653Y416D01*
X1Y415D02*
X8Y415D01*
X1646Y415D02*
X1653Y415D01*
X1Y414D02*
X8Y414D01*
X1646Y414D02*
X1653Y414D01*
X1Y413D02*
X8Y413D01*
X1646Y413D02*
X1653Y413D01*
X1Y412D02*
X8Y412D01*
X1646Y412D02*
X1653Y412D01*
X1Y411D02*
X8Y411D01*
X1646Y411D02*
X1653Y411D01*
X1Y410D02*
X8Y410D01*
X1646Y410D02*
X1653Y410D01*
X1Y409D02*
X8Y409D01*
X1646Y409D02*
X1653Y409D01*
X1Y408D02*
X8Y408D01*
X1646Y408D02*
X1653Y408D01*
X1Y407D02*
X8Y407D01*
X1646Y407D02*
X1653Y407D01*
X1Y406D02*
X8Y406D01*
X1646Y406D02*
X1653Y406D01*
X1Y405D02*
X8Y405D01*
X1646Y405D02*
X1653Y405D01*
X1Y404D02*
X8Y404D01*
X1646Y404D02*
X1653Y404D01*
X1Y403D02*
X8Y403D01*
X1646Y403D02*
X1653Y403D01*
X1Y402D02*
X8Y402D01*
X1646Y402D02*
X1653Y402D01*
X1Y401D02*
X8Y401D01*
X1646Y401D02*
X1653Y401D01*
X1Y400D02*
X8Y400D01*
X1646Y400D02*
X1653Y400D01*
X1Y399D02*
X8Y399D01*
X1646Y399D02*
X1653Y399D01*
X1Y398D02*
X8Y398D01*
X1646Y398D02*
X1653Y398D01*
X1Y397D02*
X8Y397D01*
X1646Y397D02*
X1653Y397D01*
X1Y396D02*
X8Y396D01*
X1646Y396D02*
X1653Y396D01*
X1Y395D02*
X8Y395D01*
X1646Y395D02*
X1653Y395D01*
X1Y394D02*
X8Y394D01*
X1646Y394D02*
X1653Y394D01*
X1Y393D02*
X8Y393D01*
X1646Y393D02*
X1653Y393D01*
X1Y392D02*
X8Y392D01*
X1646Y392D02*
X1653Y392D01*
X1Y391D02*
X8Y391D01*
X1646Y391D02*
X1653Y391D01*
X1Y390D02*
X8Y390D01*
X1646Y390D02*
X1653Y390D01*
X1Y389D02*
X8Y389D01*
X1646Y389D02*
X1653Y389D01*
X1Y388D02*
X8Y388D01*
X1646Y388D02*
X1653Y388D01*
X1Y387D02*
X8Y387D01*
X1646Y387D02*
X1653Y387D01*
X1Y386D02*
X8Y386D01*
X1646Y386D02*
X1653Y386D01*
X1Y385D02*
X8Y385D01*
X1646Y385D02*
X1653Y385D01*
X1Y384D02*
X8Y384D01*
X1646Y384D02*
X1653Y384D01*
X1Y383D02*
X8Y383D01*
X1646Y383D02*
X1653Y383D01*
X1Y382D02*
X8Y382D01*
X1646Y382D02*
X1653Y382D01*
X1Y381D02*
X8Y381D01*
X1646Y381D02*
X1653Y381D01*
X1Y380D02*
X8Y380D01*
X1646Y380D02*
X1653Y380D01*
X1Y379D02*
X8Y379D01*
X1646Y379D02*
X1653Y379D01*
X1Y378D02*
X8Y378D01*
X1646Y378D02*
X1653Y378D01*
X1Y377D02*
X8Y377D01*
X1646Y377D02*
X1653Y377D01*
X1Y376D02*
X8Y376D01*
X1646Y376D02*
X1653Y376D01*
X1Y375D02*
X8Y375D01*
X1646Y375D02*
X1653Y375D01*
X1Y374D02*
X8Y374D01*
X1646Y374D02*
X1653Y374D01*
X1Y373D02*
X8Y373D01*
X1646Y373D02*
X1653Y373D01*
X1Y372D02*
X8Y372D01*
X1646Y372D02*
X1653Y372D01*
X2Y371D02*
X9Y371D01*
X1645Y371D02*
X1652Y371D01*
X2Y370D02*
X9Y370D01*
X1645Y370D02*
X1652Y370D01*
X2Y369D02*
X9Y369D01*
X1645Y369D02*
X1652Y369D01*
X2Y368D02*
X9Y368D01*
X1645Y368D02*
X1652Y368D01*
X2Y367D02*
X9Y367D01*
X1645Y367D02*
X1652Y367D01*
X2Y366D02*
X9Y366D01*
X1645Y366D02*
X1652Y366D01*
X2Y365D02*
X9Y365D01*
X1645Y365D02*
X1652Y365D01*
X2Y364D02*
X9Y364D01*
X1645Y364D02*
X1652Y364D01*
X2Y363D02*
X9Y363D01*
X1645Y363D02*
X1652Y363D01*
X2Y362D02*
X9Y362D01*
X1645Y362D02*
X1652Y362D01*
X2Y361D02*
X9Y361D01*
X1645Y361D02*
X1652Y361D01*
X2Y360D02*
X9Y360D01*
X1645Y360D02*
X1652Y360D01*
X2Y359D02*
X9Y359D01*
X1645Y359D02*
X1652Y359D01*
X2Y358D02*
X9Y358D01*
X1645Y358D02*
X1652Y358D01*
X3Y357D02*
X10Y357D01*
X1644Y357D02*
X1651Y357D01*
X3Y356D02*
X10Y356D01*
X1644Y356D02*
X1651Y356D01*
X3Y355D02*
X10Y355D01*
X1644Y355D02*
X1651Y355D01*
X3Y354D02*
X10Y354D01*
X1644Y354D02*
X1651Y354D01*
X3Y353D02*
X10Y353D01*
X1644Y353D02*
X1651Y353D01*
X3Y352D02*
X10Y352D01*
X1644Y352D02*
X1651Y352D01*
X3Y351D02*
X10Y351D01*
X1644Y351D02*
X1651Y351D01*
X3Y350D02*
X10Y350D01*
X1644Y350D02*
X1651Y350D01*
X3Y349D02*
X10Y349D01*
X1644Y349D02*
X1651Y349D01*
X3Y348D02*
X10Y348D01*
X1644Y348D02*
X1651Y348D01*
X4Y347D02*
X11Y347D01*
X1643Y347D02*
X1650Y347D01*
X4Y346D02*
X11Y346D01*
X1643Y346D02*
X1650Y346D01*
X4Y345D02*
X11Y345D01*
X1643Y345D02*
X1650Y345D01*
X4Y344D02*
X11Y344D01*
X1643Y344D02*
X1650Y344D01*
X4Y343D02*
X11Y343D01*
X1643Y343D02*
X1650Y343D01*
X4Y342D02*
X11Y342D01*
X1643Y342D02*
X1650Y342D01*
X4Y341D02*
X11Y341D01*
X1643Y341D02*
X1650Y341D01*
X4Y340D02*
X11Y340D01*
X1643Y340D02*
X1650Y340D01*
X4Y339D02*
X12Y339D01*
X1642Y339D02*
X1650Y339D01*
X5Y338D02*
X12Y338D01*
X1642Y338D02*
X1649Y338D01*
X5Y337D02*
X12Y337D01*
X1642Y337D02*
X1649Y337D01*
X5Y336D02*
X12Y336D01*
X1642Y336D02*
X1649Y336D01*
X5Y335D02*
X12Y335D01*
X1642Y335D02*
X1649Y335D01*
X5Y334D02*
X12Y334D01*
X1642Y334D02*
X1649Y334D01*
X5Y333D02*
X12Y333D01*
X1642Y333D02*
X1649Y333D01*
X5Y332D02*
X13Y332D01*
X1641Y332D02*
X1649Y332D01*
X6Y331D02*
X13Y331D01*
X1641Y331D02*
X1648Y331D01*
X6Y330D02*
X13Y330D01*
X1641Y330D02*
X1648Y330D01*
X6Y329D02*
X13Y329D01*
X1641Y329D02*
X1648Y329D01*
X6Y328D02*
X13Y328D01*
X1641Y328D02*
X1648Y328D01*
X6Y327D02*
X13Y327D01*
X1641Y327D02*
X1648Y327D01*
X6Y326D02*
X14Y326D01*
X1640Y326D02*
X1648Y326D01*
X7Y325D02*
X14Y325D01*
X1640Y325D02*
X1647Y325D01*
X7Y324D02*
X14Y324D01*
X1640Y324D02*
X1647Y324D01*
X7Y323D02*
X14Y323D01*
X1640Y323D02*
X1647Y323D01*
X7Y322D02*
X14Y322D01*
X1640Y322D02*
X1647Y322D01*
X7Y321D02*
X14Y321D01*
X1640Y321D02*
X1647Y321D01*
X8Y320D02*
X15Y320D01*
X1639Y320D02*
X1646Y320D01*
X8Y319D02*
X15Y319D01*
X1639Y319D02*
X1646Y319D01*
X8Y318D02*
X15Y318D01*
X1639Y318D02*
X1646Y318D01*
X8Y317D02*
X15Y317D01*
X1639Y317D02*
X1646Y317D01*
X8Y316D02*
X15Y316D01*
X1639Y316D02*
X1646Y316D01*
X8Y315D02*
X16Y315D01*
X1638Y315D02*
X1646Y315D01*
X9Y314D02*
X16Y314D01*
X1638Y314D02*
X1645Y314D01*
X9Y313D02*
X16Y313D01*
X1638Y313D02*
X1645Y313D01*
X9Y312D02*
X16Y312D01*
X1638Y312D02*
X1645Y312D01*
X9Y311D02*
X16Y311D01*
X1638Y311D02*
X1645Y311D01*
X9Y310D02*
X17Y310D01*
X1637Y310D02*
X1645Y310D01*
X10Y309D02*
X17Y309D01*
X1637Y309D02*
X1644Y309D01*
X10Y308D02*
X17Y308D01*
X1637Y308D02*
X1644Y308D01*
X10Y307D02*
X17Y307D01*
X1637Y307D02*
X1644Y307D01*
X10Y306D02*
X17Y306D01*
X1637Y306D02*
X1644Y306D01*
X11Y305D02*
X18Y305D01*
X1636Y305D02*
X1643Y305D01*
X11Y304D02*
X18Y304D01*
X1636Y304D02*
X1643Y304D01*
X11Y303D02*
X18Y303D01*
X1636Y303D02*
X1643Y303D01*
X11Y302D02*
X18Y302D01*
X1636Y302D02*
X1643Y302D01*
X12Y301D02*
X19Y301D01*
X1635Y301D02*
X1642Y301D01*
X12Y300D02*
X19Y300D01*
X1635Y300D02*
X1642Y300D01*
X12Y299D02*
X19Y299D01*
X1635Y299D02*
X1642Y299D01*
X12Y298D02*
X19Y298D01*
X1635Y298D02*
X1642Y298D01*
X12Y297D02*
X20Y297D01*
X1634Y297D02*
X1642Y297D01*
X13Y296D02*
X20Y296D01*
X1634Y296D02*
X1641Y296D01*
X13Y295D02*
X20Y295D01*
X1634Y295D02*
X1641Y295D01*
X13Y294D02*
X20Y294D01*
X1634Y294D02*
X1641Y294D01*
X13Y293D02*
X21Y293D01*
X1633Y293D02*
X1641Y293D01*
X14Y292D02*
X21Y292D01*
X1633Y292D02*
X1640Y292D01*
X14Y291D02*
X21Y291D01*
X1633Y291D02*
X1640Y291D01*
X14Y290D02*
X21Y290D01*
X1633Y290D02*
X1640Y290D01*
X15Y289D02*
X22Y289D01*
X1632Y289D02*
X1639Y289D01*
X15Y288D02*
X22Y288D01*
X1632Y288D02*
X1639Y288D01*
X15Y287D02*
X22Y287D01*
X1632Y287D02*
X1639Y287D01*
X15Y286D02*
X23Y286D01*
X1631Y286D02*
X1639Y286D01*
X16Y285D02*
X23Y285D01*
X1631Y285D02*
X1638Y285D01*
X16Y284D02*
X23Y284D01*
X1631Y284D02*
X1638Y284D01*
X16Y283D02*
X23Y283D01*
X1631Y283D02*
X1638Y283D01*
X17Y282D02*
X24Y282D01*
X1630Y282D02*
X1637Y282D01*
X17Y281D02*
X24Y281D01*
X1630Y281D02*
X1637Y281D01*
X17Y280D02*
X24Y280D01*
X1630Y280D02*
X1637Y280D01*
X17Y279D02*
X25Y279D01*
X1629Y279D02*
X1637Y279D01*
X18Y278D02*
X25Y278D01*
X1629Y278D02*
X1636Y278D01*
X18Y277D02*
X25Y277D01*
X1629Y277D02*
X1636Y277D01*
X18Y276D02*
X26Y276D01*
X1628Y276D02*
X1636Y276D01*
X19Y275D02*
X26Y275D01*
X1628Y275D02*
X1635Y275D01*
X19Y274D02*
X26Y274D01*
X1628Y274D02*
X1635Y274D01*
X19Y273D02*
X27Y273D01*
X1627Y273D02*
X1635Y273D01*
X20Y272D02*
X27Y272D01*
X1627Y272D02*
X1634Y272D01*
X20Y271D02*
X27Y271D01*
X1627Y271D02*
X1634Y271D01*
X20Y270D02*
X28Y270D01*
X1626Y270D02*
X1634Y270D01*
X21Y269D02*
X28Y269D01*
X1626Y269D02*
X1633Y269D01*
X21Y268D02*
X28Y268D01*
X1626Y268D02*
X1633Y268D01*
X21Y267D02*
X29Y267D01*
X1625Y267D02*
X1633Y267D01*
X22Y266D02*
X29Y266D01*
X1625Y266D02*
X1632Y266D01*
X22Y265D02*
X29Y265D01*
X1625Y265D02*
X1632Y265D01*
X22Y264D02*
X30Y264D01*
X1624Y264D02*
X1632Y264D01*
X23Y263D02*
X30Y263D01*
X1624Y263D02*
X1631Y263D01*
X23Y262D02*
X30Y262D01*
X1624Y262D02*
X1631Y262D01*
X23Y261D02*
X31Y261D01*
X1623Y261D02*
X1631Y261D01*
X24Y260D02*
X31Y260D01*
X1623Y260D02*
X1630Y260D01*
X24Y259D02*
X31Y259D01*
X1623Y259D02*
X1630Y259D01*
X24Y258D02*
X32Y258D01*
X1622Y258D02*
X1630Y258D01*
X25Y257D02*
X32Y257D01*
X1622Y257D02*
X1629Y257D01*
X25Y256D02*
X33Y256D01*
X1621Y256D02*
X1629Y256D01*
X25Y255D02*
X33Y255D01*
X1621Y255D02*
X1629Y255D01*
X26Y254D02*
X33Y254D01*
X1621Y254D02*
X1628Y254D01*
X26Y253D02*
X34Y253D01*
X1620Y253D02*
X1628Y253D01*
X27Y252D02*
X34Y252D01*
X1620Y252D02*
X1627Y252D01*
X27Y251D02*
X34Y251D01*
X1620Y251D02*
X1627Y251D01*
X27Y250D02*
X35Y250D01*
X1619Y250D02*
X1627Y250D01*
X28Y249D02*
X35Y249D01*
X1619Y249D02*
X1626Y249D01*
X28Y248D02*
X36Y248D01*
X1618Y248D02*
X1626Y248D01*
X29Y247D02*
X36Y247D01*
X1618Y247D02*
X1625Y247D01*
X29Y246D02*
X36Y246D01*
X1618Y246D02*
X1625Y246D01*
X29Y245D02*
X37Y245D01*
X1617Y245D02*
X1625Y245D01*
X30Y244D02*
X37Y244D01*
X1617Y244D02*
X1624Y244D01*
X30Y243D02*
X38Y243D01*
X1616Y243D02*
X1624Y243D01*
X31Y242D02*
X38Y242D01*
X1616Y242D02*
X1623Y242D01*
X31Y241D02*
X39Y241D01*
X1615Y241D02*
X1623Y241D01*
X31Y240D02*
X39Y240D01*
X1615Y240D02*
X1623Y240D01*
X32Y239D02*
X39Y239D01*
X1615Y239D02*
X1622Y239D01*
X32Y238D02*
X40Y238D01*
X1614Y238D02*
X1622Y238D01*
X33Y237D02*
X40Y237D01*
X1614Y237D02*
X1621Y237D01*
X33Y236D02*
X41Y236D01*
X1613Y236D02*
X1621Y236D01*
X34Y235D02*
X41Y235D01*
X1613Y235D02*
X1620Y235D01*
X34Y234D02*
X42Y234D01*
X1612Y234D02*
X1620Y234D01*
X34Y233D02*
X42Y233D01*
X1612Y233D02*
X1619Y233D01*
X35Y232D02*
X43Y232D01*
X1611Y232D02*
X1619Y232D01*
X35Y231D02*
X43Y231D01*
X1611Y231D02*
X1619Y231D01*
X36Y230D02*
X43Y230D01*
X1611Y230D02*
X1618Y230D01*
X36Y229D02*
X44Y229D01*
X1610Y229D02*
X1618Y229D01*
X37Y228D02*
X44Y228D01*
X1610Y228D02*
X1617Y228D01*
X37Y227D02*
X45Y227D01*
X1609Y227D02*
X1617Y227D01*
X38Y226D02*
X45Y226D01*
X1609Y226D02*
X1616Y226D01*
X38Y225D02*
X46Y225D01*
X1608Y225D02*
X1616Y225D01*
X39Y224D02*
X46Y224D01*
X1608Y224D02*
X1615Y224D01*
X39Y223D02*
X47Y223D01*
X1607Y223D02*
X1615Y223D01*
X39Y222D02*
X47Y222D01*
X1607Y222D02*
X1615Y222D01*
X40Y221D02*
X48Y221D01*
X1606Y221D02*
X1614Y221D01*
X40Y220D02*
X48Y220D01*
X1606Y220D02*
X1614Y220D01*
X41Y219D02*
X49Y219D01*
X1605Y219D02*
X1613Y219D01*
X42Y218D02*
X49Y218D01*
X1605Y218D02*
X1612Y218D01*
X42Y217D02*
X50Y217D01*
X1604Y217D02*
X1612Y217D01*
X43Y216D02*
X50Y216D01*
X1604Y216D02*
X1611Y216D01*
X43Y215D02*
X51Y215D01*
X1603Y215D02*
X1611Y215D01*
X44Y214D02*
X51Y214D01*
X1603Y214D02*
X1610Y214D01*
X44Y213D02*
X52Y213D01*
X1602Y213D02*
X1610Y213D01*
X45Y212D02*
X52Y212D01*
X1602Y212D02*
X1609Y212D01*
X45Y211D02*
X53Y211D01*
X1601Y211D02*
X1609Y211D01*
X46Y210D02*
X53Y210D01*
X1601Y210D02*
X1608Y210D01*
X46Y209D02*
X54Y209D01*
X1600Y209D02*
X1608Y209D01*
X47Y208D02*
X55Y208D01*
X1599Y208D02*
X1607Y208D01*
X47Y207D02*
X55Y207D01*
X1599Y207D02*
X1607Y207D01*
X48Y206D02*
X56Y206D01*
X1598Y206D02*
X1606Y206D01*
X48Y205D02*
X56Y205D01*
X1598Y205D02*
X1606Y205D01*
X49Y204D02*
X57Y204D01*
X1597Y204D02*
X1605Y204D01*
X49Y203D02*
X57Y203D01*
X1597Y203D02*
X1605Y203D01*
X50Y202D02*
X58Y202D01*
X1596Y202D02*
X1604Y202D01*
X50Y201D02*
X59Y201D01*
X1595Y201D02*
X1604Y201D01*
X51Y200D02*
X59Y200D01*
X1595Y200D02*
X1603Y200D01*
X52Y199D02*
X60Y199D01*
X1594Y199D02*
X1602Y199D01*
X52Y198D02*
X60Y198D01*
X1594Y198D02*
X1602Y198D01*
X53Y197D02*
X61Y197D01*
X1593Y197D02*
X1601Y197D01*
X53Y196D02*
X61Y196D01*
X1593Y196D02*
X1601Y196D01*
X54Y195D02*
X62Y195D01*
X1592Y195D02*
X1600Y195D01*
X54Y194D02*
X63Y194D01*
X1591Y194D02*
X1600Y194D01*
X55Y193D02*
X63Y193D01*
X1591Y193D02*
X1599Y193D01*
X56Y192D02*
X64Y192D01*
X1590Y192D02*
X1598Y192D01*
X56Y191D02*
X64Y191D01*
X1590Y191D02*
X1598Y191D01*
X57Y190D02*
X65Y190D01*
X1589Y190D02*
X1597Y190D01*
X57Y189D02*
X66Y189D01*
X1588Y189D02*
X1597Y189D01*
X58Y188D02*
X66Y188D01*
X1588Y188D02*
X1596Y188D01*
X59Y187D02*
X67Y187D01*
X1587Y187D02*
X1595Y187D01*
X59Y186D02*
X68Y186D01*
X1586Y186D02*
X1595Y186D01*
X60Y185D02*
X68Y185D01*
X1586Y185D02*
X1594Y185D01*
X61Y184D02*
X69Y184D01*
X1585Y184D02*
X1593Y184D01*
X61Y183D02*
X70Y183D01*
X1584Y183D02*
X1593Y183D01*
X62Y182D02*
X70Y182D01*
X1584Y182D02*
X1592Y182D01*
X62Y181D02*
X71Y181D01*
X1583Y181D02*
X1592Y181D01*
X63Y180D02*
X71Y180D01*
X1583Y180D02*
X1591Y180D01*
X64Y179D02*
X72Y179D01*
X1582Y179D02*
X1590Y179D01*
X64Y178D02*
X73Y178D01*
X1581Y178D02*
X1590Y178D01*
X65Y177D02*
X73Y177D01*
X1581Y177D02*
X1589Y177D01*
X66Y176D02*
X74Y176D01*
X1580Y176D02*
X1588Y176D01*
X66Y175D02*
X75Y175D01*
X1579Y175D02*
X1588Y175D01*
X67Y174D02*
X76Y174D01*
X1578Y174D02*
X1587Y174D01*
X68Y173D02*
X76Y173D01*
X1578Y173D02*
X1586Y173D01*
X68Y172D02*
X77Y172D01*
X1577Y172D02*
X1586Y172D01*
X69Y171D02*
X78Y171D01*
X1576Y171D02*
X1585Y171D01*
X70Y170D02*
X78Y170D01*
X1576Y170D02*
X1584Y170D01*
X70Y169D02*
X79Y169D01*
X1575Y169D02*
X1584Y169D01*
X71Y168D02*
X80Y168D01*
X1574Y168D02*
X1583Y168D01*
X72Y167D02*
X81Y167D01*
X1573Y167D02*
X1582Y167D01*
X73Y166D02*
X81Y166D01*
X1573Y166D02*
X1581Y166D01*
X73Y165D02*
X82Y165D01*
X1572Y165D02*
X1581Y165D01*
X74Y164D02*
X83Y164D01*
X1571Y164D02*
X1580Y164D01*
X75Y163D02*
X83Y163D01*
X1571Y163D02*
X1579Y163D01*
X75Y162D02*
X84Y162D01*
X1570Y162D02*
X1579Y162D01*
X76Y161D02*
X85Y161D01*
X1569Y161D02*
X1578Y161D01*
X77Y160D02*
X86Y160D01*
X1568Y160D02*
X1577Y160D01*
X77Y159D02*
X86Y159D01*
X1568Y159D02*
X1577Y159D01*
X78Y158D02*
X87Y158D01*
X1567Y158D02*
X1576Y158D01*
X79Y157D02*
X88Y157D01*
X1566Y157D02*
X1575Y157D01*
X80Y156D02*
X89Y156D01*
X1565Y156D02*
X1574Y156D01*
X80Y155D02*
X90Y155D01*
X1564Y155D02*
X1574Y155D01*
X81Y154D02*
X90Y154D01*
X1564Y154D02*
X1573Y154D01*
X82Y153D02*
X91Y153D01*
X1563Y153D02*
X1572Y153D01*
X83Y152D02*
X92Y152D01*
X1562Y152D02*
X1571Y152D01*
X84Y151D02*
X93Y151D01*
X1561Y151D02*
X1570Y151D01*
X84Y150D02*
X94Y150D01*
X1560Y150D02*
X1570Y150D01*
X85Y149D02*
X94Y149D01*
X1560Y149D02*
X1569Y149D01*
X86Y148D02*
X95Y148D01*
X1559Y148D02*
X1568Y148D01*
X87Y147D02*
X96Y147D01*
X1558Y147D02*
X1567Y147D01*
X88Y146D02*
X97Y146D01*
X1557Y146D02*
X1566Y146D01*
X88Y145D02*
X98Y145D01*
X1556Y145D02*
X1566Y145D01*
X89Y144D02*
X99Y144D01*
X1555Y144D02*
X1565Y144D01*
X90Y143D02*
X99Y143D01*
X1555Y143D02*
X1564Y143D01*
X91Y142D02*
X100Y142D01*
X1554Y142D02*
X1563Y142D01*
X92Y141D02*
X101Y141D01*
X1553Y141D02*
X1562Y141D01*
X92Y140D02*
X102Y140D01*
X1552Y140D02*
X1562Y140D01*
X93Y139D02*
X103Y139D01*
X1551Y139D02*
X1561Y139D01*
X94Y138D02*
X104Y138D01*
X1550Y138D02*
X1560Y138D01*
X95Y137D02*
X105Y137D01*
X1549Y137D02*
X1559Y137D01*
X96Y136D02*
X106Y136D01*
X1548Y136D02*
X1558Y136D01*
X97Y135D02*
X106Y135D01*
X1548Y135D02*
X1557Y135D01*
X98Y134D02*
X107Y134D01*
X1547Y134D02*
X1556Y134D01*
X99Y133D02*
X108Y133D01*
X1546Y133D02*
X1555Y133D01*
X99Y132D02*
X109Y132D01*
X1545Y132D02*
X1555Y132D01*
X100Y131D02*
X110Y131D01*
X1544Y131D02*
X1554Y131D01*
X101Y130D02*
X111Y130D01*
X1543Y130D02*
X1553Y130D01*
X102Y129D02*
X112Y129D01*
X1542Y129D02*
X1552Y129D01*
X103Y128D02*
X113Y128D01*
X1541Y128D02*
X1551Y128D01*
X104Y127D02*
X114Y127D01*
X1540Y127D02*
X1550Y127D01*
X105Y126D02*
X115Y126D01*
X1539Y126D02*
X1549Y126D01*
X106Y125D02*
X116Y125D01*
X1538Y125D02*
X1548Y125D01*
X107Y124D02*
X117Y124D01*
X1537Y124D02*
X1547Y124D01*
X108Y123D02*
X118Y123D01*
X1536Y123D02*
X1546Y123D01*
X109Y122D02*
X119Y122D01*
X1535Y122D02*
X1545Y122D01*
X110Y121D02*
X120Y121D01*
X1534Y121D02*
X1544Y121D01*
X111Y120D02*
X121Y120D01*
X1533Y120D02*
X1543Y120D01*
X111Y119D02*
X122Y119D01*
X1532Y119D02*
X1543Y119D01*
X112Y118D02*
X123Y118D01*
X1531Y118D02*
X1542Y118D01*
X113Y117D02*
X124Y117D01*
X1530Y117D02*
X1541Y117D01*
X114Y116D02*
X125Y116D01*
X1529Y116D02*
X1540Y116D01*
X115Y115D02*
X126Y115D01*
X1528Y115D02*
X1539Y115D01*
X116Y114D02*
X127Y114D01*
X1527Y114D02*
X1538Y114D01*
X117Y113D02*
X128Y113D01*
X1526Y113D02*
X1537Y113D01*
X118Y112D02*
X129Y112D01*
X1525Y112D02*
X1536Y112D01*
X119Y111D02*
X130Y111D01*
X1524Y111D02*
X1535Y111D01*
X121Y110D02*
X131Y110D01*
X1523Y110D02*
X1533Y110D01*
X122Y109D02*
X132Y109D01*
X1522Y109D02*
X1532Y109D01*
X123Y108D02*
X133Y108D01*
X1521Y108D02*
X1531Y108D01*
X124Y107D02*
X134Y107D01*
X1520Y107D02*
X1530Y107D01*
X125Y106D02*
X136Y106D01*
X1518Y106D02*
X1529Y106D01*
X126Y105D02*
X137Y105D01*
X1517Y105D02*
X1528Y105D01*
X127Y104D02*
X138Y104D01*
X1516Y104D02*
X1527Y104D01*
X128Y103D02*
X139Y103D01*
X1515Y103D02*
X1526Y103D01*
X129Y102D02*
X140Y102D01*
X1514Y102D02*
X1525Y102D01*
X130Y101D02*
X141Y101D01*
X1513Y101D02*
X1524Y101D01*
X131Y100D02*
X142Y100D01*
X1512Y100D02*
X1523Y100D01*
X132Y99D02*
X144Y99D01*
X1510Y99D02*
X1522Y99D01*
X134Y98D02*
X145Y98D01*
X1509Y98D02*
X1520Y98D01*
X135Y97D02*
X146Y97D01*
X1508Y97D02*
X1519Y97D01*
X136Y96D02*
X147Y96D01*
X1507Y96D02*
X1518Y96D01*
X137Y95D02*
X148Y95D01*
X1506Y95D02*
X1517Y95D01*
X138Y94D02*
X150Y94D01*
X1504Y94D02*
X1516Y94D01*
X139Y93D02*
X151Y93D01*
X1503Y93D02*
X1515Y93D01*
X140Y92D02*
X152Y92D01*
X1502Y92D02*
X1514Y92D01*
X142Y91D02*
X153Y91D01*
X1501Y91D02*
X1512Y91D01*
X143Y90D02*
X155Y90D01*
X1499Y90D02*
X1511Y90D01*
X144Y89D02*
X156Y89D01*
X1498Y89D02*
X1510Y89D01*
X145Y88D02*
X157Y88D01*
X1497Y88D02*
X1509Y88D01*
X147Y87D02*
X158Y87D01*
X1496Y87D02*
X1507Y87D01*
X148Y86D02*
X160Y86D01*
X1494Y86D02*
X1506Y86D01*
X149Y85D02*
X161Y85D01*
X1493Y85D02*
X1505Y85D01*
X150Y84D02*
X162Y84D01*
X1492Y84D02*
X1504Y84D01*
X152Y83D02*
X164Y83D01*
X1490Y83D02*
X1502Y83D01*
X153Y82D02*
X165Y82D01*
X1489Y82D02*
X1501Y82D01*
X154Y81D02*
X167Y81D01*
X1487Y81D02*
X1500Y81D01*
X155Y80D02*
X168Y80D01*
X1486Y80D02*
X1499Y80D01*
X157Y79D02*
X169Y79D01*
X1485Y79D02*
X1497Y79D01*
X158Y78D02*
X171Y78D01*
X1483Y78D02*
X1496Y78D01*
X159Y77D02*
X172Y77D01*
X1482Y77D02*
X1495Y77D01*
X161Y76D02*
X174Y76D01*
X1480Y76D02*
X1493Y76D01*
X162Y75D02*
X175Y75D01*
X1479Y75D02*
X1492Y75D01*
X164Y74D02*
X176Y74D01*
X1478Y74D02*
X1490Y74D01*
X165Y73D02*
X178Y73D01*
X1476Y73D02*
X1489Y73D01*
X167Y72D02*
X179Y72D01*
X1475Y72D02*
X1487Y72D01*
X168Y71D02*
X181Y71D01*
X1473Y71D02*
X1486Y71D01*
X169Y70D02*
X183Y70D01*
X1471Y70D02*
X1485Y70D01*
X171Y69D02*
X184Y69D01*
X1470Y69D02*
X1483Y69D01*
X172Y68D02*
X186Y68D01*
X1468Y68D02*
X1482Y68D01*
X174Y67D02*
X187Y67D01*
X1467Y67D02*
X1480Y67D01*
X175Y66D02*
X189Y66D01*
X1465Y66D02*
X1479Y66D01*
X177Y65D02*
X190Y65D01*
X1464Y65D02*
X1477Y65D01*
X178Y64D02*
X192Y64D01*
X1462Y64D02*
X1476Y64D01*
X180Y63D02*
X194Y63D01*
X1460Y63D02*
X1474Y63D01*
X181Y62D02*
X195Y62D01*
X1459Y62D02*
X1473Y62D01*
X183Y61D02*
X197Y61D01*
X1457Y61D02*
X1471Y61D01*
X185Y60D02*
X199Y60D01*
X1455Y60D02*
X1469Y60D01*
X186Y59D02*
X201Y59D01*
X1453Y59D02*
X1468Y59D01*
X188Y58D02*
X202Y58D01*
X1452Y58D02*
X1466Y58D01*
X189Y57D02*
X204Y57D01*
X1450Y57D02*
X1465Y57D01*
X191Y56D02*
X206Y56D01*
X1448Y56D02*
X1463Y56D01*
X193Y55D02*
X208Y55D01*
X1446Y55D02*
X1461Y55D01*
X194Y54D02*
X209Y54D01*
X1445Y54D02*
X1460Y54D01*
X196Y53D02*
X211Y53D01*
X1443Y53D02*
X1458Y53D01*
X198Y52D02*
X213Y52D01*
X1441Y52D02*
X1456Y52D01*
X200Y51D02*
X215Y51D01*
X1439Y51D02*
X1454Y51D01*
X201Y50D02*
X217Y50D01*
X1437Y50D02*
X1453Y50D01*
X203Y49D02*
X219Y49D01*
X1435Y49D02*
X1451Y49D01*
X205Y48D02*
X221Y48D01*
X1433Y48D02*
X1449Y48D01*
X207Y47D02*
X223Y47D01*
X1431Y47D02*
X1447Y47D01*
X209Y46D02*
X225Y46D01*
X1429Y46D02*
X1445Y46D01*
X211Y45D02*
X227Y45D01*
X1427Y45D02*
X1443Y45D01*
X213Y44D02*
X229Y44D01*
X1425Y44D02*
X1441Y44D01*
X215Y43D02*
X232Y43D01*
X1422Y43D02*
X1439Y43D01*
X217Y42D02*
X234Y42D01*
X1420Y42D02*
X1437Y42D01*
X219Y41D02*
X236Y41D01*
X1418Y41D02*
X1435Y41D01*
X220Y40D02*
X238Y40D01*
X1416Y40D02*
X1434Y40D01*
X222Y39D02*
X241Y39D01*
X1413Y39D02*
X1432Y39D01*
X225Y38D02*
X243Y38D01*
X1411Y38D02*
X1429Y38D01*
X227Y37D02*
X245Y37D01*
X1409Y37D02*
X1427Y37D01*
X229Y36D02*
X248Y36D01*
X1406Y36D02*
X1425Y36D01*
X231Y35D02*
X250Y35D01*
X1404Y35D02*
X1423Y35D01*
X234Y34D02*
X253Y34D01*
X1401Y34D02*
X1420Y34D01*
X236Y33D02*
X256Y33D01*
X1398Y33D02*
X1418Y33D01*
X238Y32D02*
X258Y32D01*
X1396Y32D02*
X1416Y32D01*
X240Y31D02*
X261Y31D01*
X1393Y31D02*
X1414Y31D01*
X243Y30D02*
X264Y30D01*
X1390Y30D02*
X1411Y30D01*
X245Y29D02*
X267Y29D01*
X1387Y29D02*
X1409Y29D01*
X248Y28D02*
X270Y28D01*
X1384Y28D02*
X1406Y28D01*
X250Y27D02*
X273Y27D01*
X1381Y27D02*
X1404Y27D01*
X253Y26D02*
X276Y26D01*
X1378Y26D02*
X1401Y26D01*
X255Y25D02*
X279Y25D01*
X1375Y25D02*
X1399Y25D01*
X258Y24D02*
X282Y24D01*
X1372Y24D02*
X1396Y24D01*
X261Y23D02*
X286Y23D01*
X1368Y23D02*
X1393Y23D01*
X264Y22D02*
X289Y22D01*
X1365Y22D02*
X1390Y22D01*
X267Y21D02*
X293Y21D01*
X1361Y21D02*
X1387Y21D01*
X270Y20D02*
X297Y20D01*
X1357Y20D02*
X1384Y20D01*
X273Y19D02*
X301Y19D01*
X1353Y19D02*
X1381Y19D01*
X276Y18D02*
X305Y18D01*
X1349Y18D02*
X1378Y18D01*
X279Y17D02*
X310Y17D01*
X1344Y17D02*
X1375Y17D01*
X283Y16D02*
X315Y16D01*
X1339Y16D02*
X1371Y16D01*
X286Y15D02*
X320Y15D01*
X1334Y15D02*
X1368Y15D01*
X290Y14D02*
X326Y14D01*
X1328Y14D02*
X1364Y14D01*
X293Y13D02*
X332Y13D01*
X1322Y13D02*
X1361Y13D01*
X297Y12D02*
X339Y12D01*
X1315Y12D02*
X1357Y12D01*
X302Y11D02*
X347Y11D01*
X1307Y11D02*
X1352Y11D01*
X306Y10D02*
X357Y10D01*
X1297Y10D02*
X1348Y10D01*
X310Y9D02*
X371Y9D01*
X1283Y9D02*
X1344Y9D01*
X315Y8D02*
X1339Y8D01*
X321Y7D02*
X1333Y7D01*
X326Y6D02*
X1328Y6D01*
X332Y5D02*
X1322Y5D01*
X339Y4D02*
X1315Y4D01*
X348Y3D02*
X1306Y3D01*
X358Y2D02*
X1296Y2D01*
X372Y1D02*
X1282Y1D01*
D02*
G04 End of Silk0*
M02*